{
.appVersion = "1233";
classes = (
{
automatic = 1;
code = "A B C D E F G H I K L M M.ss01 N O P Q R S T V X Y Z a b b_strok c c_ra c_t d d_strok e e_macr e_ogon f f_i f_i.ss01 g g_ring h l_strok i i.calt i_macr i_u i_u_macr l m m.calt m_macr m_ring n n.calt n_macr o o_macr p p.calt p_bardes p_flour p_macr p_urrot q q_bardes q_bardes_ra q_etfin q_ra q_ring q_strok q_strok_macr r r.calt r_macr r_a s longs longs_strok longs_longs longs_t t t_acute t_a t_i t_u u u_macr u_calt u_ring v x x_ring y etfin rum gamma mu upsilon omega Eta alpha beta delta epsilon theta iota iota_dieresis kappa lambda xi omicron pi rho tau upsilon_dieresis phi chi san deicoptic";
name = AllLetters;
}
);
copyright = "Copyright © 2019 ANRT. All rights reserved.";
customParameters = (
{
name = glyphOrder;
value = (
.notdef,
emspace,
enspace,
threeperemspace,
fourperemspace,
space,
thinspace,
hairspace,
A,
B,
C,
C,
D,
E,
F,
G,
H,
I,
J,
K,
L,
M,
M.ss01,
N,
O,
P,
Q,
Q_u,
R,
S,
T,
U,
V,
W,
X,
Y,
Z,
a,
a_macr,
a_m,
b,
b_hook,
b_strok,
c,
c_macr,
c_ra,
c_t,
c_t_macr,
d,
d_strok,
e,
e_macr,
e_hook,
e_ogon,
e_tilde,
f,
f_f,
f_i,
f_i.ss01,
g,
g_hook,
g_ring,
g_e,
g_urrot,
h,
h_hook,
h_strok,
i,
i.calt,
i_macr,
i_m,
i_n,
i_u,
i_u_macr,
j,
k,
l,
l_strok,
l_i,
m,
m.calt,
m_macr,
m_ring,
m_urrot,
n,
n.calt,
n_macr,
n_urrot,
n_i,
o,
o_macr,
o_tilde,
p,
p.ss01,
p.calt,
p_bardes,
p_flour,
p_macr,
p_tilde,
p_urrot,
p_p_flour,
q,
q_bardes,
q_bardes_ra,
q_etfin,
q_macr,
q_ra,
q_ring,
q_strok,
q_strok_macr,
q_strok_ra,
q_urrot,
r,
r.ss01,
r.calt,
r_macr,
r_hook,
r_rot,
r_tilde,
r_a,
r_i,
s,
longs,
longs_etfin,
longs_b_stock,
longs_strok,
longs_i,
longs_f,
longs_longs,
longs_t,
longs_colon,
t,
t_acute,
t_hook,
t_macr,
t_tilde,
t_ra,
t_a,
t_i,
t_u,
t_u_macr,
u,
u_macr,
u_hook,
u_calt,
u_ring,
u_tilde,
u_urrot,
u_i,
v,
v_hook,
w,
x,
x_ring,
x_urrot,
y,
z,
gamma,
mu,
theta,
etc,
upsilon,
omega,
pamphyliandigamma,
leo,
Eta,
alpha,
beta,
delta,
epsilon,
Theta,
theta,
iota,
iota_dieresis,
kappa,
lambda,
xi,
omicron,
pi,

glyphs = (
{
color = 3;
glyphname = A;
lastChange = "2019-04-23 10:15:55 +0000";
layers = (
{
layerId = "7C1725DE-9D81-4366-9E02-5B418FA849BA";
paths = (
{
closed = 1;
nodes = (
"166 281 OFFCURVE",
"311 576 OFFCURVE",
"311 630 CURVE",
"286 632 LINE",
"286 578 OFFCURVE",
"426 302 OFFCURVE",
"514 88 CURVE SMOOTH",
"529 51 OFFCURVE",
"510 47 OFFCURVE",
"484 30 CURVE",
"484 0 LINE",
"540 2 OFFCURVE",
"606 2 OFFCURVE",
"664 0 CURVE",
"664 30 LINE",
"396 577 LINE SMOOTH",
"377 616 OFFCURVE",
"365 657 OFFCURVE",
"352 700 CURVE",
"291 700 LINE",
"282 670 OFFCURVE",
"278 647 OFFCURVE",
"253 590 CURVE SMOOTH",
"5 30 LINE",
"5 0 LINE",
"46 3 OFFCURVE",
"88 3 OFFCURVE",
"129 0 CURVE",
"129 30 LINE",
"91 55 OFFCURVE",
"92 71 OFFCURVE",
"108 116 CURVE SMOOTH"
);
},
{
closed = 1;
nodes = (
"171 299 LINE",
"429 299 LINE",
"408 343 LINE",
"191 343 LINE"
);
}
);
width = 669;
}
);
unicode = 0041;
},
{
color = 3;
glyphname = B;
lastChange = "2019-04-23 10:15:52 +0000";
layers = (
{
layerId = "7C1725DE-9D81-4366-9E02-5B418FA849BA";
paths = (
{
closed = 1;
nodes = (
"33 608 LINE",
"90 608 LINE",
"103 465 OFFCURVE",
"100 164 OFFCURVE",
"86 28 CURVE",
"161 14 OFFCURVE",
"238 -10 OFFCURVE",
"353 -10 CURVE SMOOTH",
"473 -10 OFFCURVE",
"609 65 OFFCURVE",
"609 205 CURVE SMOOTH",
"609 337 OFFCURVE",
"514 387 OFFCURVE",
"344 408 CURVE",
"349 406 LINE",
"424 423 OFFCURVE",
"508 469 OFFCURVE",
"508 567 CURVE SMOOTH",
"508 663 OFFCURVE",
"406 710 OFFCURVE",
"316 710 CURVE SMOOTH",
"211 710 OFFCURVE",
"114 649 OFFCURVE",
"33 643 CURVE"
);
},
{
closed = 1;
nodes = (
"188 363 LINE",
"289 368 LINE SMOOTH",
"419 374 OFFCURVE",
"494 309 OFFCURVE",
"494 199 CURVE SMOOTH",
"494 109 OFFCURVE",
"440 35 OFFCURVE",
"340 35 CURVE SMOOTH",
"276 35 OFFCURVE",
"196 57 OFFCURVE",
"196 144 CURVE SMOOTH",
"196 637 LINE",
"270 675 OFFCURVE",
"405 661 OFFCURVE",
"405 546 CURVE SMOOTH",
"405 456 OFFCURVE",
"332 415 OFFCURVE",
"243 406 CURVE SMOOTH",
"186 400 LINE"
);
}
);
width = 639;
}
);
unicode = 0042;
},
{
color = 3;
glyphname = C;
lastChange = "2019-04-23 10:13:58 +0000";
layers = (
{
layerId = "7C1725DE-9D81-4366-9E02-5B418FA849BA";
paths = (
{
closed = 1;
nodes = (
"166 682 OFFCURVE",
"23 552 OFFCURVE",
"23 362 CURVE SMOOTH",
"23 132 OFFCURVE",
"155 -1 OFFCURVE",
"345 -10 CURVE",
"422 27 OFFCURVE",
"520 98 OFFCURVE",
"565 136 CURVE",
"559 169 LINE",
"501 134 OFFCURVE",
"438 91 OFFCURVE",
"353 91 CURVE SMOOTH",
"228 91 OFFCURVE",
"110 215 OFFCURVE",
"110 395 CURVE SMOOTH",
"110 534 OFFCURVE",
"163 596 OFFCURVE",
"217 626 CURVE",
"280 634 OFFCURVE",
"398 618 OFFCURVE",
"456 585 CURVE",
"526 665 LINE",
"529 682 LINE",
"471 699 OFFCURVE",
"359 716 OFFCURVE",
"286 710 CURVE"
);
}
);
width = 569;
}
);
unicode = 0043;
},
{
color = 3;
glyphname = D;
lastChange = "2019-04-23 10:14:13 +0000";
layers = (
{
layerId = "7C1725DE-9D81-4366-9E02-5B418FA849BA";
paths = (
{
closed = 1;
nodes = (
"130 31 OFFCURVE",
"213 -10 OFFCURVE",
"346 -10 CURVE SMOOTH",
"536 -10 OFFCURVE",
"700 151 OFFCURVE",
"700 361 CURVE SMOOTH",
"700 571 OFFCURVE",
"532 710 OFFCURVE",
"311 710 CURVE SMOOTH",
"201 710 OFFCURVE",
"141 672 OFFCURVE",
"49 700 CURVE",
"30 669 LINE",
"71 647 OFFCURVE",
"83 632 OFFCURVE",
"85 590 CURVE SMOOTH",
"95 389 OFFCURVE",
"85 155 OFFCURVE",
"81 101 CURVE SMOOTH",
"78 62 OFFCURVE",
"68 34 OFFCURVE",
"47 24 CURVE",
"50 -10 LINE"
);
},
{
closed = 1;
nodes = (
"283 41 OFFCURVE",
"246 48 OFFCURVE",
"192 59 CURVE",
"182 195 OFFCURVE",
"178 492 OFFCURVE",
"194 642 CURVE",
"227 654 OFFCURVE",
"262 659 OFFCURVE",
"322 659 CURVE SMOOTH",
"484 659 OFFCURVE",
"583 523 OFFCURVE",
"583 351 CURVE SMOOTH",
"583 161 OFFCURVE",
"498 41 OFFCURVE",
"349 41 CURVE SMOOTH"
);
}
);
width = 740;
}
);
leftMetricsKey = H;
rightMetricsKey = O;
unicode = 0044;
},
{
color = 3;
glyphname = E;
lastChange = "2019-04-23 10:16:02 +0000";
layers = (
{
layerId = "7C1725DE-9D81-4366-9E02-5B418FA849BA";
paths = (
{
closed = 1;
nodes = (
"143 379 LINE",
"274 379 LINE SMOOTH",
"329 379 OFFCURVE",
"333 381 OFFCURVE",
"353 416 CURVE",
"376 416 LINE",
"377 272 LINE",
"357 272 LINE",
"342 321 OFFCURVE",
"342 331 OFFCURVE",
"290 331 CURVE SMOOTH",
"143 331 LINE"
);
},
{
closed = 1;
nodes = (
"154 51 LINE",
"272 51 LINE SMOOTH",
"321 51 OFFCURVE",
"347 61 OFFCURVE",
"367 121 CURVE",
"387 121 LINE",
"385 46 OFFCURVE",
"387 -2 OFFCURVE",
"392 -50 CURVE",
"371 -52 LINE",
"353 -6 OFFCURVE",
"320 0 OFFCURVE",
"249 0 CURVE SMOOTH",
"203 0 OFFCURVE",
"118 5 OFFCURVE",
"34 -5 CURVE",
"34 23 LINE",
"48 53 OFFCURVE",
"49 52 OFFCURVE",
"50 115 CURVE SMOOTH",
"52 261 OFFCURVE",
"53 473 OFFCURVE",
"50 607 CURVE SMOOTH",
"49 651 OFFCURVE",
"46 655 OFFCURVE",
"30 680 CURVE",
"30 704 LINE",
"154 700 OFFCURVE",
"267 700 OFFCURVE",
"391 705 CURVE",
"379 576 LINE",
"361 576 LINE",
"326 641 OFFCURVE",
"328 652 OFFCURVE",
"249 652 CURVE SMOOTH",
"154 652 LINE"
);
}
);
width = 422;
}
);
leftMetricsKey = H;
rightMetricsKey = H;
unicode = 0045;
},
{
color = 3;
glyphname = F;
lastChange = "2019-04-23 10:16:00 +0000";
layers = (
{
layerId = "7C1725DE-9D81-4366-9E02-5B418FA849BA";
paths = (
{
closed = 1;
nodes = (
"139 376 LINE",
"284 376 LINE SMOOTH",
"349 376 OFFCURVE",
"347 380 OFFCURVE",
"357 434 CURVE",
"385 433 LINE",
"377 280 LINE",
"362 279 LINE",
"344 323 OFFCURVE",
"332 327 OFFCURVE",
"293 327 CURVE SMOOTH",
"138 327 LINE"
);
},
{
closed = 1;
nodes = (
"30 705 LINE",
"157 700 OFFCURVE",
"267 699 OFFCURVE",
"386 704 CURVE",
"397 574 LINE",
"376 572 LINE",
"338 649 OFFCURVE",
"339 650 OFFCURVE",
"294 650 CURVE SMOOTH",
"160 650 LINE",
"160 85 LINE SMOOTH",
"160 47 OFFCURVE",
"166 46 OFFCURVE",
"257 30 CURVE",
"257 0 LINE",
"38 0 LINE",
"38 30 LINE",
"50 43 OFFCURVE",
"54 52 OFFCURVE",
"55 82 CURVE SMOOTH",
"61 263 OFFCURVE",
"55 430 OFFCURVE",
"55 611 CURVE SMOOTH",
"55 647 OFFCURVE",
"49 651 OFFCURVE",
"30 674 CURVE"
);
}
);
width = 447;
}
);
leftMetricsKey = H;
unicode = 0046;
},
{
color = 3;
glyphname = G;
lastChange = "2019-04-23 10:14:09 +0000";
layers = (
{
layerId = "7C1725DE-9D81-4366-9E02-5B418FA849BA";
paths = (
{
closed = 1;
nodes = (
"633 178 OFFCURVE",
"623 277 OFFCURVE",
"636 430 CURVE",
"629 434 LINE",
"568 423 OFFCURVE",
"442 423 OFFCURVE",
"294 442 CURVE",
"275 382 LINE",
"345 377 OFFCURVE",
"475 375 OFFCURVE",
"545 369 CURVE",
"550 272 OFFCURVE",
"550 183 OFFCURVE",
"545 76 CURVE",
"305 26 OFFCURVE",
"120 164 OFFCURVE",
"120 380 CURVE SMOOTH",
"120 480 OFFCURVE",
"157 550 OFFCURVE",
"218 604 CURVE",
"341 646 OFFCURVE",
"484 625 OFFCURVE",
"587 547 CURVE",
"602 546 LINE",
"651 621 LINE",
"583 700 OFFCURVE",
"379 735 OFFCURVE",
"249 679 CURVE",
"159 631 OFFCURVE",
"40 515 OFFCURVE",
"40 320 CURVE SMOOTH",
"40 110 OFFCURVE",
"183 -10 OFFCURVE",
"368 -10 CURVE SMOOTH",
"498 -10 OFFCURVE",
"569 33 OFFCURVE",
"648 53 CURVE"
);
}
);
width = 693;
}
);
leftMetricsKey = O;
unicode = 0047;
},
{
color = 3;
glyphname = H;
lastChange = "2019-03-26 17:00:45 +0000";
layers = (
{
layerId = "7C1725DE-9D81-4366-9E02-5B418FA849BA";
paths = (
{
closed = 1;
nodes = (
"568 263 OFFCURVE",
"569 155 OFFCURVE",
"564 47 CURVE",
"468 37 LINE",
"468 -3 LINE",
"585 2 OFFCURVE",
"655 5 OFFCURVE",
"718 -3 CURVE",
"718 32 LINE",
"693 42 OFFCURVE",
"673 76 OFFCURVE",
"673 238 CURVE SMOOTH",
"673 304 LINE SMOOTH",
"673 484 OFFCURVE",
"678 561 OFFCURVE",
"684 615 CURVE",
"554 614 LINE",
"564 527 OFFCURVE",
"569 456 OFFCURVE",
"568 371 CURVE SMOOTH"
);
},
{
closed = 1;
nodes = (
"166 657 LINE",
"279 661 LINE",
"279 703 LINE",
"211 698 OFFCURVE",
"108 698 OFFCURVE",
"48 703 CURVE",
"41 678 LINE",
"57 635 OFFCURVE",
"57 581 OFFCURVE",
"61 460 CURVE SMOOTH",
"64 361 OFFCURVE",
"64 262 OFFCURVE",
"61 163 CURVE SMOOTH",
"58 53 OFFCURVE",
"48 44 OFFCURVE",
"30 32 CURVE",
"30 -3 LINE",
"89 4 OFFCURVE",
"158 2 OFFCURVE",
"254 -3 CURVE",
"254 35 LINE",
"157 52 OFFCURVE",
"166 61 OFFCURVE",
"166 117 CURVE SMOOTH"
);
},
{
closed = 1;
nodes = (
"151 334 LINE",
"295 339 OFFCURVE",
"439 339 OFFCURVE",
"583 333 CURVE",
"583 387 LINE",
"439 384 OFFCURVE",
"295 384 OFFCURVE",
"151 387 CURVE"
);
}
);
width = 748;
}
);
unicode = 0048;
},
{
color = 3;
glyphname = I;
lastChange = "2019-04-23 10:14:20 +0000";
layers = (
{
layerId = "7C1725DE-9D81-4366-9E02-5B418FA849BA";
paths = (
{
closed = 1;
nodes = (
"114 271 LINE",
"114 325 OFFCURVE",
"96 332 OFFCURVE",
"47 334 CURVE",
"43 350 LINE",
"72 365 OFFCURVE",
"90 373 OFFCURVE",
"119 400 CURVE"
);
},
{
closed = 1;
nodes = (
"113 278 OFFCURVE",
"117 536 OFFCURVE",
"102 629 CURVE",
"12 625 LINE",
"10 660 LINE",
"136 673 OFFCURVE",
"174 684 OFFCURVE",
"241 710 CURVE",
"259 684 LINE",
"224 652 OFFCURVE",
"222 644 OFFCURVE",
"220 594 CURVE SMOOTH",
"212 402 OFFCURVE",
"215 55 OFFCURVE",
"229 35 CURVE",
"229 0 LINE",
"177 0 OFFCURVE",
"101 -1 OFFCURVE",
"24 -3 CURVE",
"24 28 LINE",
"98 43 OFFCURVE",
"113 44 OFFCURVE",
"113 93 CURVE SMOOTH"
);
}
);
width = 284;
}
);
unicode = 0049;
},
{
color = 6;
glyphname = J;
lastChange = "2019-03-26 17:04:24 +0000";
layers = (
{
layerId = "7C1725DE-9D81-4366-9E02-5B418FA849BA";
paths = (
{
closed = 1;
nodes = (
"114 311 LINE",
"114 365 OFFCURVE",
"96 372 OFFCURVE",
"47 374 CURVE",
"43 390 LINE",
"72 405 OFFCURVE",
"90 413 OFFCURVE",
"119 440 CURVE"
);
},
{
closed = 1;
nodes = (
"113 278 OFFCURVE",
"117 536 OFFCURVE",
"102 629 CURVE",
"12 625 LINE",
"10 660 LINE",
"136 673 OFFCURVE",
"174 684 OFFCURVE",
"241 710 CURVE",
"259 684 LINE",
"224 652 OFFCURVE",
"222 644 OFFCURVE",
"220 594 CURVE SMOOTH",
"212 402 OFFCURVE",
"205 55 OFFCURVE",
"219 35 CURVE",
"164 -66 OFFCURVE",
"113 -168 OFFCURVE",
"74 -246 CURVE",
"44 -221 LINE",
"95 -104 OFFCURVE",
"113 44 OFFCURVE",
"113 93 CURVE SMOOTH"
);
},
{
closed = 1;
nodes = (
"114 181 LINE",
"114 235 OFFCURVE",
"96 242 OFFCURVE",
"47 244 CURVE",
"43 260 LINE",
"72 275 OFFCURVE",
"90 283 OFFCURVE",
"119 310 CURVE"
);
}
);
width = 292;
}
);
unicode = 004A;
},
{
color = 3;
glyphname = K;
lastChange = "2019-04-23 10:14:04 +0000";
layers = (
{
layerId = "7C1725DE-9D81-4366-9E02-5B418FA849BA";
paths = (
{
closed = 1;
nodes = (
"157 340 LINE",
"342 145 LINE SMOOTH",
"399 84 OFFCURVE",
"447 49 OFFCURVE",
"377 37 CURVE",
"377 -3 LINE",
"435 3 OFFCURVE",
"530 2 OFFCURVE",
"601 -3 CURVE",
"600 25 LINE",
"559 53 OFFCURVE",
"308 322 OFFCURVE",
"235 396 CURVE"
);
},
{
closed = 1;
nodes = (
"173 371 OFFCURVE",
"172 533 OFFCURVE",
"176 629 CURVE SMOOTH",
"177 653 OFFCURVE",
"204 662 OFFCURVE",
"230 667 CURVE",
"230 703 LINE",
"155 700 OFFCURVE",
"85 700 OFFCURVE",
"30 703 CURVE",
"30 667 LINE",
"37 663 OFFCURVE",
"64 653 OFFCURVE",
"65 629 CURVE SMOOTH",
"69 532 OFFCURVE",
"71 179 OFFCURVE",
"67 94 CURVE SMOOTH",
"65 48 OFFCURVE",
"56 52 OFFCURVE",
"30 36 CURVE",
"30 -3 LINE",
"58 3 OFFCURVE",
"178 3 OFFCURVE",
"210 -3 CURVE",
"210 36 LINE",
"174 51 OFFCURVE",
"173 53 OFFCURVE",
"173 94 CURVE SMOOTH"
);
},
{
closed = 1;
nodes = (
"442 574 LINE SMOOTH",
"498 625 OFFCURVE",
"545 659 OFFCURVE",
"576 674 CURVE",
"576 703 LINE",
"532 700 OFFCURVE",
"470 700 OFFCURVE",
"378 703 CURVE",
"378 674 LINE",
"440 658 OFFCURVE",
"439 646 OFFCURVE",
"362 572 CURVE SMOOTH",
"163 379 LINE",
"161 319 LINE"
);
}
);
width = 644;
}
);
leftMetricsKey = H;
unicode = 004B;
},
{
color = 3;
glyphname = L;
lastChange = "2019-04-23 10:14:01 +0000";
layers = (
{
layerId = "7C1725DE-9D81-4366-9E02-5B418FA849BA";
paths = (
{
closed = 1;
nodes = (
"30 703 LINE",
"91 700 OFFCURVE",
"177 700 OFFCURVE",
"244 703 CURVE",
"244 675 LINE",
"167 650 OFFCURVE",
"162 649 OFFCURVE",
"160 609 CURVE SMOOTH",
"153 427 OFFCURVE",
"153 208 OFFCURVE",
"154 18 CURVE",
"107 44 LINE",
"295 56 LINE SMOOTH",
"375 61 OFFCURVE",
"387 63 OFFCURVE",
"420 172 CURVE",
"448 172 LINE",
"440 -10 LINE",
"373 -3 OFFCURVE",
"145 -1 OFFCURVE",
"32 -5 CURVE",
"31 11 LINE",
"53 83 OFFCURVE",
"51 449 OFFCURVE",
"47 600 CURVE SMOOTH",
"46 646 OFFCURVE",
"46 652 OFFCURVE",
"30 673 CURVE"
);
}
);
width = 518;
}
);
leftMetricsKey = H;
unicode = 004C;
},
{
color = 3;
glyphname = M;
lastChange = "2019-04-23 10:15:46 +0000";
layers = (
{
layerId = "7C1725DE-9D81-4366-9E02-5B418FA849BA";
paths = (
{
closed = 1;
nodes = (
"30 10 LINE",
"175 587 LINE SMOOTH",
"185 626 OFFCURVE",
"196 669 OFFCURVE",
"201 710 CURVE",
"272 710 LINE",
"277 608 OFFCURVE",
"377 339 OFFCURVE",
"453 145 CURVE",
"426 151 LINE",
"568 568 LINE SMOOTH",
"582 608 OFFCURVE",
"599 668 OFFCURVE",
"604 700 CURVE",
"674 700 LINE",
"709 496 OFFCURVE",
"755 223 OFFCURVE",
"819 10 CURVE",
"814 0 LINE",
"607 0 LINE",
"607 35 LINE",
"676 54 OFFCURVE",
"682 58 OFFCURVE",
"671 120 CURVE SMOOTH",
"644 269 OFFCURVE",
"622 410 OFFCURVE",
"598 560 CURVE",
"618 559 LINE",
"553 369 OFFCURVE",
"482 184 OFFCURVE",
"432 -5 CURVE",
"376 -5 LINE",
"349 133 OFFCURVE",
"262 363 OFFCURVE",
"193 551 CURVE",
"225 600 LINE",
"114 105 LINE SMOOTH",
"101 49 OFFCURVE",
"99 48 OFFCURVE",
"201 35 CURVE",
"201 0 LINE",
"33 0 LINE"
);
}
);
width = 869;
}
);
unicode = 004D;
},
{
color = 3;
glyphname = M.ss01;
lastChange = "2019-03-26 17:33:59 +0000";
layers = (
{
layerId = "7C1725DE-9D81-4366-9E02-5B418FA849BA";
paths = (
{
closed = 1;
nodes = (
"81 147 OFFCURVE",
"86 507 OFFCURVE",
"86 700 CURVE",
"164 700 LINE",
"407 313 LINE",
"374 323 LINE",
"433 403 OFFCURVE",
"539 562 OFFCURVE",
"622 700 CURVE",
"691 700 LINE",
"685 494 OFFCURVE",
"686 117 OFFCURVE",
"726 10 CURVE",
"726 -1 LINE",
"579 0 LINE",
"579 11 LINE",
"604 87 OFFCURVE",
"605 302 OFFCURVE",
"602 580 CURVE",
"518 452 OFFCURVE",
"399 277 OFFCURVE",
"361 187 CURVE",
"353 187 LINE",
"309 292 OFFCURVE",
"215 457 OFFCURVE",
"134 583 CURVE",
"154 129 LINE SMOOTH",
"157 58 OFFCURVE",
"168 49 OFFCURVE",
"234 27 CURVE",
"234 0 LINE",
"59 0 LINE"
);
}
);
width = 776;
}
);
},
{
color = 3;
glyphname = N;
lastChange = "2019-04-23 10:16:08 +0000";
layers = (
{
layerId = "7C1725DE-9D81-4366-9E02-5B418FA849BA";
paths = (
{
closed = 1;
nodes = (
"157 261 OFFCURVE",
"155 454 OFFCURVE",
"160 618 CURVE SMOOTH",
"161 650 OFFCURVE",
"171 655 OFFCURVE",
"193 674 CURVE",
"193 703 LINE",
"175 700 OFFCURVE",
"96 698 OFFCURVE",
"33 703 CURVE",
"30 684 LINE",
"52 621 OFFCURVE",
"54 545 OFFCURVE",
"54 323 CURVE SMOOTH",
"54 144 OFFCURVE",
"48 91 OFFCURVE",
"36 3 CURVE",
"39 -3 LINE",
"77 4 OFFCURVE",
"142 2 OFFCURVE",
"238 -3 CURVE",
"238 37 LINE",
"161 46 OFFCURVE",
"161 40 OFFCURVE",
"160 97 CURVE SMOOTH"
);
},
{
closed = 1;
nodes = (
"537 448 OFFCURVE",
"537 287 OFFCURVE",
"528 121 CURVE SMOOTH",
"524 50 OFFCURVE",
"526 51 OFFCURVE",
"445 32 CURVE",
"445 -3 LINE",
"525 2 OFFCURVE",
"619 7 OFFCURVE",
"660 -4 CURVE",
"667 23 LINE",
"635 58 OFFCURVE",
"630 63 OFFCURVE",
"630 144 CURVE SMOOTH",
"630 455 OFFCURVE",
"628 593 OFFCURVE",
"645 696 CURVE",
"641 703 LINE",
"575 699 OFFCURVE",
"511 699 OFFCURVE",
"461 703 CURVE",
"461 668 LINE",
"514 658 OFFCURVE",
"525 656 OFFCURVE",
"528 604 CURVE SMOOTH"
);
},
{
closed = 1;
nodes = (
"128 555 LINE",
"276 442 OFFCURVE",
"413 316 OFFCURVE",
"557 197 CURVE",
"553 291 LINE",
"401 401 OFFCURVE",
"288 507 OFFCURVE",
"128 625 CURVE"
);
}
);
width = 697;
}
);
leftMetricsKey = H;
rightMetricsKey = H;
unicode = 004E;
},
{
color = 3;
glyphname = O;
lastChange = "2019-04-23 10:16:23 +0000";
layers = (
{
layerId = "7C1725DE-9D81-4366-9E02-5B418FA849BA";
paths = (
{
closed = 1;
nodes = (
"174 709 OFFCURVE",
"40 542 OFFCURVE",
"40 331 CURVE SMOOTH",
"40 151 OFFCURVE",
"164 -11 OFFCURVE",
"374 -11 CURVE SMOOTH",
"574 -11 OFFCURVE",
"708 157 OFFCURVE",
"708 367 CURVE SMOOTH",
"708 547 OFFCURVE",
"584 709 OFFCURVE",
"374 709 CURVE SMOOTH"
);
},
{
closed = 1;
nodes = (
"234 39 OFFCURVE",
"158 191 OFFCURVE",
"158 371 CURVE SMOOTH",
"158 511 OFFCURVE",
"224 652 OFFCURVE",
"359 652 CURVE SMOOTH",
"524 652 OFFCURVE",
"590 487 OFFCURVE",
"590 327 CURVE SMOOTH",
"590 197 OFFCURVE",
"524 39 OFFCURVE",
"384 39 CURVE SMOOTH"
);
}
);
width = 748;
}
);
unicode = 004F;
},
{
color = 3;
glyphname = P;
lastChange = "2019-04-23 10:15:42 +0000";
layers = (
{
layerId = "7C1725DE-9D81-4366-9E02-5B418FA849BA";
paths = (
{
closed = 1;
nodes = (
"66 42 OFFCURVE",
"65 45 OFFCURVE",
"66 76 CURVE SMOOTH",
"72 247 OFFCURVE",
"67 556 OFFCURVE",
"65 603 CURVE SMOOTH",
"63 648 OFFCURVE",
"57 653 OFFCURVE",
"34 668 CURVE",
"34 703 LINE",
"94 697 OFFCURVE",
"180 709 OFFCURVE",
"284 709 CURVE SMOOTH",
"444 709 OFFCURVE",
"553 605 OFFCURVE",
"553 465 CURVE SMOOTH",
"553 295 OFFCURVE",
"361 210 OFFCURVE",
"216 262 CURVE",
"218 292 LINE",
"355 264 OFFCURVE",
"444 327 OFFCURVE",
"444 474 CURVE SMOOTH",
"444 551 OFFCURVE",
"402 663 OFFCURVE",
"274 663 CURVE SMOOTH",
"196 663 OFFCURVE",
"176 632 OFFCURVE",
"172 562 CURVE SMOOTH",
"169 508 OFFCURVE",
"170 216 OFFCURVE",
"178 87 CURVE SMOOTH",
"180 55 OFFCURVE",
"181 50 OFFCURVE",
"277 32 CURVE",
"277 -3 LINE",
"233 2 OFFCURVE",
"105 5 OFFCURVE",
"30 -3 CURVE",
"30 32 LINE"
);
}
);
width = 579;
}
);
leftMetricsKey = H;
unicode = 0050;
},
{
color = 3;
glyphname = Q;
lastChange = "2019-04-08 13:55:44 +0000";
layers = (
{
components = (
{
name = O;
}
);
layerId = "7C1725DE-9D81-4366-9E02-5B418FA849BA";
paths = (
{
closed = 1;
nodes = (
"250 11 LINE",
"412 -13 OFFCURVE",
"551 -243 OFFCURVE",
"754 -243 CURVE SMOOTH",
"869 -243 OFFCURVE",
"971 -194 OFFCURVE",
"1115 -122 CURVE",
"1116 -112 LINE",
"1068 -100 LINE",
"974 -154 OFFCURVE",
"885 -180 OFFCURVE",
"796 -180 CURVE SMOOTH",
"633 -180 OFFCURVE",
"534 -77 OFFCURVE",
"468 11 CURVE"
);
}
);
width = 773;
}
);
leftMetricsKey = O;
unicode = 0051;
},
{
color = 3;
glyphname = R;
lastChange = "2019-04-23 10:15:38 +0000";
layers = (
{
layerId = "7C1725DE-9D81-4366-9E02-5B418FA849BA";
paths = (
{
closed = 1;
nodes = (
"146 338 LINE",
"253 338 OFFCURVE",
"371 185 OFFCURVE",
"438 87 CURVE SMOOTH",
"455 62 OFFCURVE",
"452 40 OFFCURVE",
"448 9 CURVE",
"454 0 LINE",
"519 3 OFFCURVE",
"585 3 OFFCURVE",
"650 0 CURVE",
"648 25 LINE",
"513 136 OFFCURVE",
"415 259 OFFCURVE",
"278 363 CURVE"
);
},
{
closed = 1;
nodes = (
"159 337 LINE",
"331 325 OFFCURVE",
"515 383 OFFCURVE",
"515 536 CURVE SMOOTH",
"515 646 OFFCURVE",
"410 710 OFFCURVE",
"270 710 CURVE SMOOTH",
"189 710 OFFCURVE",
"38 687 OFFCURVE",
"37 699 CURVE",
"30 672 LINE",
"35 664 OFFCURVE",
"58 644 OFFCURVE",
"62 603 CURVE SMOOTH",
"70 521 OFFCURVE",
"73 146 OFFCURVE",
"69 98 CURVE SMOOTH",
"65 55 OFFCURVE",
"57 45 OFFCURVE",
"40 29 CURVE",
"40 0 LINE",
"215 0 LINE",
"215 29 LINE",
"190 48 OFFCURVE",
"181 54 OFFCURVE",
"180 96 CURVE SMOOTH",
"176 251 OFFCURVE",
"161 480 OFFCURVE",
"179 640 CURVE",
"199 653 OFFCURVE",
"233 668 OFFCURVE",
"269 668 CURVE SMOOTH",
"349 668 OFFCURVE",
"408 609 OFFCURVE",
"408 529 CURVE SMOOTH",
"408 429 OFFCURVE",
"337 375 OFFCURVE",
"247 375 CURVE SMOOTH",
"209 375 OFFCURVE",
"194 380 OFFCURVE",
"156 390 CURVE"
);
}
);
width = 705;
}
);
leftMetricsKey = H;
unicode = 0052;
},
{
color = 3;
glyphname = S;
lastChange = "2019-04-24 15:12:21 +0000";
layers = (
{
layerId = "7C1725DE-9D81-4366-9E02-5B418FA849BA";
paths = (
{
closed = 1;
nodes = (
"355 710 OFFCURVE",
"407 694 OFFCURVE",
"436 684 CURVE",
"510 708 LINE",
"524 694 LINE",
"491 657 OFFCURVE",
"462 619 OFFCURVE",
"435 580 CURVE",
"424 580 LINE",
"390 626 OFFCURVE",
"335 657 OFFCURVE",
"272 657 CURVE SMOOTH",
"182 657 OFFCURVE",
"132 607 OFFCURVE",
"132 557 CURVE SMOOTH",
"132 493 OFFCURVE",
"185 462 OFFCURVE",
"319 425 CURVE SMOOTH",
"420 397 OFFCURVE",
"541 347 OFFCURVE",
"541 213 CURVE SMOOTH",
"541 83 OFFCURVE",
"443 -3 OFFCURVE",
"293 -3 CURVE SMOOTH",
"220 -3 OFFCURVE",
"157 11 OFFCURVE",
"119 29 CURVE",
"79 -9 LINE",
"49 0 LINE",
"81 56 OFFCURVE",
"110 112 OFFCURVE",
"136 168 CURVE",
"159 161 LINE",
"173 97 OFFCURVE",
"246 66 OFFCURVE",
"322 66 CURVE SMOOTH",
"404 66 OFFCURVE",
"474 100 OFFCURVE",
"474 177 CURVE SMOOTH",
"474 250 OFFCURVE",
"402 286 OFFCURVE",
"273 320 CURVE SMOOTH",
"117 361 OFFCURVE",
"35 415 OFFCURVE",
"35 528 CURVE SMOOTH",
"35 648 OFFCURVE",
"169 710 OFFCURVE",
"276 710 CURVE SMOOTH"
);
}
);
width = 566;
}
);
unicode = 0053;
},
{
color = 3;
glyphname = T;
lastChange = "2019-04-23 10:16:14 +0000";
layers = (
{
layerId = "7C1725DE-9D81-4366-9E02-5B418FA849BA";
paths = (
{
closed = 1;
nodes = (
"383 630 LINE",
"384 536 OFFCURVE",
"383 267 OFFCURVE",
"388 173 CURVE SMOOTH",
"394 57 OFFCURVE",
"394 61 OFFCURVE",
"451 30 CURVE",
"451 1 LINE",
"380 4 OFFCURVE",
"323 2 OFFCURVE",
"272 -5 CURVE",
"267 0 LINE",
"281 67 OFFCURVE",
"282 101 OFFCURVE",
"282 196 CURVE SMOOTH",
"282 630 LINE"
);
},
{
closed = 1;
nodes = (
"462 619 OFFCURVE",
"64 643 OFFCURVE",
"19 601 CURVE",
"0 616 LINE",
"29 651 OFFCURVE",
"50 674 OFFCURVE",
"77 700 CURVE",
"167 700 OFFCURVE",
"561 694 OFFCURVE",
"674 710 CURVE",
"682 700 LINE",
"620 629 LINE"
);
}
);
width = 682;
}
);
unicode = 0054;
},
{
color = 6;
glyphname = U;
lastChange = "2019-03-26 18:09:28 +0000";
layers = (
{
layerId = "7C1725DE-9D81-4366-9E02-5B418FA849BA";
paths = (
{
closed = 1;
nodes = (
"30 649 OFFCURVE",
"41 646 OFFCURVE",
"44 565 CURVE SMOOTH",
"47 472 OFFCURVE",
"40 260 OFFCURVE",
"40 201 CURVE",
"79 81 OFFCURVE",
"172 -10 OFFCURVE",
"342 -10 CURVE SMOOTH",
"529 -10 OFFCURVE",
"637 90 OFFCURVE",
"637 290 CURVE SMOOTH",
"637 353 OFFCURVE",
"649 527 OFFCURVE",
"649 603 CURVE SMOOTH",
"649 653 OFFCURVE",
"659 657 OFFCURVE",
"698 666 CURVE",
"698 699 LINE",
"650 697 OFFCURVE",
"518 700 OFFCURVE",
"490 700 CURVE",
"490 669 LINE",
"536 662 OFFCURVE",
"573 651 OFFCURVE",
"573 614 CURVE SMOOTH",
"575 258 LINE SMOOTH",
"576 111 OFFCURVE",
"500 45 OFFCURVE",
"364 45 CURVE SMOOTH",
"251 45 OFFCURVE",
"150 90 OFFCURVE",
"150 240 CURVE SMOOTH",
"150 388 OFFCURVE",
"153 523 OFFCURVE",
"153 609 CURVE SMOOTH",
"153 653 OFFCURVE",
"161 663 OFFCURVE",
"246 663 CURVE",
"246 700 LINE",
"148 696 OFFCURVE",
"66 697 OFFCURVE",
"10 699 CURVE",
"10 657 LINE"
);
}
);
width = 723;
}
);
leftMetricsKey = I;
rightMetricsKey = I;
unicode = 0055;
},
{
color = 3;
glyphname = V;
lastChange = "2019-04-23 10:16:10 +0000";
layers = (
{
layerId = "7C1725DE-9D81-4366-9E02-5B418FA849BA";
paths = (
{
closed = 1;
nodes = (
"47 610 OFFCURVE",
"323 72 OFFCURVE",
"346 -10 CURVE",
"380 -10 LINE",
"403 93 OFFCURVE",
"636 606 OFFCURVE",
"688 671 CURVE",
"688 700 LINE",
"639 697 OFFCURVE",
"551 699 OFFCURVE",
"523 700 CURVE",
"523 665 LINE",
"587 663 LINE",
"360 96 LINE",
"388 155 LINE",
"327 289 OFFCURVE",
"217 522 OFFCURVE",
"178 608 CURVE SMOOTH",
"161 645 OFFCURVE",
"164 653 OFFCURVE",
"193 673 CURVE",
"191 700 LINE",
"163 700 OFFCURVE",
"81 698 OFFCURVE",
"5 700 CURVE",
"6 671 LINE"
);
}
);
width = 693;
}
);
unicode = 0056;
},
{
color = 6;
glyphname = W;
lastChange = "2019-04-09 09:25:06 +0000";
layers = (
{
layerId = "7C1725DE-9D81-4366-9E02-5B418FA849BA";
paths = (
{
closed = 1;
nodes = (
"47 610 OFFCURVE",
"323 72 OFFCURVE",
"346 -10 CURVE",
"380 -10 LINE",
"403 93 OFFCURVE",
"555 372 OFFCURVE",
"607 437 CURVE",
"506 429 LINE",
"360 96 LINE",
"388 155 LINE",
"327 289 OFFCURVE",
"237 522 OFFCURVE",
"198 608 CURVE SMOOTH",
"181 645 OFFCURVE",
"184 653 OFFCURVE",
"213 673 CURVE",
"211 700 LINE",
"183 700 OFFCURVE",
"101 698 OFFCURVE",
"5 700 CURVE",
"6 671 LINE"
);
},
{
closed = 1;
nodes = (
"414 610 OFFCURVE",
"675 72 OFFCURVE",
"698 -10 CURVE",
"732 -10 LINE",
"755 93 OFFCURVE",
"973 606 OFFCURVE",
"1025 671 CURVE",
"1025 700 LINE",
"976 697 OFFCURVE",
"888 699 OFFCURVE",
"860 700 CURVE",
"860 665 LINE",
"924 663 LINE",
"712 96 LINE",
"740 155 LINE",
"679 289 OFFCURVE",
"594 522 OFFCURVE",
"555 608 CURVE SMOOTH",
"538 645 OFFCURVE",
"541 653 OFFCURVE",
"570 673 CURVE",
"568 700 LINE",
"540 700 OFFCURVE",
"448 698 OFFCURVE",
"372 700 CURVE",
"373 671 LINE"
);
}
);
width = 1030;
}
);
unicode = 0057;
},
{
color = 3;
glyphname = X;
lastChange = "2019-04-23 10:13:53 +0000";
layers = (
{
layerId = "7C1725DE-9D81-4366-9E02-5B418FA849BA";
paths = (
{
closed = 1;
nodes = (
"381 407 LINE",
"595 660 LINE",
"537 670 LINE",
"537 703 LINE",
"609 701 OFFCURVE",
"657 700 OFFCURVE",
"696 703 CURVE",
"696 668 LINE",
"634 626 OFFCURVE",
"515 479 OFFCURVE",
"420 381 CURVE"
);
},
{
closed = 1;
nodes = (
"376 341 LINE",
"123 46 LINE",
"210 37 LINE",
"210 -3 LINE",
"138 0 OFFCURVE",
"86 0 OFFCURVE",
"0 -3 CURVE",
"0 32 LINE",
"64 68 OFFCURVE",
"199 225 OFFCURVE",
"329 363 CURVE"
);
},
{
closed = 1;
nodes = (
"58 656 OFFCURVE",
"28 667 CURVE",
"28 702 LINE",
"93 700 OFFCURVE",
"197 700 OFFCURVE",
"264 702 CURVE",
"264 667 LINE",
"189 662 LINE",
"384 452 OFFCURVE",
"700 69 OFFCURVE",
"763 32 CURVE",
"763 -3 LINE",
"683 -1 OFFCURVE",
"584 0 OFFCURVE",
"493 -3 CURVE",
"493 34 LINE",
"581 48 LINE",
"498 142 OFFCURVE"
);
}
);
width = 763;
}
);
unicode = 0058;
},
{
color = 3;
glyphname = Y;
lastChange = "2019-04-23 10:15:35 +0000";
layers = (
{
layerId = "7C1725DE-9D81-4366-9E02-5B418FA849BA";
paths = (
{
closed = 1;
nodes = (
"223 -333 LINE",
"273 -340 LINE",
"338 -114 OFFCURVE",
"510 355 OFFCURVE",
"590 623 CURVE SMOOTH",
"601 660 OFFCURVE",
"600 660 OFFCURVE",
"630 668 CURVE",
"627 700 LINE",
"513 699 OFFCURVE",
"444 698 OFFCURVE",
"363 700 CURVE",
"363 665 LINE",
"469 655 OFFCURVE",
"473 657 OFFCURVE",
"461 610 CURVE SMOOTH"
);
},
{
closed = 1;
nodes = (
"346 125 LINE",
"166 581 LINE SMOOTH",
"136 657 OFFCURVE",
"148 650 OFFCURVE",
"270 667 CURVE",
"270 700 LINE",
"202 696 OFFCURVE",
"138 696 OFFCURVE",
"26 700 CURVE",
"26 670 LINE",
"74 652 OFFCURVE",
"260 168 OFFCURVE",
"324 10 CURVE"
);
}
);
width = 615;
}
);
unicode = 0059;
},
{
color = 3;
glyphname = Z;
lastChange = "2019-04-23 10:16:39 +0000";
layers = (
{
layerId = "7C1725DE-9D81-4366-9E02-5B418FA849BA";
paths = (
{
closed = 1;
nodes = (
"38 -5 LINE",
"121 35 OFFCURVE",
"201 28 OFFCURVE",
"546 -10 CURVE",
"582 29 OFFCURVE",
"618 70 OFFCURVE",
"654 131 CURVE",
"634 146 LINE",
"545 73 OFFCURVE",
"334 106 OFFCURVE",
"182 104 CURVE",
"194 88 LINE",
"284 215 OFFCURVE",
"419 435 OFFCURVE",
"526 575 CURVE SMOOTH",
"565 626 OFFCURVE",
"611 664 OFFCURVE",
"656 687 CURVE",
"641 720 LINE",
"585 696 OFFCURVE",
"542 689 OFFCURVE",
"484 689 CURVE SMOOTH",
"458 689 OFFCURVE",
"238 704 OFFCURVE",
"116 710 CURVE",
"88 675 OFFCURVE",
"50 624 OFFCURVE",
"20 568 CURVE",
"49 551 LINE",
"66 595 OFFCURVE",
"84 592 OFFCURVE",
"98 597 CURVE",
"168 618 OFFCURVE",
"359 609 OFFCURVE",
"485 592 CURVE",
"469 609 LINE",
"392 492 OFFCURVE",
"265 274 OFFCURVE",
"151 134 CURVE SMOOTH",
"124 101 OFFCURVE",
"71 56 OFFCURVE",
"21 20 CURVE"
);
}
);
width = 676;
}
);
unicode = 005A;
},
{
color = 4;
glyphname = a;
lastChange = "2019-04-23 10:14:26 +0000";
layers = (
{
layerId = "7C1725DE-9D81-4366-9E02-5B418FA849BA";
paths = (
{
closed = 1;
nodes = (
"58 379 OFFCURVE",
"156 432 OFFCURVE",
"196 440 CURVE",
"260 440 OFFCURVE",
"322 418 OFFCURVE",
"322 341 CURVE SMOOTH",
"323 116 LINE SMOOTH",
"323 88 OFFCURVE",
"322 88 OFFCURVE",
"358 64 CURVE",
"358 44 LINE",
"245 -13 LINE",
"232 -9 LINE",
"221 89 LINE",
"221 101 OFFCURVE",
"224 274 OFFCURVE",
"224 284 CURVE SMOOTH",
"223 316 OFFCURVE",
"224 360 OFFCURVE",
"161 360 CURVE SMOOTH",
"124 360 OFFCURVE",
"75 341 OFFCURVE",
"41 333 CURVE",
"34 358 LINE"
);
},
{
closed = 1;
nodes = (
"171 221 OFFCURVE",
"100 178 OFFCURVE",
"100 141 CURVE SMOOTH",
"100 112 OFFCURVE",
"127 99 OFFCURVE",
"153 99 CURVE SMOOTH",
"179 99 OFFCURVE",
"214 123 OFFCURVE",
"253 168 CURVE",
"253 121 LINE",
"210 89 OFFCURVE",
"133 -8 OFFCURVE",
"85 -8 CURVE SMOOTH",
"13 -8 OFFCURVE",
"6 104 OFFCURVE",
"11 135 CURVE",
"44 188 OFFCURVE",
"157 249 OFFCURVE",
"239 292 CURVE",
"239 249 LINE"
);
}
);
width = 368;
}
);
unicode = 0061;
},
{
color = 4;
glyphname = a_macr;
lastChange = "2019-04-11 12:36:31 +0000";
layers = (
{
components = (
{
name = a;
}
);
layerId = "7C1725DE-9D81-4366-9E02-5B418FA849BA";
paths = (
{
closed = 1;
nodes = (
"149 585 OFFCURVE",
"118 551 OFFCURVE",
"96 527 CURVE",
"130 512 LINE",
"165 539 OFFCURVE",
"193 529 OFFCURVE",
"267 508 CURVE",
"282 520 OFFCURVE",
"324 577 OFFCURVE",
"347 594 CURVE",
"335 609 LINE",
"290 607 OFFCURVE",
"222 620 OFFCURVE",
"175 625 CURVE"
);
}
);
width = 368;
}
);
leftMetricsKey = a;
rightMetricsKey = a;
},
{
color = 4;
glyphname = b;
lastChange = "2019-04-23 10:14:33 +0000";
layers = (
{
layerId = "7C1725DE-9D81-4366-9E02-5B418FA849BA";
paths = (
{
closed = 1;
nodes = (
"115 327 LINE",
"126 335 OFFCURVE",
"151 351 OFFCURVE",
"203 351 CURVE SMOOTH",
"283 351 OFFCURVE",
"342 285 OFFCURVE",
"342 191 CURVE SMOOTH",
"342 140 OFFCURVE",
"327 100 OFFCURVE",
"292 74 CURVE",
"153 70 OFFCURVE",
"124 166 OFFCURVE",
"124 264 CURVE SMOOTH",
"124 448 OFFCURVE",
"127 535 OFFCURVE",
"137 638 CURVE SMOOTH",
"140 666 OFFCURVE",
"144 667 OFFCURVE",
"168 692 CURVE",
"165 710 LINE",
"30 691 LINE",
"30 561 OFFCURVE",
"32 373 OFFCURVE",
"32 222 CURVE SMOOTH",
"32 65 OFFCURVE",
"86 11 OFFCURVE",
"197 -10 CURVE",
"275 -9 OFFCURVE",
"425 107 OFFCURVE",
"425 237 CURVE SMOOTH",
"425 349 OFFCURVE",
"368 422 OFFCURVE",
"261 441 CURVE",
"225 431 OFFCURVE",
"146 390 OFFCURVE",
"114 368 CURVE"
);
}
);
width = 445;
}
);
rightMetricsKey = o;
unicode = 0062;
},
{
color = 4;
glyphname = b_strok;
lastChange = "2019-04-23 10:16:30 +0000";
layers = (
{
layerId = "7C1725DE-9D81-4366-9E02-5B418FA849BA";
paths = (
{
closed = 1;
nodes = (
"183 672 LINE",
"218 655 LINE",
"218 614 OFFCURVE",
"193 550 OFFCURVE",
"100 445 CURVE",
"105 419 LINE",
"239 529 OFFCURVE",
"275 598 OFFCURVE",
"317 660 CURVE",
"313 672 LINE",
"189 692 LINE"
);
},
{
closed = 1;
nodes = (
"115 363 LINE",
"313 402 OFFCURVE",
"418 177 OFFCURVE",
"292 74 CURVE",
"114 60 OFFCURVE",
"124 156 OFFCURVE",
"124 254 CURVE SMOOTH",
"124 466 OFFCURVE",
"142 629 OFFCURVE",
"151 688 CURVE",
"145 700 LINE",
"30 700 LINE",
"40 591 OFFCURVE",
"35 345 OFFCURVE",
"35 94 CURVE",
"52 37 OFFCURVE",
"122 -10 OFFCURVE",
"197 -10 CURVE SMOOTH",
"275 -10 OFFCURVE",
"422 97 OFFCURVE",
"422 237 CURVE SMOOTH",
"422 349 OFFCURVE",
"377 421 OFFCURVE",
"280 441 CURVE",
"243 433 OFFCURVE",
"156 414 OFFCURVE",
"114 399 CURVE"
);
}
);
width = 442;
}
);
leftMetricsKey = b;
rightMetricsKey = b;
unicode = 0180;
},
{
color = 4;
glyphname = c;
lastChange = "2019-04-24 15:12:21 +0000";
layers = (
{
layerId = "7C1725DE-9D81-4366-9E02-5B418FA849BA";
paths = (
{
closed = 1;
nodes = (
"20 140 OFFCURVE",
"30 60 CURVE",
"40 32 OFFCURVE",
"84 5 OFFCURVE",
"136 -10 CURVE",
"189 8 OFFCURVE",
"232 42 OFFCURVE",
"279 79 CURVE",
"271 109 LINE",
"240 95 OFFCURVE",
"215 91 OFFCURVE",
"195 91 CURVE SMOOTH",
"138 91 OFFCURVE",
"106 153 OFFCURVE",
"106 251 CURVE SMOOTH",
"106 290 OFFCURVE",
"112 331 OFFCURVE",
"120 350 CURVE",
"148 348 OFFCURVE",
"183 335 OFFCURVE",
"207 315 CURVE",
"281 382 LINE",
"280 394 LINE",
"260 412 OFFCURVE",
"209 435 OFFCURVE",
"175 440 CURVE",
"143 426 OFFCURVE",
"42 357 OFFCURVE",
"35 340 CURVE",
"27 278 OFFCURVE"
);
}
);
width = 294;
}
);
unicode = 0063;
},
{
color = 4;
glyphname = c_ra;
lastChange = "2019-04-10 09:03:09 +0000";
layers = (
{
layerId = "7C1725DE-9D81-4366-9E02-5B418FA849BA";
paths = (
{
closed = 1;
nodes = (
"83 625 LINE",
"94 567 OFFCURVE",
"130 540 OFFCURVE",
"168 540 CURVE SMOOTH",
"199 540 OFFCURVE",
"232 575 OFFCURVE",
"253 608 CURVE",
"265 608 LINE",
"295 567 OFFCURVE",
"305 573 OFFCURVE",
"323 594 CURVE",
"339 582 LINE",
"309 545 OFFCURVE",
"292 522 OFFCURVE",
"263 484 CURVE",
"236 480 OFFCURVE",
"220 499 OFFCURVE",
"202 521 CURVE",
"174 496 OFFCURVE",
"138 481 OFFCURVE",
"117 481 CURVE SMOOTH",
"87 481 OFFCURVE",
"67 496 OFFCURVE",
"61 512 CURVE",
"59 540 OFFCURVE",
"62 573 OFFCURVE",
"64 619 CURVE"
);
},
{
closed = 1;
nodes = (
"15 230 OFFCURVE",
"11 150 OFFCURVE",
"24 70 CURVE",
"34 42 OFFCURVE",
"93 -6 OFFCURVE",
"145 -10 CURVE",
"198 6 OFFCURVE",
"257 46 OFFCURVE",
"312 93 CURVE",
"300 121 LINE",
"269 103 OFFCURVE",
"241 93 OFFCURVE",
"200 93 CURVE SMOOTH",
"130 93 OFFCURVE",
"102 161 OFFCURVE",
"102 228 CURVE SMOOTH",
"102 294 OFFCURVE",
"143 334 OFFCURVE",
"174 349 CURVE",
"195 346 OFFCURVE",
"230 317 OFFCURVE",
"257 299 CURVE",
"327 387 LINE",
"326 399 LINE",
"297 401 OFFCURVE",
"218 427 OFFCURVE",
"184 430 CURVE",
"142 416 OFFCURVE",
"31 307 OFFCURVE",
"24 290 CURVE"
);
}
);
width = 352;
}
);
},
{
color = 4;
glyphname = c_t;
lastChange = "2019-04-24 15:12:21 +0000";
layers = (
{
components = (
{
name = c;
}
);
layerId = "7C1725DE-9D81-4366-9E02-5B418FA849BA";
paths = (
{
closed = 1;
nodes = (
"493 428 OFFCURVE",
"553 430 OFFCURVE",
"609 432 CURVE",
"605 350 LINE",
"545 359 OFFCURVE",
"484 359 OFFCURVE",
"424 350 CURVE",
"437 430 LINE"
);
},
{
closed = 1;
nodes = (
"471 548 OFFCURVE",
"451 307 OFFCURVE",
"454 156 CURVE SMOOTH",
"455 100 OFFCURVE",
"469 85 OFFCURVE",
"502 85 CURVE SMOOTH",
"534 85 OFFCURVE",
"577 108 OFFCURVE",
"606 132 CURVE",
"617 104 LINE",
"576 65 OFFCURVE",
"493 7 OFFCURVE",
"436 -10 CURVE",
"365 16 OFFCURVE",
"347 55 OFFCURVE",
"347 90 CURVE SMOOTH",
"347 161 OFFCURVE",
"363 256 OFFCURVE",
"360 320 CURVE SMOOTH",
"358 357 OFFCURVE",
"340 366 OFFCURVE",
"324 370 CURVE",
"324 381 LINE",
"343 401 OFFCURVE",
"353 416 OFFCURVE",
"358 430 CURVE SMOOTH",
"366 453 OFFCURVE",
"365 512 OFFCURVE",
"362 548 CURVE SMOOTH",
"359 588 OFFCURVE",
"331 604 OFFCURVE",
"286 604 CURVE SMOOTH",
"245 604 OFFCURVE",
"172 592 OFFCURVE",
"80 559 CURVE",
"74 585 LINE",
"173 620 OFFCURVE",
"292 674 OFFCURVE",
"365 684 CURVE",
"411 664 OFFCURVE",
"451 644 OFFCURVE",
"471 602 CURVE"
);
}
);
width = 633;
}
);
leftMetricsKey = c;
rightMetricsKey = t;
unicode = EEC5;
},
{
color = 4;
glyphname = c_t_macr;
lastChange = "2019-04-08 13:55:44 +0000";
layers = (
{
components = (
{
name = c;
}
);
layerId = "7C1725DE-9D81-4366-9E02-5B418FA849BA";
paths = (
{
closed = 1;
nodes = (
"375 627 OFFCURVE",
"206 622 OFFCURVE",
"168 622 CURVE SMOOTH",
"133 622 OFFCURVE",
"88 631 OFFCURVE",
"73 651 CURVE",
"45 640 LINE",
"61 596 OFFCURVE",
"134 528 OFFCURVE",
"180 527 CURVE SMOOTH",
"239 526 OFFCURVE",
"287 539 OFFCURVE",
"404 540 CURVE SMOOTH",
"438 540 OFFCURVE",
"483 526 OFFCURVE",
"512 494 CURVE",
"542 506 LINE",
"515 558 OFFCURVE",
"471 604 OFFCURVE",
"431 631 CURVE"
);
},
{
closed = 1;
nodes = (
"391 340 LINE",
"448 347 OFFCURVE",
"505 347 OFFCURVE",
"562 340 CURVE",
"562 437 LINE",
"509 425 OFFCURVE",
"457 426 OFFCURVE",
"404 430 CURVE"
);
},
{
closed = 1;
nodes = (
"440 494 CURVE",
"425 499 LINE",
"371 453 OFFCURVE",
"320 417 OFFCURVE",
"270 391 CURVE",
"270 380 LINE",
"288 374 OFFCURVE",
"305 360 OFFCURVE",
"323 340 CURVE",
"322 257 OFFCURVE",
"309 161 OFFCURVE",
"309 90 CURVE SMOOTH",
"309 30 OFFCURVE",
"323 -10 OFFCURVE",
"393 -10 CURVE SMOOTH",
"430 -10 OFFCURVE",
"487 26 OFFCURVE",
"546 65 CURVE",
"537 92 LINE",
"513 87 OFFCURVE",
"501 85 OFFCURVE",
"479 85 CURVE SMOOTH",
"436 85 OFFCURVE",
"427 100 OFFCURVE",
"421 156 CURVE SMOOTH",
"410 256 OFFCURVE",
"426 410 OFFCURVE"
);
}
);
width = 578;
}
);
leftMetricsKey = c;
rightMetricsKey = t;
},
{
color = 4;
glyphname = d;
lastChange = "2019-04-23 10:13:45 +0000";
layers = (
{
layerId = "7C1725DE-9D81-4366-9E02-5B418FA849BA";
paths = (
{
closed = 1;
nodes = (
"334 419 LINE",
"308 428 OFFCURVE",
"261 440 OFFCURVE",
"217 440 CURVE",
"128 420 OFFCURVE",
"20 325 OFFCURVE",
"20 200 CURVE SMOOTH",
"20 74 OFFCURVE",
"90 10 OFFCURVE",
"176 -10 CURVE",
"233 14 OFFCURVE",
"290 65 OFFCURVE",
"331 87 CURVE",
"326 139 LINE",
"296 114 OFFCURVE",
"282 99 OFFCURVE",
"229 99 CURVE SMOOTH",
"122 99 OFFCURVE",
"53 222 OFFCURVE",
"117 336 CURVE",
"166 357 OFFCURVE",
"286 348 OFFCURVE",
"325 307 CURVE"
);
},
{
closed = 1;
nodes = (
"317 449 OFFCURVE",
"319 269 OFFCURVE",
"315 88 CURVE SMOOTH",
"314 32 OFFCURVE",
"341 6 OFFCURVE",
"359 -10 CURVE",
"397 14 OFFCURVE",
"423 35 OFFCURVE",
"459 57 CURVE",
"459 75 LINE",
"424 99 OFFCURVE",
"412 104 OFFCURVE",
"411 156 CURVE SMOOTH",
"407 371 OFFCURVE",
"414 600 OFFCURVE",
"430 702 CURVE",
"423 712 LINE",
"271 690 LINE",
"271 657 LINE",
"291 653 OFFCURVE",
"309 657 OFFCURVE",
"310 630 CURVE SMOOTH"
);
}
);
width = 475;
}
);
leftMetricsKey = o;
unicode = 0064;
},
{
color = 4;
glyphname = d_strok;
lastChange = "2019-05-23 17:04:36 +0000";
layers = (
{
layerId = "7C1725DE-9D81-4366-9E02-5B418FA849BA";
paths = (
{
closed = 1;
nodes = (
"399 531 LINE",
"110 511 LINE",
"57 474 LINE",
"58 463 LINE",
"192 474 OFFCURVE",
"319 478 OFFCURVE",
"450 479 CURVE",
"451 494 LINE"
);
},
{
closed = 1;
nodes = (
"310 108 LINE",
"318 -1 LINE",
"343 -10 LINE",
"375 6 OFFCURVE",
"412 34 OFFCURVE",
"441 47 CURVE",
"437 68 LINE",
"399 75 OFFCURVE",
"389 80 OFFCURVE",
"389 120 CURVE SMOOTH",
"389 335 OFFCURVE",
"387 598 OFFCURVE",
"398 700 CURVE",
"391 710 LINE",
"248 690 LINE",
"248 662 LINE",
"278 658 OFFCURVE",
"291 646 OFFCURVE",
"292 621 CURVE"
);
},
{
closed = 1;
nodes = (
"303 392 LINE",
"292 397 OFFCURVE",
"213 406 OFFCURVE",
"167 406 CURVE",
"141 396 OFFCURVE",
"51 321 OFFCURVE",
"21 229 CURVE",
"11 73 OFFCURVE",
"89 -10 OFFCURVE",
"194 -10 CURVE",
"334 107 LINE",
"312 133 LINE",
"293 118 OFFCURVE",
"259 100 OFFCURVE",
"226 100 CURVE SMOOTH",
"152 100 OFFCURVE",
"93 154 OFFCURVE",
"93 239 CURVE SMOOTH",
"93 303 OFFCURVE",
"120 324 OFFCURVE",
"162 324 CURVE SMOOTH",
"228 324 OFFCURVE",
"307 280 OFFCURVE",
"307 174 CURVE"
);
}
);
width = 467;
}
);
leftMetricsKey = d;
rightMetricsKey = d;
unicode = 0111;
},
{
color = 4;
glyphname = e;
lastChange = "2019-05-23 17:04:36 +0000";
layers = (
{
layerId = "7C1725DE-9D81-4366-9E02-5B418FA849BA";
paths = (
{
closed = 1;
nodes = (
"15 241 OFFCURVE",
"29 299 OFFCURVE",
"46 340 CURVE",
"75 374 OFFCURVE",
"156 430 OFFCURVE",
"172 440 CURVE",
"211 430 OFFCURVE",
"270 386 OFFCURVE",
"294 367 CURVE",
"317 382 LINE",
"327 347 LINE",
"251 291 OFFCURVE",
"158 208 OFFCURVE",
"99 152 CURVE",
"88 183 LINE",
"191 283 LINE",
"186 309 OFFCURVE",
"156 340 OFFCURVE",
"124 340 CURVE",
"114 331 OFFCURVE",
"105 303 OFFCURVE",
"105 250 CURVE SMOOTH",
"105 135 OFFCURVE",
"135 62 OFFCURVE",
"244 62 CURVE SMOOTH",
"272 62 OFFCURVE",
"295 69 OFFCURVE",
"319 73 CURVE",
"322 43 LINE",
"236 8 OFFCURVE",
"172 -10 OFFCURVE",
"91 -10 CURVE",
"51 6 OFFCURVE",
"15 89 OFFCURVE",
"15 172 CURVE SMOOTH"
);
}
);
width = 332;
}
);
unicode = 0065;
},
{
color = 4;
glyphname = e_macr;
lastChange = "2019-04-11 12:32:39 +0000";
layers = (
{
anchors = (
{
name = _top;
position = "{184, 430}";
},
{
name = top;
position = "{184, 672}";
}
);
components = (
{
name = e;
}
);
layerId = "7C1725DE-9D81-4366-9E02-5B418FA849BA";
paths = (
{
closed = 1;
nodes = (
"122 575 OFFCURVE",
"94 539 OFFCURVE",
"67 497 CURVE",
"97 485 LINE",
"144 529 OFFCURVE",
"185 514 OFFCURVE",
"257 514 CURVE",
"275 531 OFFCURVE",
"307 569 OFFCURVE",
"343 613 CURVE",
"315 624 LINE",
"277 603 OFFCURVE",
"241 606 OFFCURVE",
"162 612 CURVE"
);
}
);
width = 348;
}
);
leftMetricsKey = e;
rightMetricsKey = e;
unicode = 0113;
},
{
color = 4;
glyphname = e_ogon;
lastChange = "2019-05-23 17:04:36 +0000";
layers = (
{
components = (
{
name = e;
}
);
layerId = "7C1725DE-9D81-4366-9E02-5B418FA849BA";
paths = (
{
closed = 1;
nodes = (
"195 10 LINE",
"123 -156 LINE SMOOTH",
"111 -184 OFFCURVE",
"114 -185 OFFCURVE",
"197 -169 CURVE",
"197 -200 LINE",
"35 -278 LINE",
"35 -246 LINE",
"76 -166 OFFCURVE",
"124 -81 OFFCURVE",
"164 2 CURVE"
);
}
);
width = 332;
}
);
leftMetricsKey = e;
rightMetricsKey = e;
unicode = 0119;
},
{
color = 4;
glyphname = f;
lastChange = "2019-05-23 17:04:36 +0000";
layers = (
{
layerId = "7C1725DE-9D81-4366-9E02-5B418FA849BA";
paths = (
{
closed = 1;
nodes = (
"251 594 LINE",
"240 595 LINE",
"226 613 OFFCURVE",
"187 636 OFFCURVE",
"153 630 CURVE",
"138 610 OFFCURVE",
"138 491 OFFCURVE",
"138 373 CURVE SMOOTH",
"138 167 OFFCURVE",
"142 103 OFFCURVE",
"161 33 CURVE",
"162 4 LINE",
"126 2 OFFCURVE",
"73 -3 OFFCURVE",
"38 -10 CURVE",
"36 -6 LINE",
"39 62 OFFCURVE",
"46 230 OFFCURVE",
"46 279 CURVE SMOOTH",
"46 322 OFFCURVE",
"28 344 OFFCURVE",
"29 356 CURVE",
"29 362 LINE",
"43 392 OFFCURVE",
"55 428 OFFCURVE",
"61 477 CURVE SMOOTH",
"74 586 OFFCURVE",
"131 710 OFFCURVE",
"199 710 CURVE SMOOTH",
"238 710 OFFCURVE",
"282 696 OFFCURVE",
"300 675 CURVE"
);
},
{
closed = 1;
nodes = (
"280 405 LINE",
"280 340 LINE",
"234 343 OFFCURVE",
"167 343 OFFCURVE",
"101 340 CURVE",
"101 405 LINE"
);
}
);
width = 260;
}
);
unicode = 0066;
},
{
color = 4;
glyphname = f_f;
lastChange = "2019-04-10 09:31:46 +0000";
layers = (
{
layerId = "7C1725DE-9D81-4366-9E02-5B418FA849BA";
paths = (
{
closed = 1;
nodes = (
"466 592 LINE",
"455 592 LINE",
"441 610 OFFCURVE",
"398 630 OFFCURVE",
"371 621 CURVE",
"358 583 OFFCURVE",
"356 521 OFFCURVE",
"356 463 CURVE SMOOTH",
"356 387 OFFCURVE",
"352 89 OFFCURVE",
"371 19 CURVE",
"369 0 LINE",
"333 1 OFFCURVE",
"288 1 OFFCURVE",
"253 -1 CURVE",
"251 3 LINE",
"254 71 OFFCURVE",
"261 288 OFFCURVE",
"261 337 CURVE",
"244 356 LINE",
"244 362 LINE",
"258 392 OFFCURVE",
"271 428 OFFCURVE",
"276 477 CURVE SMOOTH",
"289 596 OFFCURVE",
"356 710 OFFCURVE",
"424 710 CURVE SMOOTH",
"463 710 OFFCURVE",
"485 690 OFFCURVE",
"504 677 CURVE"
);
},
{
closed = 1;
nodes = (
"430 405 LINE SMOOTH",
"446 405 OFFCURVE",
"470 408 OFFCURVE",
"479 425 CURVE",
"495 425 LINE",
"485 335 LINE",
"439 338 OFFCURVE",
"382 343 OFFCURVE",
"316 340 CURVE",
"316 405 LINE"
);
},
{
closed = 1;
nodes = (
"287 677 OFFCURVE",
"280 637 OFFCURVE",
"276 601 CURVE",
"265 601 LINE",
"241 619 OFFCURVE",
"198 635 OFFCURVE",
"162 626 CURVE",
"143 541 OFFCURVE",
"144 85 OFFCURVE",
"162 20 CURVE",
"160 1 LINE",
"144 3 OFFCURVE",
"88 2 OFFCURVE",
"53 -3 CURVE",
"51 1 LINE",
"54 69 OFFCURVE",
"57 261 OFFCURVE",
"57 337 CURVE SMOOTH",
"57 446 OFFCURVE",
"68 553 OFFCURVE",
"133 672 CURVE",
"172 691 OFFCURVE",
"216 712 OFFCURVE",
"285 705 CURVE"
);
},
{
closed = 1;
nodes = (
"294 404 LINE",
"294 339 LINE",
"248 342 OFFCURVE",
"181 342 OFFCURVE",
"115 339 CURVE",
"115 404 LINE"
);
}
);
width = 464;
}
);
rightMetricsKey = f;
},
{
color = 4;
glyphname = f_i;
lastChange = "2019-05-23 17:04:36 +0000";
layers = (
{
layerId = "7C1725DE-9D81-4366-9E02-5B418FA849BA";
paths = (
{
closed = 1;
nodes = (
"48 345 OFFCURVE",
"51 323 OFFCURVE",
"51 303 CURVE SMOOTH",
"51 186 OFFCURVE",
"50 85 OFFCURVE",
"37 -14 CURVE",
"47 -20 LINE",
"74 -7 OFFCURVE",
"112 4 OFFCURVE",
"159 11 CURVE",
"161 20 LINE",
"147 82 OFFCURVE",
"143 158 OFFCURVE",
"141 340 CURVE",
"177 341 OFFCURVE",
"211 343 OFFCURVE",
"246 333 CURVE",
"259 235 OFFCURVE",
"255 122 OFFCURVE",
"243 1 CURVE",
"266 -9 LINE",
"304 8 OFFCURVE",
"353 23 OFFCURVE",
"387 39 CURVE",
"387 65 LINE",
"347 65 OFFCURVE",
"348 60 OFFCURVE",
"344 146 CURVE SMOOTH",
"341 212 OFFCURVE",
"335 355 OFFCURVE",
"351 443 CURVE",
"341 451 LINE",
"287 420 OFFCURVE",
"230 412 OFFCURVE",
"138 414 CURVE",
"134 550 LINE SMOOTH",
"132 605 OFFCURVE",
"139 615 OFFCURVE",
"142 615 CURVE",
"169 622 OFFCURVE",
"212 600 OFFCURVE",
"246 578 CURVE",
"329 655 LINE",
"330 659 LINE",
"291 669 OFFCURVE",
"235 689 OFFCURVE",
"186 710 CURVE",
"147 669 OFFCURVE",
"108 633 OFFCURVE",
"48 591 CURVE",
"46 585 OFFCURVE",
"51 496 OFFCURVE",
"51 437 CURVE SMOOTH",
"51 414 OFFCURVE",
"41 387 OFFCURVE",
"29 362 CURVE",
"29 357 LINE"
);
}
);
width = 397;
}
);
leftMetricsKey = f;
rightMetricsKey = i;
unicode = FB01;
},
{
color = 4;
glyphname = f_i.ss01;
lastChange = "2019-05-23 17:05:55 +0000";
layers = (
{
components = (
{
name = f_i;
}
);
layerId = "7C1725DE-9D81-4366-9E02-5B418FA849BA";
paths = (
{
closed = 1;
nodes = (
"314 482 LINE",
"411 620 LINE",
"411 628 LINE",
"349 628 LINE",
"292 490 LINE"
);
}
);
width = 421;
}
);
leftMetricsKey = f;
rightMetricsKey = i;
},
{
color = 4;
glyphname = g;
lastChange = "2019-04-23 10:13:38 +0000";
layers = (
{
layerId = "7C1725DE-9D81-4366-9E02-5B418FA849BA";
paths = (
{
closed = 1;
nodes = (
"120 138 OFFCURVE",
"56 262 OFFCURVE",
"118 358 CURVE",
"231 362 OFFCURVE",
"280 245 OFFCURVE",
"240 146 CURVE"
);
},
{
closed = 1;
nodes = (
"21 121 OFFCURVE",
"93 56 OFFCURVE",
"189 55 CURVE",
"242 90 OFFCURVE",
"301 143 OFFCURVE",
"332 201 CURVE",
"342 244 OFFCURVE",
"343 290 OFFCURVE",
"334 339 CURVE",
"356 340 OFFCURVE",
"374 339 OFFCURVE",
"396 338 CURVE",
"434 399 LINE",
"430 408 LINE",
"314 407 LINE",
"292 410 OFFCURVE",
"259 440 OFFCURVE",
"194 440 CURVE SMOOTH",
"78 440 OFFCURVE",
"21 315 OFFCURVE",
"21 242 CURVE SMOOTH"
);
},
{
closed = 1;
nodes = (
"178 55 LINE",
"110 84 LINE",
"93 51 OFFCURVE",
"32 12 OFFCURVE",
"21 -2 CURVE",
"21 -70 OFFCURVE",
"87 -105 OFFCURVE",
"132 -127 CURVE",
"278 -128 OFFCURVE",
"383 -143 OFFCURVE",
"374 -223 CURVE",
"358 -244 OFFCURVE",
"317 -250 OFFCURVE",
"281 -250 CURVE SMOOTH",
"158 -250 OFFCURVE",
"116 -192 OFFCURVE",
"114 -161 CURVE SMOOTH",
"112 -134 OFFCURVE",
"141 -127 OFFCURVE",
"151 -120 CURVE",
"128 -87 LINE",
"87 -140 OFFCURVE",
"47 -164 OFFCURVE",
"22 -189 CURVE",
"22 -271 OFFCURVE",
"103 -330 OFFCURVE",
"225 -330 CURVE SMOOTH",
"284 -330 OFFCURVE",
"392 -253 OFFCURVE",
"422 -210 CURVE",
"469 -87 OFFCURVE",
"383 -40 OFFCURVE",
"253 -33 CURVE SMOOTH",
"152 -28 OFFCURVE",
"111 -2 OFFCURVE",
"111 27 CURVE SMOOTH",
"111 40 OFFCURVE",
"131 52 OFFCURVE",
"145 59 CURVE"
);
}
);
width = 435;
}
);
unicode = 0067;
},
{
color = 4;
glyphname = g_ring;
lastChange = "2019-04-09 10:08:42 +0000";
layers = (
{
components = (
{
name = g;
}
);
layerId = "7C1725DE-9D81-4366-9E02-5B418FA849BA";
paths = (
{
closed = 1;
nodes = (
"391 710 OFFCURVE",
"442 673 OFFCURVE",
"442 596 CURVE SMOOTH",
"442 523 OFFCURVE",
"366 477 OFFCURVE",
"293 477 CURVE SMOOTH",
"216 477 OFFCURVE",
"166 520 OFFCURVE",
"166 590 CURVE SMOOTH",
"166 650 OFFCURVE",
"221 710 OFFCURVE",
"315 710 CURVE SMOOTH"
);
},
{
closed = 1;
nodes = (
"347 515 OFFCURVE",
"363 541 OFFCURVE",
"363 575 CURVE SMOOTH",
"363 622 OFFCURVE",
"336 670 OFFCURVE",
"288 670 CURVE SMOOTH",
"254 670 OFFCURVE",
"242 642 OFFCURVE",
"242 607 CURVE SMOOTH",
"242 565 OFFCURVE",
"276 515 OFFCURVE",
"321 515 CURVE SMOOTH"
);
}
);
width = 442;
}
);
leftMetricsKey = g;
rightMetricsKey = g;
},
{
color = 4;
glyphname = g_e;
lastChange = "2019-04-10 10:35:01 +0000";
layers = (
{
components = (
{
name = g;
}
);
layerId = "7C1725DE-9D81-4366-9E02-5B418FA849BA";
paths = (
{
closed = 1;
nodes = (
"160 637 OFFCURVE",
"227 700 OFFCURVE",
"286 710 CURVE",
"320 702 OFFCURVE",
"354 690 OFFCURVE",
"386 669 CURVE",
"404 680 LINE",
"411 659 LINE",
"243 535 LINE",
"227 553 LINE",
"314 620 LINE",
"290 650 OFFCURVE",
"265 656 OFFCURVE",
"256 656 CURVE SMOOTH",
"238 656 OFFCURVE",
"226 643 OFFCURVE",
"226 605 CURVE SMOOTH",
"226 546 OFFCURVE",
"267 526 OFFCURVE",
"288 526 CURVE SMOOTH",
"335 526 OFFCURVE",
"359 559 OFFCURVE",
"385 607 CURVE",
"405 582 LINE",
"377 521 OFFCURVE",
"331 474 OFFCURVE",
"259 474 CURVE SMOOTH",
"209 474 OFFCURVE",
"160 506 OFFCURVE",
"160 567 CURVE SMOOTH"
);
}
);
width = 435;
}
);
leftMetricsKey = g;
rightMetricsKey = g;
},
{
color = 4;
glyphname = g_urrot;
lastChange = "2019-04-10 10:34:56 +0000";
layers = (
{
components = (
{
name = g;
}
);
layerId = "7C1725DE-9D81-4366-9E02-5B418FA849BA";
paths = (
{
closed = 1;
nodes = (
"388 529 LINE",
"308 535 OFFCURVE",
"305 536 OFFCURVE",
"313 570 CURVE SMOOTH",
"320 598 OFFCURVE",
"335 632 OFFCURVE",
"347 663 CURVE",
"345 673 LINE",
"320 673 OFFCURVE",
"208 669 OFFCURVE",
"174 668 CURVE",
"169 637 LINE",
"234 631 OFFCURVE",
"236 619 OFFCURVE",
"235 584 CURVE SMOOTH",
"234 555 OFFCURVE",
"229 538 OFFCURVE",
"222 504 CURVE",
"246 506 OFFCURVE",
"353 499 OFFCURVE",
"387 495 CURVE"
);
}
);
width = 456;
}
);
},
{
color = 4;
glyphname = h;
lastChange = "2019-05-23 17:04:36 +0000";
layers = (
{
layerId = "7C1725DE-9D81-4366-9E02-5B418FA849BA";
paths = (
{
closed = 1;
nodes = (
"120 381 LINE",
"171 405 OFFCURVE",
"204 424 OFFCURVE",
"251 440 CURVE",
"332 427 OFFCURVE",
"405 338 OFFCURVE",
"405 232 CURVE SMOOTH",
"405 109 OFFCURVE",
"331 44 OFFCURVE",
"234 -10 CURVE",
"219 29 LINE",
"284 54 OFFCURVE",
"318 103 OFFCURVE",
"318 182 CURVE SMOOTH",
"318 291 OFFCURVE",
"233 375 OFFCURVE",
"119 343 CURVE"
);
},
{
closed = 1;
nodes = (
"130 499 OFFCURVE",
"99 73 OFFCURVE",
"162 31 CURVE",
"162 10 LINE",
"117 0 OFFCURVE",
"74 -6 OFFCURVE",
"39 -20 CURVE",
"34 -10 LINE",
"45 64 OFFCURVE",
"33 527 OFFCURVE",
"30 698 CURVE",
"165 710 LINE",
"168 686 LINE",
"144 668 OFFCURVE",
"138 664 OFFCURVE",
"137 643 CURVE SMOOTH"
);
}
);
width = 425;
}
);
leftMetricsKey = b;
rightMetricsKey = o;
unicode = 0068;
},
{
color = 4;
glyphname = h_strok;
lastChange = "2019-04-11 12:36:31 +0000";
layers = (
{
layerId = "7C1725DE-9D81-4366-9E02-5B418FA849BA";
paths = (
{
closed = 1;
nodes = (
"33 576 LINE",
"146 612 OFFCURVE",
"288 591 OFFCURVE",
"422 541 CURVE",
"434 499 LINE",
"429 493 LINE",
"306 539 OFFCURVE",
"137 563 OFFCURVE",
"38 513 CURVE",
"30 520 LINE"
);
},
{
closed = 1;
nodes = (
"163 381 LINE",
"214 397 OFFCURVE",
"258 405 OFFCURVE",
"305 421 CURVE",
"386 408 OFFCURVE",
"446 348 OFFCURVE",
"446 242 CURVE SMOOTH",
"446 119 OFFCURVE",
"374 44 OFFCURVE",
"277 -10 CURVE",
"262 20 LINE",
"327 50 OFFCURVE",
"361 103 OFFCURVE",
"361 182 CURVE SMOOTH",
"361 291 OFFCURVE",
"276 375 OFFCURVE",
"162 343 CURVE"
);
},
{
closed = 1;
nodes = (
"175 532 OFFCURVE",
"174 279 OFFCURVE",
"176 136 CURVE SMOOTH",
"177 78 OFFCURVE",
"191 69 OFFCURVE",
"203 51 CURVE",
"200 30 LINE",
"175 26 OFFCURVE",
"123 10 OFFCURVE",
"68 -10 CURVE",
"63 20 LINE",
"86 49 OFFCURVE",
"87 64 OFFCURVE",
"87 124 CURVE SMOOTH",
"88 274 OFFCURVE",
"77 499 OFFCURVE",
"75 595 CURVE SMOOTH",
"74 650 OFFCURVE",
"74 652 OFFCURVE",
"46 672 CURVE",
"46 700 LINE",
"208 702 LINE",
"211 678 LINE",
"187 660 OFFCURVE",
"181 656 OFFCURVE",
"180 635 CURVE SMOOTH"
);
}
);
width = 452;
}
);
leftMetricsKey = h;
},
{
color = 4;
glyphname = i;
lastChange = "2019-05-23 17:04:36 +0000";
layers = (
{
layerId = "7C1725DE-9D81-4366-9E02-5B418FA849BA";
paths = (
{
closed = 1;
nodes = (
"151 84 OFFCURVE",
"154 86 OFFCURVE",
"148 154 CURVE SMOOTH",
"142 220 OFFCURVE",
"137 376 OFFCURVE",
"163 427 CURVE",
"153 451 LINE",
"119 438 OFFCURVE",
"64 425 OFFCURVE",
"30 416 CURVE",
"30 393 LINE",
"65 318 OFFCURVE",
"47 199 OFFCURVE",
"44 47 CURVE SMOOTH",
"44 28 OFFCURVE",
"70 0 OFFCURVE",
"100 -10 CURVE",
"128 11 OFFCURVE",
"148 25 OFFCURVE",
"190 48 CURVE",
"190 74 LINE"
);
},
{
closed = 1;
nodes = (
"109 502 LINE",
"196 619 LINE",
"196 627 LINE",
"134 628 LINE",
"78 500 LINE"
);
}
);
width = 206;
}
);
unicode = 0069;
},
{
color = 4;
glyphname = i.calt;
lastChange = "2019-04-23 10:18:28 +0000";
layers = (
{
layerId = "7C1725DE-9D81-4366-9E02-5B418FA849BA";
paths = (
{
closed = 1;
nodes = (
"146 65 OFFCURVE",
"139 60 OFFCURVE",
"139 196 CURVE SMOOTH",
"139 277 OFFCURVE",
"144 344 OFFCURVE",
"167 434 CURVE",
"158 451 LINE",
"124 438 OFFCURVE",
"64 425 OFFCURVE",
"30 416 CURVE",
"30 393 LINE",
"65 318 OFFCURVE",
"47 182 OFFCURVE",
"44 30 CURVE",
"50 11 OFFCURVE",
"73 0 OFFCURVE",
"94 -10 CURVE",
"132 7 OFFCURVE",
"152 23 OFFCURVE",
"186 39 CURVE",
"186 65 LINE"
);
}
);
width = 196;
}
);
leftMetricsKey = i;
rightMetricsKey = i;
},
{
color = 4;
glyphname = i_macr;
lastChange = "2019-04-23 10:13:29 +0000";
layers = (
{
anchors = (
{
name = _top;
position = "{126, 431}";
}
);
layerId = "7C1725DE-9D81-4366-9E02-5B418FA849BA";
paths = (
{
closed = 1;
nodes = (
"55 565 OFFCURVE",
"40 543 OFFCURVE",
"7 501 CURVE",
"23 484 LINE",
"41 504 OFFCURVE",
"59 519 OFFCURVE",
"80 519 CURVE SMOOTH",
"99 519 OFFCURVE",
"128 513 OFFCURVE",
"152 506 CURVE",
"181 547 OFFCURVE",
"206 588 OFFCURVE",
"229 629 CURVE",
"209 652 LINE",
"199 623 OFFCURVE",
"171 585 OFFCURVE",
"142 585 CURVE SMOOTH",
"116 585 OFFCURVE",
"108 589 OFFCURVE",
"82 599 CURVE"
);
},
{
closed = 1;
nodes = (
"174 69 OFFCURVE",
"175 72 OFFCURVE",
"176 158 CURVE",
"177 224 OFFCURVE",
"181 278 OFFCURVE",
"182 358 CURVE",
"168 390 OFFCURVE",
"147 425 OFFCURVE",
"125 441 CURVE",
"19 390 LINE",
"19 360 LINE",
"64 367 OFFCURVE",
"78 334 OFFCURVE",
"78 308 CURVE SMOOTH",
"78 231 OFFCURVE",
"76 152 OFFCURVE",
"66 40 CURVE",
"72 21 OFFCURVE",
"91 0 OFFCURVE",
"112 -10 CURVE",
"150 7 OFFCURVE",
"170 20 OFFCURVE",
"224 44 CURVE",
"224 77 LINE"
);
}
);
width = 239;
}
);
unicode = 012B;
},
{
color = 4;
glyphname = i_n;
lastChange = "2019-04-23 10:13:21 +0000";
layers = (
{
layerId = "7C1725DE-9D81-4366-9E02-5B418FA849BA";
paths = (
{
closed = 1;
nodes = (
"148 502 LINE",
"255 650 LINE",
"255 658 LINE",
"203 658 LINE",
"124 515 LINE"
);
},
{
closed = 1;
nodes = (
"176 73 OFFCURVE",
"186 58 OFFCURVE",
"223 50 CURVE",
"223 21 LINE",
"173 18 OFFCURVE",
"124 7 OFFCURVE",
"74 -10 CURVE",
"68 -5 LINE",
"70 15 OFFCURVE",
"76 74 OFFCURVE",
"76 161 CURVE SMOOTH",
"76 289 LINE SMOOTH",
"76 329 OFFCURVE",
"60 345 OFFCURVE",
"30 349 CURVE",
"30 376 LINE",
"133 440 LINE",
"164 423 OFFCURVE",
"176 378 OFFCURVE",
"176 326 CURVE SMOOTH",
"176 110 LINE SMOOTH"
);
},
{
closed = 1;
nodes = (
"292 41 OFFCURVE",
"298 95 OFFCURVE",
"298 234 CURVE SMOOTH",
"298 303 OFFCURVE",
"277 330 OFFCURVE",
"230 330 CURVE SMOOTH",
"198 330 OFFCURVE",
"174 322 OFFCURVE",
"157 303 CURVE",
"143 332 LINE",
"197 374 OFFCURVE",
"281 433 OFFCURVE",
"306 440 CURVE",
"331 440 OFFCURVE",
"398 384 OFFCURVE",
"398 340 CURVE SMOOTH",
"398 101 LINE SMOOTH",
"398 64 OFFCURVE",
"404 55 OFFCURVE",
"441 47 CURVE",
"441 21 LINE",
"388 17 OFFCURVE",
"335 6 OFFCURVE",
"282 -10 CURVE",
"273 0 LINE"
);
},
{
closed = 1;
nodes = (
"515 96 OFFCURVE",
"515 125 OFFCURVE",
"515 244 CURVE SMOOTH",
"515 313 OFFCURVE",
"484 332 OFFCURVE",
"437 332 CURVE SMOOTH",
"405 332 OFFCURVE",
"391 322 OFFCURVE",
"374 303 CURVE",
"360 332 LINE",
"414 374 OFFCURVE",
"507 423 OFFCURVE",
"533 440 CURVE",
"558 430 OFFCURVE",
"608 404 OFFCURVE",
"618 360 CURVE",
"608 280 OFFCURVE",
"616 198 OFFCURVE",
"618 118 CURVE SMOOTH",
"619 81 OFFCURVE",
"624 53 OFFCURVE",
"651 45 CURVE",
"651 21 LINE",
"605 16 OFFCURVE",
"555 5 OFFCURVE",
"509 -10 CURVE",
"503 -5 LINE"
);
}
);
width = 661;
}
);
leftMetricsKey = i;
rightMetricsKey = n;
},
{
color = 4;
glyphname = i_u;
lastChange = "2019-04-23 10:13:33 +0000";
layers = (
{
layerId = "7C1725DE-9D81-4366-9E02-5B418FA849BA";
paths = (
{
closed = 1;
nodes = (
"74 398 OFFCURVE",
"118 417 OFFCURVE",
"162 440 CURVE",
"177 430 LINE",
"163 346 OFFCURVE",
"160 262 OFFCURVE",
"160 171 CURVE SMOOTH",
"160 114 OFFCURVE",
"191 85 OFFCURVE",
"226 85 CURVE SMOOTH",
"261 85 OFFCURVE",
"277 96 OFFCURVE",
"313 129 CURVE",
"313 83 LINE",
"154 -10 LINE",
"99 -10 OFFCURVE",
"62 33 OFFCURVE",
"62 88 CURVE SMOOTH",
"62 122 OFFCURVE",
"68 206 OFFCURVE",
"68 309 CURVE SMOOTH",
"68 345 OFFCURVE",
"49 352 OFFCURVE",
"30 359 CURVE",
"30 383 LINE"
);
},
{
closed = 1;
nodes = (
"157 502 LINE",
"244 619 LINE",
"244 627 LINE",
"182 628 LINE",
"126 500 LINE"
);
},
{
closed = 1;
nodes = (
"380 440 LINE",
"385 431 LINE",
"385 373 OFFCURVE",
"377 282 OFFCURVE",
"377 185 CURVE SMOOTH",
"377 115 OFFCURVE",
"413 86 OFFCURVE",
"446 86 CURVE SMOOTH",
"471 86 OFFCURVE",
"501 102 OFFCURVE",
"531 129 CURVE",
"531 83 LINE",
"471 56 OFFCURVE",
"418 12 OFFCURVE",
"358 -10 CURVE",
"296 10 OFFCURVE",
"280 34 OFFCURVE",
"280 89 CURVE SMOOTH",
"280 123 OFFCURVE",
"287 270 OFFCURVE",
"287 291 CURVE SMOOTH",
"287 327 OFFCURVE",
"279 353 OFFCURVE",
"247 368 CURVE",
"247 395 LINE"
);
},
{
closed = 1;
nodes = (
"503 109 OFFCURVE",
"502 198 OFFCURVE",
"502 289 CURVE SMOOTH",
"502 339 OFFCURVE",
"488 365 OFFCURVE",
"448 378 CURVE",
"448 405 LINE",
"594 440 LINE",
"599 431 LINE",
"593 347 OFFCURVE",
"593 192 OFFCURVE",
"593 141 CURVE SMOOTH",
"593 100 OFFCURVE",
"594 92 OFFCURVE",
"630 74 CURVE",
"630 49 LINE",
"531 -15 LINE",
"513 6 OFFCURVE",
"493 34 OFFCURVE",
"493 71 CURVE"
);
}
);
width = 651;
}
);
leftMetricsKey = i;
rightMetricsKey = u;
},
{
color = 4;
glyphname = i_u_macr;
lastChange = "2019-04-11 12:32:39 +0000";
layers = (
{
layerId = "7C1725DE-9D81-4366-9E02-5B418FA849BA";
paths = (
{
closed = 1;
nodes = (
"74 398 OFFCURVE",
"118 417 OFFCURVE",
"171 440 CURVE",
"186 430 LINE",
"172 346 OFFCURVE",
"169 262 OFFCURVE",
"169 171 CURVE SMOOTH",
"169 114 OFFCURVE",
"200 92 OFFCURVE",
"235 92 CURVE SMOOTH",
"270 92 OFFCURVE",
"283 101 OFFCURVE",
"293 109 CURVE",
"293 83 LINE",
"125 -10 LINE",
"80 -1 OFFCURVE",
"62 13 OFFCURVE",
"62 68 CURVE SMOOTH",
"62 102 OFFCURVE",
"74 206 OFFCURVE",
"68 309 CURVE SMOOTH",
"66 345 OFFCURVE",
"49 352 OFFCURVE",
"30 359 CURVE",
"30 383 LINE"
);
},
{
closed = 1;
nodes = (
"164 462 LINE",
"271 601 LINE",
"271 609 LINE",
"220 619 LINE",
"143 478 LINE"
);
},
{
closed = 1;
nodes = (
"405 440 LINE",
"413 423 LINE",
"387 365 OFFCURVE",
"382 282 OFFCURVE",
"382 185 CURVE SMOOTH",
"382 115 OFFCURVE",
"410 86 OFFCURVE",
"443 86 CURVE SMOOTH",
"468 86 OFFCURVE",
"498 92 OFFCURVE",
"528 119 CURVE",
"528 80 LINE",
"468 53 OFFCURVE",
"405 20 OFFCURVE",
"345 -10 CURVE",
"293 10 OFFCURVE",
"277 44 OFFCURVE",
"277 99 CURVE SMOOTH",
"277 133 OFFCURVE",
"286 279 OFFCURVE",
"284 321 CURVE SMOOTH",
"282 357 OFFCURVE",
"276 383 OFFCURVE",
"244 398 CURVE",
"244 425 LINE"
);
},
{
closed = 1;
nodes = (
"500 109 OFFCURVE",
"499 198 OFFCURVE",
"499 289 CURVE SMOOTH",
"499 339 OFFCURVE",
"495 365 OFFCURVE",
"465 378 CURVE",
"465 405 LINE",
"614 440 LINE",
"619 431 LINE",
"593 328 OFFCURVE",
"597 192 OFFCURVE",
"602 141 CURVE SMOOTH",
"606 100 OFFCURVE",
"603 92 OFFCURVE",
"639 74 CURVE",
"639 49 LINE",
"509 -15 LINE",
"491 6 OFFCURVE",
"490 34 OFFCURVE",
"490 71 CURVE"
);
},
{
closed = 1;
nodes = (
"367 557 OFFCURVE",
"350 539 OFFCURVE",
"328 515 CURVE",
"348 500 LINE",
"393 517 OFFCURVE",
"425 509 OFFCURVE",
"529 496 CURVE",
"544 510 OFFCURVE",
"580 561 OFFCURVE",
"603 588 CURVE",
"582 601 LINE",
"537 579 OFFCURVE",
"510 582 OFFCURVE",
"393 597 CURVE"
);
}
);
width = 660;
}
);
leftMetricsKey = i;
rightMetricsKey = u_macr;
},
{
color = 6;
glyphname = j;
lastChange = "2019-04-17 18:07:43 +0000";
layers = (
{
layerId = "7C1725DE-9D81-4366-9E02-5B418FA849BA";
paths = (
{
closed = 1;
nodes = (
"101 -74 OFFCURVE",
"163 22 OFFCURVE",
"163 48 CURVE",
"154 160 OFFCURVE",
"145 365 OFFCURVE",
"165 419 CURVE",
"148 440 LINE",
"114 422 OFFCURVE",
"49 408 OFFCURVE",
"15 396 CURVE",
"15 370 LINE",
"57 362 OFFCURVE",
"63 344 OFFCURVE",
"63 298 CURVE SMOOTH",
"63 183 OFFCURVE",
"63 78 OFFCURVE",
"63 47 CURVE SMOOTH",
"63 -22 OFFCURVE",
"49 -98 OFFCURVE",
"19 -179 CURVE",
"50 -192 LINE"
);
},
{
closed = 1;
nodes = (
"79 502 LINE",
"176 619 LINE",
"176 627 LINE",
"114 628 LINE",
"48 500 LINE"
);
}
);
width = 196;
}
);
unicode = 006A;
},
{
color = 6;
glyphname = k;
lastChange = "2019-04-17 18:07:36 +0000";
layers = (
{
layerId = "7C1725DE-9D81-4366-9E02-5B418FA849BA";
paths = (
{
closed = 1;
nodes = (
"140 397 OFFCURVE",
"248 434 OFFCURVE",
"274 444 CURVE",
"339 384 OFFCURVE",
"350 318 OFFCURVE",
"358 289 CURVE",
"111 159 LINE",
"102 186 LINE",
"177 220 OFFCURVE",
"243 252 OFFCURVE",
"243 300 CURVE SMOOTH",
"243 365 OFFCURVE",
"172 380 OFFCURVE",
"114 345 CURVE",
"108 371 LINE"
);
},
{
closed = 1;
nodes = (
"227 239 LINE",
"312 143 OFFCURVE",
"380 67 OFFCURVE",
"411 85 CURVE",
"420 56 LINE",
"305 -14 LINE",
"274 38 OFFCURVE",
"217 158 OFFCURVE",
"112 172 CURVE"
);
},
{
closed = 1;
nodes = (
"120 355 OFFCURVE",
"119 56 OFFCURVE",
"136 11 CURVE",
"111 1 OFFCURVE",
"74 4 OFFCURVE",
"29 -10 CURVE",
"24 0 LINE",
"45 74 OFFCURVE",
"33 527 OFFCURVE",
"20 698 CURVE",
"163 710 LINE",
"166 686 LINE",
"142 668 OFFCURVE",
"136 664 OFFCURVE",
"135 643 CURVE SMOOTH"
);
}
);
width = 400;
}
);
unicode = 006B;
},
{
color = 4;
glyphname = l;
lastChange = "2019-05-23 17:04:36 +0000";
layers = (
{
layerId = "7C1725DE-9D81-4366-9E02-5B418FA849BA";
paths = (
{
closed = 1;
nodes = (
"122 313 OFFCURVE",
"128 501 OFFCURVE",
"134 642 CURVE SMOOTH",
"135 664 OFFCURVE",
"148 666 OFFCURVE",
"180 676 CURVE",
"180 704 LINE",
"25 700 LINE",
"25 693 LINE",
"31 541 OFFCURVE",
"35 252 OFFCURVE",
"29 95 CURVE SMOOTH",
"27 47 OFFCURVE",
"56 14 OFFCURVE",
"106 -10 CURVE",
"186 58 LINE",
"187 83 LINE",
"131 92 OFFCURVE",
"135 106 OFFCURVE",
"131 172 CURVE SMOOTH"
);
}
);
width = 197;
}
);
unicode = 006C;
},
{
color = 4;
glyphname = l_strok;
lastChange = "2019-04-23 10:19:36 +0000";
layers = (
{
layerId = "7C1725DE-9D81-4366-9E02-5B418FA849BA";
paths = (
{
closed = 1;
nodes = (
"238 678 LINE",
"257 670 OFFCURVE",
"268 659 OFFCURVE",
"268 634 CURVE SMOOTH",
"268 595 OFFCURVE",
"214 511 OFFCURVE",
"121 408 CURVE",
"133 390 LINE",
"224 473 OFFCURVE",
"291 580 OFFCURVE",
"339 645 CURVE SMOOTH",
"350 660 OFFCURVE",
"360 669 OFFCURVE",
"388 679 CURVE",
"388 700 LINE",
"238 700 LINE"
);
},
{
closed = 1;
nodes = (
"152 313 OFFCURVE",
"158 502 OFFCURVE",
"164 643 CURVE SMOOTH",
"165 665 OFFCURVE",
"178 667 OFFCURVE",
"200 677 CURVE",
"197 702 LINE",
"140 696 OFFCURVE",
"82 691 OFFCURVE",
"25 689 CURVE",
"25 666 LINE",
"56 648 OFFCURVE",
"56 644 OFFCURVE",
"57 599 CURVE SMOOTH",
"60 444 OFFCURVE",
"60 149 OFFCURVE",
"59 89 CURVE SMOOTH",
"58 42 OFFCURVE",
"86 15 OFFCURVE",
"136 -10 CURVE",
"216 58 LINE",
"217 83 LINE",
"161 92 OFFCURVE",
"165 106 OFFCURVE",
"161 172 CURVE SMOOTH"
);
}
);
width = 445;
}
);
leftMetricsKey = l;
unicode = A769;
},
{
color = 4;
glyphname = l_i;
lastChange = "2019-04-10 10:29:06 +0000";
layers = (
{
layerId = "7C1725DE-9D81-4366-9E02-5B418FA849BA";
paths = (
{
closed = 1;
nodes = (
"132 313 OFFCURVE",
"137 504 OFFCURVE",
"144 645 CURVE SMOOTH",
"145 667 OFFCURVE",
"148 669 OFFCURVE",
"180 676 CURVE",
"180 704 LINE",
"25 700 LINE",
"25 673 LINE",
"58 622 OFFCURVE",
"41 252 OFFCURVE",
"39 95 CURVE SMOOTH",
"38 47 OFFCURVE",
"66 14 OFFCURVE",
"116 -10 CURVE",
"252 68 LINE",
"247 93 LINE",
"151 72 OFFCURVE",
"145 106 OFFCURVE",
"141 172 CURVE SMOOTH"
);
},
{
closed = 1;
nodes = (
"344 69 OFFCURVE",
"345 72 OFFCURVE",
"346 158 CURVE",
"347 224 OFFCURVE",
"347 317 OFFCURVE",
"352 407 CURVE",
"338 420 OFFCURVE",
"317 433 OFFCURVE",
"295 441 CURVE",
"179 390 LINE",
"179 360 LINE",
"234 367 OFFCURVE",
"248 334 OFFCURVE",
"248 308 CURVE SMOOTH",
"248 231 OFFCURVE",
"246 152 OFFCURVE",
"236 40 CURVE",
"242 21 OFFCURVE",
"261 0 OFFCURVE",
"282 -10 CURVE",
"320 7 OFFCURVE",
"340 22 OFFCURVE",
"394 46 CURVE",
"394 77 LINE"
);
}
);
width = 404;
}
);
leftMetricsKey = l;
rightMetricsKey = i;
},
{
color = 4;
glyphname = m;
lastChange = "2019-05-23 17:04:36 +0000";
layers = (
{
layerId = "7C1725DE-9D81-4366-9E02-5B418FA849BA";
paths = (
{
closed = 1;
nodes = (
"156 73 OFFCURVE",
"166 58 OFFCURVE",
"203 50 CURVE",
"203 21 LINE",
"153 15 OFFCURVE",
"104 4 OFFCURVE",
"54 -10 CURVE",
"48 -5 LINE",
"50 15 OFFCURVE",
"56 74 OFFCURVE",
"56 161 CURVE SMOOTH",
"56 308 LINE SMOOTH",
"56 348 OFFCURVE",
"40 364 OFFCURVE",
"10 368 CURVE",
"10 395 LINE",
"149 442 LINE",
"162 432 LINE",
"162 415 OFFCURVE",
"156 378 OFFCURVE",
"156 326 CURVE SMOOTH",
"156 110 LINE SMOOTH"
);
},
{
closed = 1;
nodes = (
"275 56 OFFCURVE",
"278 133 OFFCURVE",
"278 252 CURVE SMOOTH",
"278 321 OFFCURVE",
"242 340 OFFCURVE",
"202 340 CURVE SMOOTH",
"170 340 OFFCURVE",
"154 322 OFFCURVE",
"137 303 CURVE",
"123 339 LINE",
"177 381 OFFCURVE",
"271 428 OFFCURVE",
"296 440 CURVE",
"321 440 OFFCURVE",
"378 394 OFFCURVE",
"378 350 CURVE SMOOTH",
"378 101 LINE SMOOTH",
"378 64 OFFCURVE",
"384 55 OFFCURVE",
"421 47 CURVE",
"421 21 LINE",
"371 15 OFFCURVE",
"322 4 OFFCURVE",
"272 -10 CURVE",
"266 -5 LINE"
);
},
{
closed = 1;
nodes = (
"495 96 OFFCURVE",
"495 155 OFFCURVE",
"495 214 CURVE SMOOTH",
"495 303 OFFCURVE",
"464 340 OFFCURVE",
"418 340 CURVE SMOOTH",
"386 340 OFFCURVE",
"371 322 OFFCURVE",
"354 303 CURVE",
"340 339 LINE",
"394 381 OFFCURVE",
"487 433 OFFCURVE",
"513 440 CURVE",
"538 440 OFFCURVE",
"595 403 OFFCURVE",
"595 359 CURVE SMOOTH",
"595 99 LINE SMOOTH",
"595 62 OFFCURVE",
"601 53 OFFCURVE",
"638 45 CURVE",
"638 21 LINE",
"588 15 OFFCURVE",
"539 4 OFFCURVE",
"489 -10 CURVE",
"483 -5 LINE"
);
}
);
width = 648;
}
);
leftMetricsKey = n;
rightMetricsKey = n;
unicode = 006D;
},
{
color = 4;
glyphname = m.calt;
lastChange = "2019-05-23 17:04:36 +0000";
layers = (
{
guideLines = (
{
position = "{427, 331}";
},
{
angle = 32;
position = "{61, 384}";
}
);
layerId = "7C1725DE-9D81-4366-9E02-5B418FA849BA";
paths = (
{
closed = 1;
nodes = (
"273 15 OFFCURVE",
"283 74 OFFCURVE",
"283 161 CURVE SMOOTH",
"283 234 LINE SMOOTH",
"283 303 OFFCURVE",
"262 340 OFFCURVE",
"215 340 CURVE SMOOTH",
"183 340 OFFCURVE",
"159 322 OFFCURVE",
"142 303 CURVE",
"128 340 LINE",
"182 382 OFFCURVE",
"275 433 OFFCURVE",
"301 440 CURVE",
"326 440 OFFCURVE",
"383 384 OFFCURVE",
"383 340 CURVE SMOOTH",
"383 109 LINE SMOOTH",
"383 72 OFFCURVE",
"389 63 OFFCURVE",
"426 55 CURVE",
"426 21 LINE",
"277 -10 LINE",
"271 -5 LINE"
);
},
{
closed = 1;
nodes = (
"490 15 OFFCURVE",
"500 74 OFFCURVE",
"500 161 CURVE SMOOTH",
"500 234 LINE SMOOTH",
"500 303 OFFCURVE",
"479 340 OFFCURVE",
"432 340 CURVE SMOOTH",
"400 340 OFFCURVE",
"376 322 OFFCURVE",
"359 303 CURVE",
"345 340 LINE",
"399 382 OFFCURVE",
"492 433 OFFCURVE",
"518 440 CURVE",
"543 440 OFFCURVE",
"600 384 OFFCURVE",
"600 340 CURVE SMOOTH",
"600 109 LINE SMOOTH",
"600 72 OFFCURVE",
"606 63 OFFCURVE",
"643 55 CURVE",
"643 21 LINE",
"494 -10 LINE",
"488 -5 LINE"
);
},
{
closed = 1;
nodes = (
"161 72 OFFCURVE",
"171 57 OFFCURVE",
"208 49 CURVE",
"208 21 LINE",
"59 -10 LINE",
"53 -5 LINE",
"55 15 OFFCURVE",
"61 74 OFFCURVE",
"61 161 CURVE SMOOTH",
"61 233 OFFCURVE",
"60 319 OFFCURVE",
"54 384 CURVE",
"150 440 LINE",
"161 429 LINE",
"161 109 LINE SMOOTH"
);
}
);
width = 653;
}
);
rightMetricsKey = m;
},
{
color = 4;
glyphname = m_macr;
lastChange = "2019-04-11 12:32:39 +0000";
layers = (
{
anchors = (
{
name = _top;
position = "{356, 430}";
},
{
name = top;
position = "{356, 672}";
}
);
components = (
{
name = m;
}
);
layerId = "7C1725DE-9D81-4366-9E02-5B418FA849BA";
paths = (
{
closed = 1;
nodes = (
"342 521 OFFCURVE",
"369 524 OFFCURVE",
"414 502 CURVE",
"435 515 LINE",
"412 542 OFFCURVE",
"377 593 OFFCURVE",
"362 607 CURVE",
"217 604 OFFCURVE",
"175 594 OFFCURVE",
"130 611 CURVE",
"110 596 LINE",
"132 572 OFFCURVE",
"149 554 OFFCURVE",
"175 514 CURVE"
);
}
);
width = 648;
}
);
leftMetricsKey = m;
rightMetricsKey = m;
unicode = E5B8;
},
{
color = 4;
glyphname = m_ring;
lastChange = "2019-04-11 12:32:39 +0000";
layers = (
{
components = (
{
name = m;
}
);
layerId = "7C1725DE-9D81-4366-9E02-5B418FA849BA";
paths = (
{
closed = 1;
nodes = (
"551 710 OFFCURVE",
"602 673 OFFCURVE",
"602 596 CURVE SMOOTH",
"602 523 OFFCURVE",
"526 477 OFFCURVE",
"453 477 CURVE SMOOTH",
"376 477 OFFCURVE",
"326 520 OFFCURVE",
"326 590 CURVE SMOOTH",
"326 650 OFFCURVE",
"381 710 OFFCURVE",
"475 710 CURVE SMOOTH"
);
},
{
closed = 1;
nodes = (
"507 515 OFFCURVE",
"523 541 OFFCURVE",
"523 575 CURVE SMOOTH",
"523 622 OFFCURVE",
"496 670 OFFCURVE",
"448 670 CURVE SMOOTH",
"414 670 OFFCURVE",
"402 642 OFFCURVE",
"402 607 CURVE SMOOTH",
"402 565 OFFCURVE",
"436 515 OFFCURVE",
"481 515 CURVE SMOOTH"
);
}
);
width = 648;
}
);
leftMetricsKey = m;
rightMetricsKey = m;
},
{
color = 4;
glyphname = m_urrot;
lastChange = "2019-04-10 10:43:44 +0000";
layers = (
{
components = (
{
name = m;
}
);
layerId = "7C1725DE-9D81-4366-9E02-5B418FA849BA";
paths = (
{
closed = 1;
nodes = (
"511 522 LINE",
"461 520 OFFCURVE",
"452 516 OFFCURVE",
"459 575 CURVE SMOOTH",
"463 605 OFFCURVE",
"475 655 OFFCURVE",
"479 690 CURVE",
"468 698 LINE",
"442 692 OFFCURVE",
"346 666 OFFCURVE",
"311 656 CURVE",
"315 624 LINE",
"372 629 OFFCURVE",
"373 627 OFFCURVE",
"375 580 CURVE SMOOTH",
"376 550 OFFCURVE",
"375 500 OFFCURVE",
"372 463 CURVE",
"399 472 OFFCURVE",
"497 489 OFFCURVE",
"514 492 CURVE"
);
}
);
width = 653;
}
);
},
{
color = 4;
glyphname = n;
lastChange = "2019-05-23 17:04:36 +0000";
layers = (
{
guideLines = (
{
angle = 32;
position = "{15, 376}";
}
);
layerId = "7C1725DE-9D81-4366-9E02-5B418FA849BA";
paths = (
{
closed = 1;
nodes = (
"66 131 OFFCURVE",
"65 82 OFFCURVE",
"53 -7 CURVE",
"58 -13 LINE",
"106 -6 OFFCURVE",
"131 -1 OFFCURVE",
"172 2 CURVE",
"162 98 OFFCURVE",
"161 179 OFFCURVE",
"161 331 CURVE SMOOTH",
"161 375 OFFCURVE",
"125 423 OFFCURVE",
"94 440 CURVE",
"10 376 LINE",
"10 348 LINE",
"54 343 OFFCURVE",
"66 309 OFFCURVE",
"66 263 CURVE SMOOTH"
);
},
{
closed = 1;
nodes = (
"270 -10 LINE",
"323 5 OFFCURVE",
"368 16 OFFCURVE",
"421 21 CURVE",
"421 54 LINE",
"384 62 OFFCURVE",
"381 71 OFFCURVE",
"378 108 CURVE SMOOTH",
"372 185 OFFCURVE",
"378 273 OFFCURVE",
"378 350 CURVE",
"378 394 OFFCURVE",
"322 431 OFFCURVE",
"297 440 CURVE",
"271 433 OFFCURVE",
"196 380 OFFCURVE",
"140 348 CURVE",
"154 316 LINE",
"230 358 OFFCURVE",
"292 328 OFFCURVE",
"292 208 CURVE SMOOTH",
"292 133 OFFCURVE",
"283 81 OFFCURVE",
"264 -5 CURVE"
);
}
);
width = 431;
}
);
unicode = 006E;
},
{
color = 4;
glyphname = n.calt;
lastChange = "2019-04-23 10:23:49 +0000";
layers = (
{
layerId = "7C1725DE-9D81-4366-9E02-5B418FA849BA";
paths = (
{
closed = 1;
nodes = (
"61 -10 LINE",
"168 11 LINE",
"162 74 OFFCURVE",
"159 114 OFFCURVE",
"159 203 CURVE SMOOTH",
"159 280 OFFCURVE",
"159 358 OFFCURVE",
"159 435 CURVE",
"148 440 LINE",
"56 384 LINE",
"62 316 OFFCURVE",
"59 247 OFFCURVE",
"59 179 CURVE SMOOTH",
"59 86 OFFCURVE",
"56 27 OFFCURVE",
"53 -5 CURVE"
);
},
{
closed = 1;
nodes = (
"270 -10 LINE",
"323 5 OFFCURVE",
"375 16 OFFCURVE",
"428 21 CURVE",
"428 54 LINE",
"391 62 OFFCURVE",
"388 71 OFFCURVE",
"385 108 CURVE SMOOTH",
"379 185 OFFCURVE",
"385 273 OFFCURVE",
"385 350 CURVE",
"385 394 OFFCURVE",
"313 431 OFFCURVE",
"288 440 CURVE",
"262 433 OFFCURVE",
"196 388 OFFCURVE",
"140 348 CURVE",
"154 316 LINE",
"242 359 OFFCURVE",
"289 309 OFFCURVE",
"289 208 CURVE SMOOTH",
"289 133 OFFCURVE",
"283 81 OFFCURVE",
"264 -5 CURVE"
);
}
);
width = 430;
}
);
leftMetricsKey = m.calt;
},
{
color = 4;
glyphname = n_macr;
lastChange = "2019-04-11 08:20:13 +0000";
layers = (
{
layerId = "7C1725DE-9D81-4366-9E02-5B418FA849BA";
paths = (
{
closed = 1;
nodes = (
"152 581 OFFCURVE",
"138 559 OFFCURVE",
"116 515 CURVE",
"147 506 LINE",
"189 555 OFFCURVE",
"231 544 OFFCURVE",
"303 551 CURVE",
"319 570 OFFCURVE",
"337 592 OFFCURVE",
"368 640 CURVE",
"339 648 LINE",
"304 623 OFFCURVE",
"267 624 OFFCURVE",
"188 622 CURVE"
);
},
{
closed = 1;
nodes = (
"61 140 OFFCURVE",
"54 82 OFFCURVE",
"48 -7 CURVE",
"53 -13 LINE",
"101 -6 OFFCURVE",
"131 1 OFFCURVE",
"172 4 CURVE",
"162 100 OFFCURVE",
"161 189 OFFCURVE",
"161 341 CURVE",
"147 436 LINE",
"126 439 LINE",
"25 380 LINE",
"25 352 LINE",
"59 347 OFFCURVE",
"61 318 OFFCURVE",
"61 272 CURVE SMOOTH"
);
},
{
closed = 1;
nodes = (
"398 4 LINE",
"387 178 OFFCURVE",
"385 274 OFFCURVE",
"385 351 CURVE",
"385 395 OFFCURVE",
"322 431 OFFCURVE",
"297 440 CURVE",
"271 433 OFFCURVE",
"196 398 OFFCURVE",
"140 358 CURVE",
"154 326 LINE",
"220 358 OFFCURVE",
"285 327 OFFCURVE",
"285 256 CURVE SMOOTH",
"285 151 OFFCURVE",
"286 80 OFFCURVE",
"279 -5 CURVE"
);
}
);
width = 448;
}
);
unicode = E5DC;
},
{
color = 4;
glyphname = n_urrot;
lastChange = "2019-04-11 08:21:59 +0000";
layers = (
{
components = (
{
name = n;
}
);
layerId = "7C1725DE-9D81-4366-9E02-5B418FA849BA";
paths = (
{
closed = 1;
nodes = (
"319 524 LINE",
"269 530 OFFCURVE",
"245 525 OFFCURVE",
"254 582 CURVE SMOOTH",
"259 611 OFFCURVE",
"279 660 OFFCURVE",
"288 694 CURVE",
"278 703 LINE",
"251 701 OFFCURVE",
"153 679 OFFCURVE",
"117 674 CURVE",
"117 642 LINE",
"174 648 OFFCURVE",
"176 645 OFFCURVE",
"174 628 CURVE SMOOTH",
"167 568 OFFCURVE",
"161 518 OFFCURVE",
"154 482 CURVE",
"181 488 OFFCURVE",
"301 493 OFFCURVE",
"318 494 CURVE"
);
}
);
width = 448;
}
);
},
{
color = 4;
glyphname = n_i;
lastChange = "2019-04-11 12:32:44 +0000";
layers = (
{
layerId = "7C1725DE-9D81-4366-9E02-5B418FA849BA";
paths = (
{
closed = 1;
nodes = (
"61 -10 LINE",
"168 11 LINE",
"162 74 OFFCURVE",
"159 114 OFFCURVE",
"159 203 CURVE SMOOTH",
"159 280 OFFCURVE",
"159 358 OFFCURVE",
"159 435 CURVE",
"148 440 LINE",
"56 384 LINE",
"62 316 OFFCURVE",
"59 247 OFFCURVE",
"59 179 CURVE SMOOTH",
"59 86 OFFCURVE",
"56 27 OFFCURVE",
"53 -5 CURVE"
);
},
{
closed = 1;
nodes = (
"252 -10 LINE",
"305 5 OFFCURVE",
"357 16 OFFCURVE",
"410 21 CURVE",
"410 54 LINE",
"373 62 OFFCURVE",
"370 71 OFFCURVE",
"367 108 CURVE SMOOTH",
"361 185 OFFCURVE",
"367 273 OFFCURVE",
"367 350 CURVE",
"367 394 OFFCURVE",
"304 431 OFFCURVE",
"279 440 CURVE",
"253 433 OFFCURVE",
"178 388 OFFCURVE",
"140 348 CURVE",
"154 316 LINE",
"175 330 OFFCURVE",
"188 340 OFFCURVE",
"212 340 CURVE SMOOTH",
"260 340 OFFCURVE",
"269 306 OFFCURVE",
"269 248 CURVE SMOOTH",
"269 173 OFFCURVE",
"265 81 OFFCURVE",
"246 -5 CURVE"
);
},
{
closed = 1;
nodes = (
"569 80 OFFCURVE",
"569 83 OFFCURVE",
"570 140 CURVE SMOOTH",
"571 206 OFFCURVE",
"572 288 OFFCURVE",
"576 377 CURVE",
"558 408 OFFCURVE",
"542 426 OFFCURVE",
"499 441 CURVE",
"351 342 LINE",
"363 302 LINE",
"386 327 OFFCURVE",
"407 336 OFFCURVE",
"426 336 CURVE SMOOTH",
"460 336 OFFCURVE",
"477 293 OFFCURVE",
"477 222 CURVE SMOOTH",
"477 145 OFFCURVE",
"472 102 OFFCURVE",
"462 9 CURVE",
"468 3 OFFCURVE",
"492 -4 OFFCURVE",
"506 -10 CURVE",
"536 3 OFFCURVE",
"565 14 OFFCURVE",
"600 26 CURVE",
"600 50 LINE"
);
},
{
closed = 1;
nodes = (
"535 532 LINE",
"602 629 LINE",
"602 637 LINE",
"540 638 LINE",
"504 530 LINE"
);
}
);
width = 612;
}
);
leftMetricsKey = n.calt;
rightMetricsKey = i;
},
{
color = 4;
glyphname = o;
lastChange = "2019-05-23 17:04:36 +0000";
layers = (
{
layerId = "7C1725DE-9D81-4366-9E02-5B418FA849BA";
paths = (
{
closed = 1;
nodes = (
"17 118 OFFCURVE",
"63 25 OFFCURVE",
"220 -10 CURVE",
"291 24 OFFCURVE",
"350 69 OFFCURVE",
"385 122 CURVE",
"445 267 OFFCURVE",
"374 440 OFFCURVE",
"230 440 CURVE SMOOTH",
"131 440 OFFCURVE",
"34 328 OFFCURVE",
"20 245 CURVE"
);
},
{
closed = 1;
nodes = (
"103 172 OFFCURVE",
"103 259 CURVE SMOOTH",
"103 284 OFFCURVE",
"106 317 OFFCURVE",
"118 335 CURVE",
"128 345 OFFCURVE",
"150 353 OFFCURVE",
"174 353 CURVE SMOOTH",
"243 353 OFFCURVE",
"316 296 OFFCURVE",
"316 192 CURVE SMOOTH",
"316 161 OFFCURVE",
"308 106 OFFCURVE",
"281 89 CURVE",
"154 76 OFFCURVE"
);
}
);
width = 426;
}
);
unicode = 006F;
},
{
color = 4;
glyphname = o_macr;
lastChange = "2019-04-15 11:08:30 +0000";
layers = (
{
components = (
{
name = o;
}
);
layerId = "7C1725DE-9D81-4366-9E02-5B418FA849BA";
paths = (
{
closed = 1;
nodes = (
"308 562 OFFCURVE",
"346 595 OFFCURVE",
"373 637 CURVE",
"374 650 OFFCURVE",
"363 665 OFFCURVE",
"357 667 CURVE",
"325 637 LINE",
"333 633 OFFCURVE",
"339 627 OFFCURVE",
"339 620 CURVE",
"313 608 OFFCURVE",
"307 620 OFFCURVE",
"198 629 CURVE",
"183 618 OFFCURVE",
"152 583 OFFCURVE",
"111 548 CURVE",
"129 535 LINE",
"176 549 OFFCURVE",
"191 550 OFFCURVE",
"282 536 CURVE"
);
}
);
width = 426;
}
);
leftMetricsKey = o;
rightMetricsKey = o;
unicode = 014D;
},
{
color = 4;
glyphname = p;
lastChange = "2019-05-23 17:04:36 +0000";
layers = (
{
layerId = "7C1725DE-9D81-4366-9E02-5B418FA849BA";
paths = (
{
closed = 1;
nodes = (
"148 329 LINE",
"164 338 OFFCURVE",
"185 348 OFFCURVE",
"217 348 CURVE SMOOTH",
"351 348 OFFCURVE",
"404 153 OFFCURVE",
"309 67 CURVE",
"255 67 OFFCURVE",
"175 85 OFFCURVE",
"145 101 CURVE",
"139 3 LINE",
"180 -4 OFFCURVE",
"228 -10 OFFCURVE",
"261 -10 CURVE",
"329 22 OFFCURVE",
"441 107 OFFCURVE",
"441 237 CURVE SMOOTH",
"441 349 OFFCURVE",
"372 430 OFFCURVE",
"275 441 CURVE",
"229 418 OFFCURVE",
"182 391 OFFCURVE",
"148 367 CURVE"
);
},
{
closed = 1;
nodes = (
"154 359 LINE",
"152 386 OFFCURVE",
"139 413 OFFCURVE",
"108 440 CURVE",
"10 376 LINE",
"10 347 LINE",
"35 340 OFFCURVE",
"50 325 OFFCURVE",
"50 279 CURVE SMOOTH",
"50 78 OFFCURVE",
"44 -139 OFFCURVE",
"36 -340 CURVE",
"158 -314 LINE",
"156 -295 OFFCURVE",
"142 -99 OFFCURVE",
"145 27 CURVE SMOOTH"
);
}
);
width = 461;
}
);
leftMetricsKey = n;
rightMetricsKey = o;
unicode = 0070;
},
{
color = 4;
glyphname = p.calt;
lastChange = "2019-05-23 17:04:36 +0000";
layers = (
{
layerId = "7C1725DE-9D81-4366-9E02-5B418FA849BA";
paths = (
{
closed = 1;
nodes = (
"165 329 LINE",
"181 338 OFFCURVE",
"192 348 OFFCURVE",
"224 348 CURVE SMOOTH",
"358 348 OFFCURVE",
"411 153 OFFCURVE",
"316 67 CURVE",
"262 67 OFFCURVE",
"192 80 OFFCURVE",
"162 96 CURVE",
"156 3 LINE",
"197 -4 OFFCURVE",
"235 -10 OFFCURVE",
"268 -10 CURVE",
"336 22 OFFCURVE",
"448 107 OFFCURVE",
"448 237 CURVE SMOOTH",
"448 349 OFFCURVE",
"379 430 OFFCURVE",
"282 441 CURVE",
"236 418 OFFCURVE",
"199 391 OFFCURVE",
"165 367 CURVE"
);
},
{
closed = 1;
nodes = (
"171 430 LINE",
"164 440 LINE",
"53 385 LINE",
"68 246 OFFCURVE",
"65 -43 OFFCURVE",
"53 -340 CURVE",
"175 -314 LINE",
"173 -295 OFFCURVE",
"159 -99 OFFCURVE",
"162 27 CURVE SMOOTH"
);
}
);
width = 468;
}
);
leftMetricsKey = m.calt;
rightMetricsKey = p;
},
{
color = 4;
glyphname = p_bardes;
lastChange = "2019-05-23 17:04:36 +0000";
layers = (
{
components = (
{
name = p;
transform = "{1, 0, 0, 1, 34, 0}";
}
);
layerId = "7C1725DE-9D81-4366-9E02-5B418FA849BA";
paths = (
{
closed = 1;
nodes = (
"10 -169 LINE",
"26 -191 LINE",
"153 -182 OFFCURVE",
"287 -203 OFFCURVE",
"395 -249 CURVE",
"430 -235 LINE",
"432 -228 LINE",
"334 -180 OFFCURVE",
"171 -123 OFFCURVE",
"34 -117 CURVE"
);
}
);
width = 495;
}
);
leftMetricsKey = p;
rightMetricsKey = p;
unicode = A751;
},
{
color = 4;
glyphname = p_flour;
lastChange = "2019-05-23 17:04:36 +0000";
layers = (
{
components = (
{
name = p;
transform = "{1, 0, 0, 1, 174, 0}";
}
);
layerId = "7C1725DE-9D81-4366-9E02-5B418FA849BA";
paths = (
{
closed = 1;
nodes = (
"197 21 LINE SMOOTH",
"40 21 OFFCURVE",
"-30 -16 OFFCURVE",
"-30 -82 CURVE SMOOTH",
"-30 -147 OFFCURVE",
"80 -179 OFFCURVE",
"80 -232 CURVE SMOOTH",
"80 -250 OFFCURVE",
"74 -262 OFFCURVE",
"53 -262 CURVE SMOOTH",
"36 -262 OFFCURVE",
"10 -245 OFFCURVE",
"-5 -227 CURVE",
"-20 -233 LINE",
"-15 -280 OFFCURVE",
"-8 -340 OFFCURVE",
"5 -340 CURVE",
"35 -337 LINE",
"71 -302 OFFCURVE",
"150 -254 OFFCURVE",
"150 -177 CURVE SMOOTH",
"150 -126 OFFCURVE",
"70 -97 OFFCURVE",
"70 -64 CURVE SMOOTH",
"70 -25 OFFCURVE",
"141 -4 OFFCURVE",
"280 -9 CURVE",
"281 21 LINE"
);
}
);
width = 635;
}
);
rightMetricsKey = p;
unicode = A752;
},
{
color = 4;
glyphname = p_macr;
lastChange = "2019-04-15 11:07:28 +0000";
layers = (
{
components = (
{
name = p;
}
);
layerId = "7C1725DE-9D81-4366-9E02-5B418FA849BA";
paths = (
{
closed = 1;
nodes = (
"148 593 OFFCURVE",
"133 570 OFFCURVE",
"110 524 CURVE",
"143 514 LINE",
"187 566 OFFCURVE",
"231 554 OFFCURVE",
"307 561 CURVE",
"324 581 OFFCURVE",
"342 604 OFFCURVE",
"375 655 CURVE",
"345 663 LINE",
"308 637 OFFCURVE",
"269 638 OFFCURVE",
"186 636 CURVE"
);
}
);
width = 461;
}
);
leftMetricsKey = p;
rightMetricsKey = p;
},
{
color = 4;
glyphname = p_urrot;
lastChange = "2019-05-23 17:04:36 +0000";
layers = (
{
components = (
{
name = p;
}
);
layerId = "7C1725DE-9D81-4366-9E02-5B418FA849BA";
paths = (
{
closed = 1;
nodes = (
"263 532 LINE",
"213 530 OFFCURVE",
"203 526 OFFCURVE",
"211 575 CURVE",
"216 605 OFFCURVE",
"227 655 OFFCURVE",
"231 690 CURVE",
"220 698 LINE",
"194 692 OFFCURVE",
"98 666 OFFCURVE",
"63 656 CURVE",
"67 624 LINE",
"124 629 OFFCURVE",
"125 627 OFFCURVE",
"127 580 CURVE SMOOTH",
"128 550 OFFCURVE",
"127 520 OFFCURVE",
"124 483 CURVE",
"134 474 LINE",
"174 486 OFFCURVE",
"254 500 OFFCURVE",
"266 502 CURVE"
);
}
);
width = 461;
}
);
leftMetricsKey = p;
rightMetricsKey = p;
},
{
color = 4;
glyphname = q;
lastChange = "2019-05-23 17:04:36 +0000";
layers = (
{
layerId = "7C1725DE-9D81-4366-9E02-5B418FA849BA";
paths = (
{
closed = 1;
nodes = (
"315 79 LINE",
"191 65 OFFCURVE",
"107 124 OFFCURVE",
"107 261 CURVE SMOOTH",
"107 317 OFFCURVE",
"139 361 OFFCURVE",
"190 361 CURVE SMOOTH",
"241 361 OFFCURVE",
"307 334 OFFCURVE",
"307 193 CURVE SMOOTH",
"307 69 OFFCURVE",
"298 -157 OFFCURVE",
"287 -340 CURVE",
"410 -308 LINE",
"399 -121 OFFCURVE",
"386 384 OFFCURVE",
"414 452 CURVE",
"395 460 LINE",
"361 423 LINE",
"334 432 OFFCURVE",
"293 440 OFFCURVE",
"249 440 CURVE SMOOTH",
"139 440 OFFCURVE",
"20 300 OFFCURVE",
"20 191 CURVE SMOOTH",
"20 74 OFFCURVE",
"78 10 OFFCURVE",
"185 -10 CURVE",
"314 43 LINE"
);
}
);
width = 440;
}
);
leftMetricsKey = o;
unicode = 0071;
},
{
color = 4;
glyphname = q_bardes;
lastChange = "2019-05-23 17:04:36 +0000";
layers = (
{
components = (
{
name = q;
}
);
layerId = "7C1725DE-9D81-4366-9E02-5B418FA849BA";
paths = (
{
closed = 1;
nodes = (
"293 -120 OFFCURVE",
"186 -161 OFFCURVE",
"90 -212 CURVE",
"64 -269 LINE",
"75 -274 LINE",
"153 -223 OFFCURVE",
"296 -178 OFFCURVE",
"423 -183 CURVE",
"433 -175 LINE",
"429 -109 LINE"
);
}
);
width = 459;
}
);
leftMetricsKey = q;
rightMetricsKey = q;
unicode = A757;
},
{
color = 4;
glyphname = q_bardes_ra;
lastChange = "2019-04-23 10:19:23 +0000";
layers = (
{
components = (
{
name = q_ra;
}
);
layerId = "7C1725DE-9D81-4366-9E02-5B418FA849BA";
paths = (
{
closed = 1;
nodes = (
"293 -120 OFFCURVE",
"226 -146 OFFCURVE",
"130 -197 CURVE",
"64 -269 LINE",
"79 -285 LINE",
"157 -234 OFFCURVE",
"296 -178 OFFCURVE",
"423 -183 CURVE",
"433 -175 LINE",
"429 -109 LINE"
);
}
);
width = 440;
}
);
widthMetricsKey = q;
unicode = E68B;
},
{
color = 4;
glyphname = q_etfin;
lastChange = "2019-05-23 17:04:36 +0000";
layers = (
{
layerId = "7C1725DE-9D81-4366-9E02-5B418FA849BA";
paths = (
{
closed = 1;
nodes = (
"404 309 OFFCURVE",
"466 305 OFFCURVE",
"466 265 CURVE SMOOTH",
"466 211 OFFCURVE",
"427 183 OFFCURVE",
"362 140 CURVE",
"362 118 LINE",
"445 130 OFFCURVE",
"481 101 OFFCURVE",
"481 52 CURVE SMOOTH",
"481 -28 OFFCURVE",
"436 -98 OFFCURVE",
"349 -174 CURVE",
"363 -210 LINE",
"486 -99 OFFCURVE",
"579 41 OFFCURVE",
"579 121 CURVE SMOOTH",
"579 191 OFFCURVE",
"526 200 OFFCURVE",
"465 202 CURVE",
"457 177 LINE",
"505 245 OFFCURVE",
"566 264 OFFCURVE",
"566 338 CURVE SMOOTH",
"566 380 OFFCURVE",
"533 410 OFFCURVE",
"502 431 CURVE",
"445 389 OFFCURVE",
"408 343 OFFCURVE",
"355 303 CURVE",
"361 283 LINE"
);
},
{
closed = 1;
nodes = (
"292 89 LINE",
"168 75 OFFCURVE",
"88 117 OFFCURVE",
"88 254 CURVE SMOOTH",
"88 319 OFFCURVE",
"117 361 OFFCURVE",
"160 361 CURVE SMOOTH",
"220 361 OFFCURVE",
"284 334 OFFCURVE",
"284 193 CURVE SMOOTH",
"284 88 OFFCURVE",
"277 -89 OFFCURVE",
"269 -253 CURVE SMOOTH",
"267 -292 OFFCURVE",
"265 -292 OFFCURVE",
"234 -309 CURVE",
"235 -339 LINE",
"300 -330 OFFCURVE",
"363 -323 OFFCURVE",
"419 -320 CURVE",
"417 -289 LINE",
"385 -283 OFFCURVE",
"383 -286 OFFCURVE",
"380 -211 CURVE SMOOTH",
"375 -80 OFFCURVE",
"371 160 OFFCURVE",
"378 303 CURVE SMOOTH",
"382 380 OFFCURVE",
"389 388 OFFCURVE",
"410 452 CURVE",
"392 462 LINE",
"363 445 OFFCURVE",
"345 432 OFFCURVE",
"316 423 CURVE",
"289 432 OFFCURVE",
"270 440 OFFCURVE",
"226 440 CURVE SMOOTH",
"116 440 OFFCURVE",
"20 322 OFFCURVE",
"20 191 CURVE SMOOTH",
"20 84 OFFCURVE",
"55 10 OFFCURVE",
"162 -10 CURVE",
"291 53 LINE"
);
}
);
width = 609;
}
);
leftMetricsKey = q;
rightMetricsKey = etfin;
unicode = E8BF;
},
{
color = 4;
glyphname = q_ra;
lastChange = "2019-05-23 17:04:36 +0000";
layers = (
{
components = (
{
name = q;
}
);
layerId = "7C1725DE-9D81-4366-9E02-5B418FA849BA";
paths = (
{
closed = 1;
nodes = (
"172.153 653 LINE",
"133.769 630 OFFCURVE",
"132.809 588 OFFCURVE",
"171.194 588 CURVE SMOOTH",
"194.224 588 OFFCURVE",
"223.972 595 OFFCURVE",
"266.195 646 CURVE SMOOTH",
"283.468 667 LINE",
"306.499 659 LINE",
"281.549 620 OFFCURVE",
"280.589 588 OFFCURVE",
"318.014 588 CURVE SMOOTH",
"355.439 588 OFFCURVE",
"390.944 609 OFFCURVE",
"426.45 648 CURVE",
"451.4 635 LINE",
"413.975 584 OFFCURVE",
"341.045 511 OFFCURVE",
"278.67 511 CURVE SMOOTH",
"247.003 511 OFFCURVE",
"225.891 538 OFFCURVE",
"218.214 560 CURVE",
"191.345 541 OFFCURVE",
"148.163 511 OFFCURVE",
"111.698 511 CURVE SMOOTH",
"84.829 511 OFFCURVE",
"62.758 523 OFFCURVE",
"62.758 562 CURVE SMOOTH",
"62.758 588 OFFCURVE",
"97.304 637 OFFCURVE",
"156.799 667 CURVE"
);
}
);
width = 477;
}
);
leftMetricsKey = q;
rightMetricsKey = q;
},
{
color = 4;
glyphname = q_ring;
lastChange = "2019-04-23 18:39:15 +0000";
layers = (
{
layerId = "7C1725DE-9D81-4366-9E02-5B418FA849BA";
paths = (
{
closed = 1;
nodes = (
"292 89 LINE",
"168 75 OFFCURVE",
"88 117 OFFCURVE",
"88 254 CURVE SMOOTH",
"88 319 OFFCURVE",
"117 361 OFFCURVE",
"160 361 CURVE SMOOTH",
"211 361 OFFCURVE",
"284 334 OFFCURVE",
"284 193 CURVE SMOOTH",
"284 69 OFFCURVE",
"275 -157 OFFCURVE",
"264 -340 CURVE",
"387 -308 LINE",
"376 -121 OFFCURVE",
"363 384 OFFCURVE",
"391 452 CURVE",
"372 460 LINE",
"338 423 LINE",
"311 432 OFFCURVE",
"270 440 OFFCURVE",
"226 440 CURVE SMOOTH",
"116 440 OFFCURVE",
"20 340 OFFCURVE",
"20 191 CURVE SMOOTH",
"20 74 OFFCURVE",
"55 10 OFFCURVE",
"162 -10 CURVE",
"291 53 LINE"
);
},
{
closed = 1;
nodes = (
"373 720 OFFCURVE",
"424 683 OFFCURVE",
"424 606 CURVE SMOOTH",
"424 533 OFFCURVE",
"348 487 OFFCURVE",
"275 487 CURVE SMOOTH",
"198 487 OFFCURVE",
"148 530 OFFCURVE",
"148 600 CURVE SMOOTH",
"148 660 OFFCURVE",
"203 720 OFFCURVE",
"297 720 CURVE SMOOTH"
);
},
{
closed = 1;
nodes = (
"329 525 OFFCURVE",
"345 551 OFFCURVE",
"345 585 CURVE SMOOTH",
"345 632 OFFCURVE",
"318 680 OFFCURVE",
"270 680 CURVE SMOOTH",
"236 680 OFFCURVE",
"224 652 OFFCURVE",
"224 617 CURVE SMOOTH",
"224 575 OFFCURVE",
"258 525 OFFCURVE",
"303 525 CURVE SMOOTH"
);
}
);
width = 440;
}
);
leftMetricsKey = q;
widthMetricsKey = q;
},
{
color = 4;
glyphname = q_strok;
lastChange = "2019-04-11 12:36:31 +0000";
layers = (
{
components = (
{
name = q;
}
);
layerId = "7C1725DE-9D81-4366-9E02-5B418FA849BA";
paths = (
{
closed = 1;
nodes = (
"387 286 LINE",
"460 331 OFFCURVE",
"514 291 OFFCURVE",
"514 211 CURVE SMOOTH",
"514 52 OFFCURVE",
"283 -114 OFFCURVE",
"84 -227 CURVE",
"105 -269 LINE",
"281 -153 OFFCURVE",
"608 50 OFFCURVE",
"608 279 CURVE SMOOTH",
"608 354 OFFCURVE",
"583 412 OFFCURVE",
"508 440 CURVE",
"372 303 LINE"
);
}
);
width = 628;
}
);
leftMetricsKey = q;
rightMetricsKey = o;
unicode = A759;
},
{
color = 4;
glyphname = q_strok_macr;
lastChange = "2019-04-11 12:36:31 +0000";
layers = (
{
components = (
{
name = q_strok;
}
);
layerId = "7C1725DE-9D81-4366-9E02-5B418FA849BA";
paths = (
{
closed = 1;
nodes = (
"504 564 OFFCURVE",
"543 601 OFFCURVE",
"595 649 CURVE",
"567 661 LINE",
"507 614 OFFCURVE",
"493 624 OFFCURVE",
"313 627 CURVE",
"298 613 OFFCURVE",
"231 558 OFFCURVE",
"205 524 CURVE",
"226 511 LINE",
"274 540 OFFCURVE",
"311 541 OFFCURVE",
"478 534 CURVE"
);
}
);
width = 628;
}
);
leftMetricsKey = q;
rightMetricsKey = o;
},
{
color = 4;
glyphname = q_urrot;
lastChange = "2019-04-11 12:36:31 +0000";
layers = (
{
components = (
{
name = q;
}
);
layerId = "7C1725DE-9D81-4366-9E02-5B418FA849BA";
paths = (
{
closed = 1;
nodes = (
"353 532 LINE",
"303 530 OFFCURVE",
"293 526 OFFCURVE",
"301 575 CURVE SMOOTH",
"306 605 OFFCURVE",
"317 655 OFFCURVE",
"321 690 CURVE",
"310 698 LINE",
"284 692 OFFCURVE",
"188 666 OFFCURVE",
"153 656 CURVE",
"157 624 LINE",
"214 629 OFFCURVE",
"215 627 OFFCURVE",
"217 580 CURVE SMOOTH",
"218 550 OFFCURVE",
"217 520 OFFCURVE",
"214 483 CURVE",
"224 474 LINE",
"264 486 OFFCURVE",
"344 500 OFFCURVE",
"356 502 CURVE"
);
}
);
width = 440;
}
);
leftMetricsKey = q;
rightMetricsKey = q;
},
{
color = 4;
glyphname = r;
lastChange = "2019-05-23 17:04:36 +0000";
layers = (
{
layerId = "7C1725DE-9D81-4366-9E02-5B418FA849BA";
paths = (
{
closed = 1;
nodes = (
"153 340 LINE",
"153 430 LINE",
"146 440 LINE",
"15 376 LINE",
"15 348 LINE",
"48 335 OFFCURVE",
"61 317 OFFCURVE",
"61 279 CURVE SMOOTH",
"61 204 OFFCURVE",
"60 83 OFFCURVE",
"55 -5 CURVE",
"167 11 LINE",
"161 89 OFFCURVE",
"159 227 OFFCURVE",
"159 327 CURVE"
);
},
{
closed = 1;
nodes = (
"135 300 LINE",
"139 315 OFFCURVE",
"161 332 OFFCURVE",
"180 332 CURVE SMOOTH",
"204 332 OFFCURVE",
"238 299 OFFCURVE",
"261 274 CURVE",
"344 367 LINE",
"318 396 OFFCURVE",
"285 424 OFFCURVE",
"259 440 CURVE",
"255 440 LINE",
"223 404 OFFCURVE",
"180 375 OFFCURVE",
"128 349 CURVE"
);
}
);
width = 324;
}
);
unicode = 0072;
},
{
color = 4;
glyphname = r.calt;
lastChange = "2019-04-11 12:36:31 +0000";
layers = (
{
layerId = "7C1725DE-9D81-4366-9E02-5B418FA849BA";
paths = (
{
closed = 1;
nodes = (
"131 11 LINE",
"127 62 OFFCURVE",
"123 146 OFFCURVE",
"123 203 CURVE SMOOTH",
"123 429 LINE",
"114 440 LINE",
"19 403 LINE",
"23 328 OFFCURVE",
"23 254 OFFCURVE",
"23 179 CURVE SMOOTH",
"23 106 OFFCURVE",
"18 27 OFFCURVE",
"15 -5 CURVE"
);
},
{
closed = 1;
nodes = (
"98 300 LINE",
"102 315 OFFCURVE",
"124 332 OFFCURVE",
"143 332 CURVE SMOOTH",
"167 332 OFFCURVE",
"201 299 OFFCURVE",
"224 274 CURVE",
"307 367 LINE",
"281 396 OFFCURVE",
"248 424 OFFCURVE",
"222 440 CURVE",
"218 440 LINE",
"186 404 OFFCURVE",
"143 375 OFFCURVE",
"91 349 CURVE"
);
}
);
width = 287;
}
);
leftMetricsKey = r;
rightMetricsKey = r;
},
{
color = 4;
glyphname = r_macr;
lastChange = "2019-04-15 11:06:44 +0000";
layers = (
{
components = (
{
name = r;
}
);
layerId = "7C1725DE-9D81-4366-9E02-5B418FA849BA";
paths = (
{
closed = 1;
nodes = (
"261 524 OFFCURVE",
"302 560 OFFCURVE",
"331 605 CURVE",
"332 619 OFFCURVE",
"317 633 OFFCURVE",
"311 635 CURVE",
"279 605 LINE",
"288 600 OFFCURVE",
"294 594 OFFCURVE",
"294 586 CURVE",
"267 573 OFFCURVE",
"249 586 OFFCURVE",
"133 596 CURVE",
"117 584 OFFCURVE",
"62 532 OFFCURVE",
"18 501 CURVE",
"37 487 LINE",
"88 512 OFFCURVE",
"125 511 OFFCURVE",
"233 496 CURVE"
);
}
);
width = 324;
}
);
leftMetricsKey = r;
rightMetricsKey = r;
},
{
color = 4;
glyphname = r_a;
lastChange = "2019-05-23 17:04:36 +0000";
layers = (
{
layerId = "7C1725DE-9D81-4366-9E02-5B418FA849BA";
paths = (
{
closed = 1;
nodes = (
"259 362 OFFCURVE",
"349 432 OFFCURVE",
"389 440 CURVE",
"453 440 OFFCURVE",
"496 418 OFFCURVE",
"496 341 CURVE SMOOTH",
"496 296 OFFCURVE",
"491 271 OFFCURVE",
"491 196 CURVE SMOOTH",
"491 168 OFFCURVE",
"496 108 OFFCURVE",
"512 84 CURVE",
"512 64 LINE",
"419 -13 LINE",
"406 -9 LINE",
"395 89 LINE",
"395 101 OFFCURVE",
"398 274 OFFCURVE",
"398 284 CURVE SMOOTH",
"398 316 OFFCURVE",
"398 360 OFFCURVE",
"335 360 CURVE SMOOTH",
"298 360 OFFCURVE",
"276 344 OFFCURVE",
"242 306 CURVE",
"235 341 LINE"
);
},
{
closed = 1;
nodes = (
"345 221 OFFCURVE",
"274 178 OFFCURVE",
"274 141 CURVE SMOOTH",
"274 112 OFFCURVE",
"301 99 OFFCURVE",
"327 99 CURVE SMOOTH",
"353 99 OFFCURVE",
"388 123 OFFCURVE",
"427 168 CURVE",
"427 121 LINE",
"384 89 OFFCURVE",
"307 -8 OFFCURVE",
"259 -8 CURVE SMOOTH",
"187 -8 OFFCURVE",
"180 104 OFFCURVE",
"185 135 CURVE",
"218 188 OFFCURVE",
"331 249 OFFCURVE",
"413 292 CURVE",
"413 249 LINE"
);
},
{
closed = 1;
nodes = (
"18 27 OFFCURVE",
"23 106 OFFCURVE",
"23 179 CURVE SMOOTH",
"23 251 OFFCURVE",
"21 323 OFFCURVE",
"18 395 CURVE",
"114 440 LINE",
"123 429 LINE",
"123 203 LINE SMOOTH",
"123 146 OFFCURVE",
"127 62 OFFCURVE",
"131 11 CURVE",
"15 -5 LINE"
);
},
{
closed = 1;
nodes = (
"133 355 OFFCURVE",
"176 404 OFFCURVE",
"208 440 CURVE",
"212 440 LINE",
"238 424 OFFCURVE",
"271 396 OFFCURVE",
"297 367 CURVE",
"214 274 LINE",
"191 299 OFFCURVE",
"157 324 OFFCURVE",
"133 324 CURVE SMOOTH",
"114 324 OFFCURVE",
"92 295 OFFCURVE",
"88 280 CURVE",
"81 329 LINE"
);
}
);
width = 522;
}
);
leftMetricsKey = r.calt;
rightMetricsKey = a;
},
{
color = 4;
glyphname = r_i;
lastChange = "2019-04-11 12:36:31 +0000";
layers = (
{
components = (
{
name = i.calt;
transform = "{1, 0, 0, 1, 241, 0}";
}
);
layerId = "7C1725DE-9D81-4366-9E02-5B418FA849BA";
paths = (
{
closed = 1;
nodes = (
"131 11 LINE",
"127 62 OFFCURVE",
"123 146 OFFCURVE",
"123 203 CURVE SMOOTH",
"123 429 LINE",
"114 440 LINE",
"18 395 LINE",
"21 323 OFFCURVE",
"23 251 OFFCURVE",
"23 179 CURVE SMOOTH",
"23 106 OFFCURVE",
"18 27 OFFCURVE",
"15 -5 CURVE"
);
},
{
closed = 1;
nodes = (
"98 290 LINE",
"102 305 OFFCURVE",
"124 324 OFFCURVE",
"143 324 CURVE SMOOTH",
"167 324 OFFCURVE",
"201 299 OFFCURVE",
"224 274 CURVE",
"325 367 LINE",
"299 396 OFFCURVE",
"266 424 OFFCURVE",
"240 440 CURVE",
"236 440 LINE",
"204 404 OFFCURVE",
"143 365 OFFCURVE",
"91 339 CURVE"
);
}
);
width = 437;
}
);
leftMetricsKey = r.calt;
rightMetricsKey = i;
},
{
color = 4;
glyphname = s;
lastChange = "2019-05-23 17:04:36 +0000";
layers = (
{
layerId = "7C1725DE-9D81-4366-9E02-5B418FA849BA";
paths = (
{
closed = 1;
nodes = (
"142 440 OFFCURVE",
"20 366 OFFCURVE",
"20 296 CURVE SMOOTH",
"20 235 OFFCURVE",
"61 213 OFFCURVE",
"142 194 CURVE SMOOTH",
"213 177 OFFCURVE",
"270 153 OFFCURVE",
"270 110 CURVE SMOOTH",
"270 63 OFFCURVE",
"236 50 OFFCURVE",
"206 50 CURVE SMOOTH",
"156 50 OFFCURVE",
"101 73 OFFCURVE",
"94 109 CURVE",
"67 114 LINE",
"21 21 LINE",
"64 5 OFFCURVE",
"111 -10 OFFCURVE",
"178 -10 CURVE SMOOTH",
"257 -10 OFFCURVE",
"357 73 OFFCURVE",
"357 151 CURVE SMOOTH",
"357 244 OFFCURVE",
"281 269 OFFCURVE",
"202 280 CURVE SMOOTH",
"153 287 OFFCURVE",
"95 302 OFFCURVE",
"95 337 CURVE SMOOTH",
"95 362 OFFCURVE",
"122 372 OFFCURVE",
"147 372 CURVE SMOOTH",
"178 372 OFFCURVE",
"209 354 OFFCURVE",
"224 333 CURVE",
"233 333 LINE",
"312 393 LINE",
"312 401 LINE",
"298 416 OFFCURVE",
"251 440 OFFCURVE",
"204 440 CURVE SMOOTH"
);
}
);
width = 377;
}
);
unicode = 0073;
},
{
color = 4;
glyphname = longs;
lastChange = "2019-04-23 10:19:20 +0000";
layers = (
{
layerId = "7C1725DE-9D81-4366-9E02-5B418FA849BA";
paths = (
{
closed = 1;
nodes = (
"383 661 LINE",
"352 629 OFFCURVE",
"332 611 OFFCURVE",
"316 587 CURVE",
"273 609 OFFCURVE",
"221 628 OFFCURVE",
"187 628 CURVE",
"170 600 OFFCURVE",
"153 548 OFFCURVE",
"152 475 CURVE SMOOTH",
"149 272 OFFCURVE",
"155 123 OFFCURVE",
"161 21 CURVE",
"64 -12 LINE",
"49 -5 LINE",
"51 10 OFFCURVE",
"56 90 OFFCURVE",
"56 189 CURVE SMOOTH",
"56 280 OFFCURVE",
"58 357 OFFCURVE",
"45 447 CURVE",
"45 463 LINE",
"76 549 OFFCURVE",
"119 633 OFFCURVE",
"222 710 CURVE",
"271 710 OFFCURVE",
"328 692 OFFCURVE",
"383 668 CURVE"
);
}
);
width = 273;
}
);
unicode = 017F;
},
{
color = 4;
glyphname = longs_etfin;
lastChange = "2019-04-11 10:22:29 +0000";
layers = (
{
layerId = "7C1725DE-9D81-4366-9E02-5B418FA849BA";
paths = (
{
closed = 1;
nodes = (
"316 697 OFFCURVE",
"282 706 OFFCURVE",
"251 710 CURVE",
"211 707 OFFCURVE",
"113 609 OFFCURVE",
"77 575 CURVE",
"55 536 OFFCURVE",
"85 405 OFFCURVE",
"45 376 CURVE",
"45 361 LINE",
"79 319 OFFCURVE",
"70 310 OFFCURVE",
"70 176 CURVE SMOOTH",
"70 67 OFFCURVE",
"64 61 OFFCURVE",
"63 -5 CURVE",
"175 22 LINE",
"169 216 OFFCURVE",
"161 380 OFFCURVE",
"161 520 CURVE SMOOTH",
"161 559 OFFCURVE",
"164 599 OFFCURVE",
"171 620 CURVE",
"216 620 OFFCURVE",
"240 609 OFFCURVE",
"262 605 CURVE",
"358 664 LINE",
"358 680 LINE"
);
},
{
closed = 1;
nodes = (
"210 371 LINE",
"316 440 LINE",
"361 421 OFFCURVE",
"417 394 OFFCURVE",
"417 338 CURVE SMOOTH",
"417 266 OFFCURVE",
"339 200 OFFCURVE",
"294 148 CURVE",
"284 169 LINE",
"380 143 OFFCURVE",
"417 102 OFFCURVE",
"417 23 CURVE SMOOTH",
"417 -72 OFFCURVE",
"328 -219 OFFCURVE",
"175 -340 CURVE",
"164 -331 LINE",
"185 -264 LINE",
"261 -229 OFFCURVE",
"327 -147 OFFCURVE",
"327 -48 CURVE SMOOTH",
"327 9 OFFCURVE",
"298 68 OFFCURVE",
"212 97 CURVE",
"210 112 LINE",
"291 190 OFFCURVE",
"312 221 OFFCURVE",
"312 258 CURVE SMOOTH",
"312 304 OFFCURVE",
"279 343 OFFCURVE",
"217 347 CURVE"
);
}
);
width = 447;
}
);
leftMetricsKey = longs;
rightMetricsKey = etfin;
},
{
color = 4;
glyphname = longs_b_stock;
lastChange = "2019-04-24 15:12:21 +0000";
layers = (
{
components = (
{
name = b_strok;
transform = "{1, 0, 0, 1, 208, 0}";
}
);
layerId = "7C1725DE-9D81-4366-9E02-5B418FA849BA";
paths = (
{
closed = 1;
nodes = (
"265 716 OFFCURVE",
"208 720 OFFCURVE",
"145 660 CURVE",
"123 621 OFFCURVE",
"85 465 OFFCURVE",
"45 436 CURVE",
"45 421 LINE",
"79 379 OFFCURVE",
"70 370 OFFCURVE",
"70 236 CURVE SMOOTH",
"70 127 OFFCURVE",
"64 61 OFFCURVE",
"63 -5 CURVE",
"178 2 LINE",
"172 196 OFFCURVE",
"164 380 OFFCURVE",
"164 520 CURVE SMOOTH",
"164 559 OFFCURVE",
"167 599 OFFCURVE",
"174 620 CURVE",
"219 620 OFFCURVE",
"243 609 OFFCURVE",
"265 605 CURVE",
"361 700 LINE"
);
}
);
width = 650;
}
);
leftMetricsKey = longs;
rightMetricsKey = b;
},
{
color = 4;
glyphname = longs_strok;
lastChange = "2019-04-11 10:25:41 +0000";
layers = (
{
layerId = "7C1725DE-9D81-4366-9E02-5B418FA849BA";
paths = (
{
closed = 1;
nodes = (
"0 0 LINE",
"65 32 OFFCURVE",
"278 164 OFFCURVE",
"278 294 CURVE SMOOTH",
"278 348 OFFCURVE",
"237 373 OFFCURVE",
"172 381 CURVE",
"172 406 LINE",
"274 440 LINE",
"322 423 OFFCURVE",
"374 383 OFFCURVE",
"374 325 CURVE SMOOTH",
"374 224 OFFCURVE",
"130 27 OFFCURVE",
"6 -53 CURVE",
"-4 -50 LINE"
);
},
{
closed = 1;
nodes = (
"372 669 LINE",
"299 586 LINE",
"287 586 LINE",
"263 618 OFFCURVE",
"231 638 OFFCURVE",
"186 620 CURVE",
"179 599 OFFCURVE",
"176 559 OFFCURVE",
"176 520 CURVE SMOOTH",
"176 390 OFFCURVE",
"184 196 OFFCURVE",
"190 2 CURVE",
"75 -5 LINE",
"76 61 OFFCURVE",
"82 127 OFFCURVE",
"82 236 CURVE SMOOTH",
"82 370 OFFCURVE",
"91 379 OFFCURVE",
"57 421 CURVE",
"57 436 LINE",
"97 465 OFFCURVE",
"90 489 OFFCURVE",
"116 561 CURVE SMOOTH",
"131 602 OFFCURVE",
"174 709 OFFCURVE",
"215 710 CURVE SMOOTH",
"259 711 OFFCURVE",
"324 698 OFFCURVE",
"373 680 CURVE"
);
}
);
width = 391;
}
);
},
{
color = 4;
glyphname = longs_longs;
lastChange = "2019-04-15 11:09:18 +0000";
layers = (
{
layerId = "7C1725DE-9D81-4366-9E02-5B418FA849BA";
paths = (
{
closed = 1;
nodes = (
"344 656 LINE",
"322 577 LINE",
"310 577 LINE",
"276 609 OFFCURVE",
"219 638 OFFCURVE",
"174 620 CURVE",
"167 599 OFFCURVE",
"164 559 OFFCURVE",
"164 520 CURVE SMOOTH",
"164 390 OFFCURVE",
"172 214 OFFCURVE",
"178 20 CURVE",
"63 -17 LINE",
"64 49 OFFCURVE",
"70 127 OFFCURVE",
"70 236 CURVE SMOOTH",
"70 390 OFFCURVE",
"79 399 OFFCURVE",
"45 441 CURVE",
"45 456 LINE",
"85 485 OFFCURVE",
"83 509 OFFCURVE",
"104 561 CURVE SMOOTH",
"120 600 OFFCURVE",
"172 708 OFFCURVE",
"233 710 CURVE SMOOTH",
"267 711 OFFCURVE",
"326 682 OFFCURVE",
"365 661 CURVE"
);
},
{
closed = 1;
nodes = (
"454 586 LINE",
"442 586 LINE",
"418 618 OFFCURVE",
"388 638 OFFCURVE",
"361 620 CURVE",
"354 599 OFFCURVE",
"351 559 OFFCURVE",
"351 520 CURVE SMOOTH",
"351 390 OFFCURVE",
"359 216 OFFCURVE",
"365 22 CURVE",
"250 -25 LINE",
"251 41 OFFCURVE",
"257 127 OFFCURVE",
"257 236 CURVE SMOOTH",
"257 370 OFFCURVE",
"252 372 OFFCURVE",
"228 423 CURVE",
"230 437 LINE",
"272 449 OFFCURVE",
"269 487 OFFCURVE",
"291 561 CURVE SMOOTH",
"302 599 OFFCURVE",
"344 711 OFFCURVE",
"455 700 CURVE"
);
}
);
width = 461;
}
);
leftMetricsKey = longs;
unicode = EBA6;
},
{
color = 4;
glyphname = longs_t;
lastChange = "2019-05-23 17:04:36 +0000";
layers = (
{
layerId = "7C1725DE-9D81-4366-9E02-5B418FA849BA";
paths = (
{
closed = 1;
nodes = (
"352 357 LINE",
"406 359 OFFCURVE",
"461 357 OFFCURVE",
"515 351 CURVE",
"521 437 LINE",
"510 441 LINE",
"458 434 OFFCURVE",
"406 429 OFFCURVE",
"354 430 CURVE"
);
},
{
closed = 1;
nodes = (
"374 203 OFFCURVE",
"376 542 OFFCURVE",
"376 584 CURVE",
"376 636 OFFCURVE",
"323 710 OFFCURVE",
"236 710 CURVE SMOOTH",
"160 710 OFFCURVE",
"83 603 OFFCURVE",
"50 492 CURVE",
"44 394 OFFCURVE",
"45 139 OFFCURVE",
"45 -5 CURVE",
"158 27 LINE",
"160 52 LINE",
"148 63 OFFCURVE",
"144 74 OFFCURVE",
"141 163 CURVE SMOOTH",
"138 263 OFFCURVE",
"125 504 OFFCURVE",
"134 585 CURVE",
"148 618 OFFCURVE",
"169 638 OFFCURVE",
"205 638 CURVE SMOOTH",
"264 638 OFFCURVE",
"287 578 OFFCURVE",
"287 498 CURVE SMOOTH",
"287 405 OFFCURVE",
"285 197 OFFCURVE",
"283 80 CURVE SMOOTH",
"282 20 OFFCURVE",
"323 -10 OFFCURVE",
"363 -10 CURVE SMOOTH",
"400 -10 OFFCURVE",
"479 54 OFFCURVE",
"512 83 CURVE",
"509 112 LINE",
"469 88 OFFCURVE",
"452 85 OFFCURVE",
"430 85 CURVE SMOOTH",
"389 85 OFFCURVE",
"374 110 OFFCURVE",
"374 166 CURVE SMOOTH"
);
}
);
width = 537;
}
);
leftMetricsKey = longs;
rightMetricsKey = t;
unicode = FB05;
},
{
color = 4;
glyphname = t;
lastChange = "2019-04-08 13:58:11 +0000";
layers = (
{
layerId = "7C1725DE-9D81-4366-9E02-5B418FA849BA";
paths = (
{
closed = 1;
nodes = (
"177 429 OFFCURVE",
"218 429 OFFCURVE",
"271 430 CURVE",
"271 343 LINE",
"214 348 OFFCURVE",
"168 348 OFFCURVE",
"111 343 CURVE",
"124 430 LINE"
);
},
{
closed = 1;
nodes = (
"136 410 OFFCURVE",
"138 235 OFFCURVE",
"144 166 CURVE SMOOTH",
"153 65 OFFCURVE",
"191 73 OFFCURVE",
"277 81 CURVE",
"285 55 LINE",
"226 26 OFFCURVE",
"169 0 OFFCURVE",
"132 -10 CURVE",
"92 -5 OFFCURVE",
"50 15 OFFCURVE",
"50 75 CURVE SMOOTH",
"50 146 OFFCURVE",
"51 269 OFFCURVE",
"51 352 CURVE",
"27 352 LINE",
"27 374 LINE",
"145 499 LINE",
"160 494 LINE"
);
}
);
width = 301;
}
);
unicode = 0074;
},
{
color = 4;
glyphname = t_acute;
lastChange = "2019-05-23 17:04:36 +0000";
layers = (
{
layerId = "7C1725DE-9D81-4366-9E02-5B418FA849BA";
paths = (
{
closed = 1;
nodes = (
"28 564 OFFCURVE",
"27 614 OFFCURVE",
"27 634 CURVE",
"27 657 OFFCURVE",
"121 700 OFFCURVE",
"155 710 CURVE",
"224 700 OFFCURVE",
"275 578 OFFCURVE",
"320 578 CURVE SMOOTH",
"338 578 OFFCURVE",
"337 608 OFFCURVE",
"301 641 CURVE",
"301 646 LINE",
"350 700 LINE",
"370 689 OFFCURVE",
"391 657 OFFCURVE",
"391 625 CURVE",
"381 577 OFFCURVE",
"300 516 OFFCURVE",
"272 508 CURVE",
"201 518 OFFCURVE",
"138 648 OFFCURVE",
"96 648 CURVE SMOOTH",
"81 648 OFFCURVE",
"92 606 OFFCURVE",
"112 574 CURVE",
"37 541 LINE"
);
},
{
closed = 1;
nodes = (
"357 430 LINE",
"357 350 LINE",
"146 350 LINE",
"159 430 LINE"
);
},
{
closed = 1;
nodes = (
"172 410 OFFCURVE",
"167 276 OFFCURVE",
"171 176 CURVE SMOOTH",
"173 120 OFFCURVE",
"191 105 OFFCURVE",
"224 105 CURVE SMOOTH",
"266 105 OFFCURVE",
"328 149 OFFCURVE",
"354 168 CURVE",
"371 145 LINE",
"312 86 OFFCURVE",
"231 26 OFFCURVE",
"174 -10 CURVE",
"124 -10 OFFCURVE",
"74 30 OFFCURVE",
"74 60 CURVE SMOOTH",
"74 131 OFFCURVE",
"78 277 OFFCURVE",
"78 360 CURVE",
"36 360 LINE",
"36 381 LINE",
"82 405 OFFCURVE",
"128 437 OFFCURVE",
"158 479 CURVE",
"181 474 LINE"
);
}
);
width = 406;
}
);
leftMetricsKey = t;
},
{
color = 4;
glyphname = t_a;
lastChange = "2019-05-23 17:04:36 +0000";
layers = (
{
layerId = "7C1725DE-9D81-4366-9E02-5B418FA849BA";
paths = (
{
closed = 1;
nodes = (
"133 430 LINE",
"351 430 LINE",
"351 411 LINE",
"276 352 LINE",
"131 352 LINE"
);
},
{
closed = 1;
nodes = (
"239 84 LINE",
"119 -10 LINE",
"69 10 OFFCURVE",
"55 32 OFFCURVE",
"55 81 CURVE SMOOTH",
"55 103 OFFCURVE",
"57 221 OFFCURVE",
"57 290 CURVE SMOOTH",
"57 346 OFFCURVE",
"52 347 OFFCURVE",
"27 366 CURVE",
"27 391 LINE",
"74 430 OFFCURVE",
"107 466 OFFCURVE",
"142 513 CURVE",
"157 508 LINE",
"145 421 OFFCURVE",
"145 333 OFFCURVE",
"145 246 CURVE SMOOTH",
"145 130 OFFCURVE",
"167 72 OFFCURVE",
"250 119 CURVE"
);
},
{
closed = 1;
nodes = (
"453 126 LINE",
"453 276 LINE",
"447 296 LINE",
"454 317 OFFCURVE",
"422 340 OFFCURVE",
"383 340 CURVE SMOOTH",
"362 340 OFFCURVE",
"343 336 OFFCURVE",
"321 331 CURVE",
"318 350 LINE",
"436 430 LINE",
"506 430 OFFCURVE",
"554 398 OFFCURVE",
"554 361 CURVE SMOOTH",
"554 325 OFFCURVE",
"544 259 OFFCURVE",
"544 203 CURVE SMOOTH",
"544 115 OFFCURVE",
"549 98 OFFCURVE",
"579 85 CURVE",
"579 57 LINE",
"456 -10 LINE",
"452 -7 LINE",
"452 110 LINE"
);
},
{
closed = 1;
nodes = (
"457 89 LINE",
"416 63 OFFCURVE",
"347 18 OFFCURVE",
"303 -10 CURVE",
"258 39 OFFCURVE",
"237 89 OFFCURVE",
"227 102 CURVE",
"455 308 LINE",
"460 272 LINE",
"342 174 OFFCURVE",
"323 157 OFFCURVE",
"323 128 CURVE SMOOTH",
"323 104 OFFCURVE",
"355 85 OFFCURVE",
"389 85 CURVE SMOOTH",
"410 85 OFFCURVE",
"449 102 OFFCURVE",
"454 146 CURVE"
);
}
);
width = 589;
}
);
leftMetricsKey = t;
rightMetricsKey = a;
},
{
color = 4;
glyphname = t_i;
lastChange = "2019-04-23 10:19:33 +0000";
layers = (
{
components = (
{
name = i.calt;
transform = "{1, 0, 0, 1, 210, 0}";
}
);
layerId = "7C1725DE-9D81-4366-9E02-5B418FA849BA";
paths = (
{
closed = 1;
nodes = (
"167 72 OFFCURVE",
"145 130 OFFCURVE",
"145 246 CURVE SMOOTH",
"145 333 OFFCURVE",
"145 421 OFFCURVE",
"150 488 CURVE",
"135 493 LINE",
"107 466 OFFCURVE",
"74 430 OFFCURVE",
"27 391 CURVE",
"27 366 LINE",
"52 347 OFFCURVE",
"57 346 OFFCURVE",
"57 290 CURVE SMOOTH",
"57 221 OFFCURVE",
"55 103 OFFCURVE",
"55 81 CURVE SMOOTH",
"55 32 OFFCURVE",
"69 10 OFFCURVE",
"119 -10 CURVE",
"259 84 LINE",
"270 119 LINE"
);
},
{
closed = 1;
nodes = (
"276 352 LINE",
"351 411 LINE",
"351 430 LINE",
"133 430 LINE",
"131 352 LINE"
);
}
);
width = 406;
}
);
leftMetricsKey = t;
rightMetricsKey = i;
},
{
color = 4;
glyphname = t_u;
lastChange = "2019-05-23 17:04:36 +0000";
layers = (
{
components = (
{
name = u;
transform = "{1, 0, 0, 1, 226, 0}";
}
);
layerId = "7C1725DE-9D81-4366-9E02-5B418FA849BA";
paths = (
{
closed = 1;
nodes = (
"299 86 LINE",
"119 -10 LINE",
"69 10 OFFCURVE",
"55 32 OFFCURVE",
"55 81 CURVE SMOOTH",
"55 103 OFFCURVE",
"57 221 OFFCURVE",
"57 290 CURVE SMOOTH",
"57 346 OFFCURVE",
"52 347 OFFCURVE",
"27 366 CURVE",
"27 391 LINE",
"74 430 OFFCURVE",
"107 466 OFFCURVE",
"135 493 CURVE",
"150 488 LINE",
"145 421 OFFCURVE",
"145 333 OFFCURVE",
"145 246 CURVE SMOOTH",
"145 130 OFFCURVE",
"167 72 OFFCURVE",
"290 119 CURVE"
);
},
{
closed = 1;
nodes = (
"133 430 LINE",
"351 430 LINE",
"351 411 LINE",
"296 352 LINE",
"131 352 LINE"
);
}
);
width = 669;
}
);
leftMetricsKey = t;
rightMetricsKey = u;
},
{
color = 4;
glyphname = t_u_macr;
lastChange = "2019-04-11 12:32:39 +0000";
layers = (
{
components = (
{
name = u;
transform = "{1, 0, 0, 1, 226, 0}";
}
);
layerId = "7C1725DE-9D81-4366-9E02-5B418FA849BA";
paths = (
{
closed = 1;
nodes = (
"595 530 OFFCURVE",
"633 569 OFFCURVE",
"659 616 CURVE",
"659 630 OFFCURVE",
"644 642 OFFCURVE",
"637 644 CURVE",
"608 612 LINE",
"616 607 OFFCURVE",
"623 602 OFFCURVE",
"623 594 CURVE",
"597 579 OFFCURVE",
"521 591 OFFCURVE",
"404 593 CURVE",
"389 579 OFFCURVE",
"338 524 OFFCURVE",
"296 490 CURVE",
"317 477 LINE",
"365 506 OFFCURVE",
"402 507 OFFCURVE",
"569 500 CURVE"
);
},
{
closed = 1;
nodes = (
"299 86 LINE",
"119 -10 LINE",
"69 10 OFFCURVE",
"55 32 OFFCURVE",
"55 81 CURVE SMOOTH",
"55 103 OFFCURVE",
"57 221 OFFCURVE",
"57 290 CURVE SMOOTH",
"57 346 OFFCURVE",
"52 347 OFFCURVE",
"27 366 CURVE",
"27 391 LINE",
"74 430 OFFCURVE",
"107 466 OFFCURVE",
"135 493 CURVE",
"150 488 LINE",
"145 421 OFFCURVE",
"145 333 OFFCURVE",
"145 246 CURVE SMOOTH",
"145 130 OFFCURVE",
"167 72 OFFCURVE",
"290 119 CURVE"
);
},
{
closed = 1;
nodes = (
"133 430 LINE",
"351 430 LINE",
"351 411 LINE",
"296 352 LINE",
"131 352 LINE"
);
}
);
width = 680;
}
);
leftMetricsKey = t;
rightMetricsKey = u;
},
{
color = 4;
glyphname = u;
lastChange = "2019-05-23 17:04:36 +0000";
layers = (
{
layerId = "7C1725DE-9D81-4366-9E02-5B418FA849BA";
paths = (
{
closed = 1;
nodes = (
"160 434 LINE",
"165 425 LINE",
"151 367 OFFCURVE",
"157 237 OFFCURVE",
"157 166 CURVE SMOOTH",
"157 106 OFFCURVE",
"193 85 OFFCURVE",
"238 85 CURVE SMOOTH",
"263 85 OFFCURVE",
"303 102 OFFCURVE",
"333 129 CURVE",
"333 83 LINE",
"273 56 OFFCURVE",
"216 12 OFFCURVE",
"156 -10 CURVE",
"94 10 OFFCURVE",
"68 44 OFFCURVE",
"57 88 CURVE",
"57 132 OFFCURVE",
"57 317 OFFCURVE",
"57 338 CURVE SMOOTH",
"57 374 OFFCURVE",
"56 377 OFFCURVE",
"24 392 CURVE",
"24 419 LINE"
);
},
{
closed = 1;
nodes = (
"285 108 OFFCURVE",
"285 225 OFFCURVE",
"285 316 CURVE SMOOTH",
"285 366 OFFCURVE",
"280 369 OFFCURVE",
"240 382 CURVE",
"240 409 LINE",
"387 434 LINE",
"392 425 LINE",
"383 341 OFFCURVE",
"385 192 OFFCURVE",
"385 141 CURVE SMOOTH",
"385 100 OFFCURVE",
"386 92 OFFCURVE",
"422 74 CURVE",
"422 49 LINE",
"323 -15 LINE",
"305 6 OFFCURVE",
"285 34 OFFCURVE",
"285 71 CURVE SMOOTH"
);
}
);
width = 443;
}
);
unicode = 0075;
},
{
color = 4;
glyphname = u_macr;
lastChange = "2019-04-11 10:58:53 +0000";
layers = (
{
anchors = (
{
name = _top;
position = "{215, 430}";
},
{
name = top;
position = "{215, 672}";
}
);
components = (
{
name = u;
}
);
layerId = "7C1725DE-9D81-4366-9E02-5B418FA849BA";
paths = (
{
closed = 1;
nodes = (
"140 576 OFFCURVE",
"112 550 OFFCURVE",
"88 528 CURVE",
"118 516 LINE",
"155 526 OFFCURVE",
"216 525 OFFCURVE",
"288 525 CURVE",
"306 542 OFFCURVE",
"338 570 OFFCURVE",
"374 614 CURVE",
"346 625 LINE",
"308 604 OFFCURVE",
"272 607 OFFCURVE",
"173 613 CURVE"
);
}
);
width = 443;
}
);
leftMetricsKey = u;
rightMetricsKey = u;
unicode = 016B;
},
{
color = 4;
glyphname = u_calt;
lastChange = "2019-04-11 11:01:24 +0000";
layers = (
{
layerId = "7C1725DE-9D81-4366-9E02-5B418FA849BA";
paths = (
{
closed = 1;
nodes = (
"140 443 LINE",
"145 438 LINE",
"136 354 OFFCURVE",
"139 232 OFFCURVE",
"139 181 CURVE SMOOTH",
"139 110 OFFCURVE",
"176 59 OFFCURVE",
"288 112 CURVE",
"288 83 LINE",
"227 38 OFFCURVE",
"172 0 OFFCURVE",
"153 -10 CURVE",
"119 -10 OFFCURVE",
"52 33 OFFCURVE",
"42 88 CURVE",
"42 229 OFFCURVE",
"42 301 OFFCURVE",
"40 419 CURVE"
);
},
{
closed = 1;
nodes = (
"284 316 OFFCURVE",
"284 347 CURVE SMOOTH",
"284 373 OFFCURVE",
"263 380 OFFCURVE",
"239 387 CURVE",
"237 419 LINE",
"382 443 LINE",
"387 438 LINE",
"378 354 OFFCURVE",
"381 182 OFFCURVE",
"381 131 CURVE SMOOTH",
"381 90 OFFCURVE",
"398 94 OFFCURVE",
"421 88 CURVE",
"422 63 LINE",
"288 -15 LINE",
"280 -9 LINE",
"284 101 LINE",
"284 138 OFFCURVE"
);
}
);
width = 439;
}
);
},
{
color = 4;
glyphname = u_ring;
lastChange = "2019-04-23 11:27:55 +0000";
layers = (
{
layerId = "7C1725DE-9D81-4366-9E02-5B418FA849BA";
paths = (
{
closed = 1;
nodes = (
"161 431 LINE",
"166 422 LINE",
"152 364 OFFCURVE",
"158 237 OFFCURVE",
"158 166 CURVE SMOOTH",
"158 106 OFFCURVE",
"194 85 OFFCURVE",
"239 85 CURVE SMOOTH",
"264 85 OFFCURVE",
"304 102 OFFCURVE",
"334 129 CURVE",
"334 83 LINE",
"274 56 OFFCURVE",
"217 12 OFFCURVE",
"157 -10 CURVE",
"95 10 OFFCURVE",
"69 44 OFFCURVE",
"58 88 CURVE",
"58 132 OFFCURVE",
"58 317 OFFCURVE",
"58 338 CURVE SMOOTH",
"58 374 OFFCURVE",
"57 387 OFFCURVE",
"5 402 CURVE",
"5 429 LINE"
);
},
{
closed = 1;
nodes = (
"286 108 OFFCURVE",
"286 235 OFFCURVE",
"286 326 CURVE SMOOTH",
"286 376 OFFCURVE",
"281 379 OFFCURVE",
"261 392 CURVE",
"261 419 LINE",
"408 434 LINE",
"413 413 LINE",
"393 385 OFFCURVE",
"391 386 OFFCURVE",
"389 347 CURVE SMOOTH",
"385 276 OFFCURVE",
"386 174 OFFCURVE",
"386 141 CURVE SMOOTH",
"386 100 OFFCURVE",
"387 92 OFFCURVE",
"423 74 CURVE",
"423 49 LINE",
"324 -15 LINE",
"306 6 OFFCURVE",
"286 34 OFFCURVE",
"286 71 CURVE SMOOTH"
);
},
{
closed = 1;
nodes = (
"306 700 OFFCURVE",
"357 663 OFFCURVE",
"357 586 CURVE SMOOTH",
"357 513 OFFCURVE",
"281 467 OFFCURVE",
"208 467 CURVE SMOOTH",
"131 467 OFFCURVE",
"81 510 OFFCURVE",
"81 580 CURVE SMOOTH",
"81 640 OFFCURVE",
"136 700 OFFCURVE",
"230 700 CURVE SMOOTH"
);
},
{
closed = 1;
nodes = (
"264 505 OFFCURVE",
"280 531 OFFCURVE",
"280 565 CURVE SMOOTH",
"280 612 OFFCURVE",
"253 660 OFFCURVE",
"205 660 CURVE SMOOTH",
"171 660 OFFCURVE",
"159 632 OFFCURVE",
"159 597 CURVE SMOOTH",
"159 555 OFFCURVE",
"193 505 OFFCURVE",
"238 505 CURVE SMOOTH"
);
}
);
width = 444;
}
);
rightMetricsKey = u;
unicode = 016F;
},
{
color = 4;
glyphname = u_urrot;
lastChange = "2019-04-11 11:02:13 +0000";
layers = (
{
layerId = "7C1725DE-9D81-4366-9E02-5B418FA849BA";
paths = (
{
closed = 1;
nodes = (
"319 524 LINE",
"269 530 OFFCURVE",
"245 525 OFFCURVE",
"254 582 CURVE SMOOTH",
"259 611 OFFCURVE",
"279 660 OFFCURVE",
"288 694 CURVE",
"278 703 LINE",
"251 701 OFFCURVE",
"153 679 OFFCURVE",
"117 674 CURVE",
"117 642 LINE",
"174 648 OFFCURVE",
"176 645 OFFCURVE",
"174 628 CURVE SMOOTH",
"167 568 OFFCURVE",
"161 518 OFFCURVE",
"154 482 CURVE",
"181 488 OFFCURVE",
"301 493 OFFCURVE",
"318 494 CURVE"
);
},
{
closed = 1;
nodes = (
"161 431 LINE",
"166 422 LINE",
"152 364 OFFCURVE",
"158 237 OFFCURVE",
"158 166 CURVE SMOOTH",
"158 106 OFFCURVE",
"194 85 OFFCURVE",
"239 85 CURVE SMOOTH",
"264 85 OFFCURVE",
"304 102 OFFCURVE",
"334 129 CURVE",
"334 83 LINE",
"274 56 OFFCURVE",
"217 12 OFFCURVE",
"157 -10 CURVE",
"95 10 OFFCURVE",
"69 44 OFFCURVE",
"58 88 CURVE",
"58 132 OFFCURVE",
"58 317 OFFCURVE",
"58 338 CURVE SMOOTH",
"58 374 OFFCURVE",
"57 387 OFFCURVE",
"5 402 CURVE",
"5 429 LINE"
);
},
{
closed = 1;
nodes = (
"286 108 OFFCURVE",
"286 235 OFFCURVE",
"286 326 CURVE SMOOTH",
"286 376 OFFCURVE",
"281 379 OFFCURVE",
"261 392 CURVE",
"261 419 LINE",
"408 434 LINE",
"413 413 LINE",
"393 385 OFFCURVE",
"391 386 OFFCURVE",
"389 347 CURVE SMOOTH",
"385 276 OFFCURVE",
"386 174 OFFCURVE",
"386 141 CURVE SMOOTH",
"386 100 OFFCURVE",
"387 92 OFFCURVE",
"423 74 CURVE",
"423 49 LINE",
"324 -15 LINE",
"306 6 OFFCURVE",
"286 34 OFFCURVE",
"286 71 CURVE SMOOTH"
);
}
);
width = 438;
}
);
},
{
color = 4;
glyphname = u_i;
lastChange = "2019-04-11 12:32:39 +0000";
layers = (
{
layerId = "7C1725DE-9D81-4366-9E02-5B418FA849BA";
paths = (
{
closed = 1;
nodes = (
"559 486 LINE",
"665 607 LINE",
"665 615 LINE",
"613 628 LINE",
"524 487 LINE",
"527 480 LINE"
);
},
{
closed = 1;
nodes = (
"391 432 LINE",
"396 423 LINE",
"382 365 OFFCURVE",
"388 235 OFFCURVE",
"388 164 CURVE SMOOTH",
"388 104 OFFCURVE",
"404 79 OFFCURVE",
"449 79 CURVE SMOOTH",
"474 79 OFFCURVE",
"534 110 OFFCURVE",
"564 137 CURVE",
"564 91 LINE",
"504 64 OFFCURVE",
"427 10 OFFCURVE",
"367 -12 CURVE",
"305 8 OFFCURVE",
"299 42 OFFCURVE",
"288 86 CURVE",
"288 130 OFFCURVE",
"288 315 OFFCURVE",
"288 336 CURVE SMOOTH",
"288 372 OFFCURVE",
"287 375 OFFCURVE",
"255 390 CURVE",
"255 417 LINE"
);
},
{
closed = 1;
nodes = (
"516 106 OFFCURVE",
"516 223 OFFCURVE",
"516 314 CURVE SMOOTH",
"516 364 OFFCURVE",
"511 367 OFFCURVE",
"471 380 CURVE",
"471 407 LINE",
"618 432 LINE",
"623 423 LINE",
"614 339 OFFCURVE",
"616 190 OFFCURVE",
"616 139 CURVE SMOOTH",
"616 98 OFFCURVE",
"617 90 OFFCURVE",
"653 72 CURVE",
"653 47 LINE",
"554 -17 LINE",
"536 4 OFFCURVE",
"516 32 OFFCURVE",
"516 69 CURVE SMOOTH"
);
},
{
closed = 1;
nodes = (
"169 432 LINE",
"174 423 LINE",
"160 365 OFFCURVE",
"157 317 OFFCURVE",
"157 246 CURVE SMOOTH",
"157 115 OFFCURVE",
"177 83 OFFCURVE",
"222 83 CURVE SMOOTH",
"247 83 OFFCURVE",
"303 110 OFFCURVE",
"333 137 CURVE",
"333 91 LINE",
"273 64 OFFCURVE",
"190 10 OFFCURVE",
"130 -12 CURVE",
"92 -2 OFFCURVE",
"60 32 OFFCURVE",
"57 76 CURVE",
"57 120 OFFCURVE",
"67 305 OFFCURVE",
"67 326 CURVE SMOOTH",
"67 362 OFFCURVE",
"56 375 OFFCURVE",
"24 390 CURVE",
"24 417 LINE"
);
}
);
width = 675;
}
);
leftMetricsKey = u;
rightMetricsKey = i;
},
{
color = 4;
glyphname = v;
lastChange = "2019-04-23 10:19:28 +0000";
layers = (
{
layerId = "7C1725DE-9D81-4366-9E02-5B418FA849BA";
paths = (
{
closed = 1;
nodes = (
"0 403 LINE",
"40 351 OFFCURVE",
"193 55 OFFCURVE",
"207 -10 CURVE",
"245 -10 LINE",
"282 98 OFFCURVE",
"419 351 OFFCURVE",
"458 411 CURVE",
"457 430 LINE",
"303 430 LINE",
"303 395 LINE",
"342 383 OFFCURVE",
"345 370 OFFCURVE",
"324 312 CURVE SMOOTH",
"238 73 LINE",
"258 73 LINE",
"185 277 LINE SMOOTH",
"156 358 OFFCURVE",
"153 376 OFFCURVE",
"205 395 CURVE",
"205 430 LINE",
"2 430 LINE"
);
}
);
width = 468;
}
);
unicode = 0076;
},
{
color = 6;
glyphname = w;
lastChange = "2019-04-17 18:06:59 +0000";
layers = (
{
layerId = "7C1725DE-9D81-4366-9E02-5B418FA849BA";
paths = (
{
closed = 1;
nodes = (
"0 403 LINE",
"40 351 OFFCURVE",
"194 55 OFFCURVE",
"208 -10 CURVE",
"246 -10 LINE",
"283 98 OFFCURVE",
"365 233 OFFCURVE",
"404 293 CURVE",
"332 312 LINE",
"239 73 LINE",
"259 73 LINE",
"185 277 LINE SMOOTH",
"156 358 OFFCURVE",
"153 376 OFFCURVE",
"195 395 CURVE",
"195 430 LINE",
"2 430 LINE"
);
},
{
closed = 1;
nodes = (
"258 403 LINE",
"298 351 OFFCURVE",
"441 55 OFFCURVE",
"455 -10 CURVE",
"493 -10 LINE",
"530 98 OFFCURVE",
"667 351 OFFCURVE",
"706 411 CURVE",
"705 430 LINE",
"551 430 LINE",
"551 395 LINE",
"590 383 OFFCURVE",
"593 370 OFFCURVE",
"572 312 CURVE SMOOTH",
"486 73 LINE",
"506 73 LINE",
"443 277 LINE SMOOTH",
"418 359 OFFCURVE",
"411 376 OFFCURVE",
"463 395 CURVE",
"463 430 LINE",
"260 430 LINE"
);
}
);
width = 706;
}
);
unicode = 0077;
},
{
color = 4;
glyphname = x;
lastChange = "2019-05-23 17:04:36 +0000";
layers = (
{
layerId = "7C1725DE-9D81-4366-9E02-5B418FA849BA";
paths = (
{
closed = 1;
nodes = (
"27 373 LINE",
"114 440 LINE",
"224 370 OFFCURVE",
"292 124 OFFCURVE",
"383 124 CURVE SMOOTH",
"422 124 OFFCURVE",
"443 142 OFFCURVE",
"480 164 CURVE",
"501 140 LINE",
"444 80 OFFCURVE",
"353 -10 OFFCURVE",
"327 -10 CURVE",
"273 18 OFFCURVE",
"129 333 OFFCURVE",
"27 348 CURVE"
);
},
{
closed = 1;
nodes = (
"203 243 LINE",
"271 381 OFFCURVE",
"316 443 OFFCURVE",
"405 443 CURVE SMOOTH",
"454 443 OFFCURVE",
"482 402 OFFCURVE",
"489 386 CURVE",
"458 293 LINE",
"441 290 LINE",
"430 309 OFFCURVE",
"400 325 OFFCURVE",
"372 325 CURVE SMOOTH",
"304 325 OFFCURVE",
"264 287 OFFCURVE",
"231 206 CURVE"
);
},
{
closed = 1;
nodes = (
"171 129 OFFCURVE",
"95 41 OFFCURVE",
"25 -10 CURVE",
"15 -5 LINE",
"16 35 LINE",
"81 72 OFFCURVE",
"135 147 OFFCURVE",
"188 233 CURVE",
"219 186 LINE"
);
}
);
width = 500;
}
);
unicode = 0078;
},
{
color = 4;
glyphname = x_ring;
lastChange = "2019-04-23 11:27:51 +0000";
layers = (
{
components = (
{
name = x;
}
);
layerId = "7C1725DE-9D81-4366-9E02-5B418FA849BA";
paths = (
{
closed = 1;
nodes = (
"369 710 OFFCURVE",
"420 673 OFFCURVE",
"420 596 CURVE SMOOTH",
"420 523 OFFCURVE",
"344 477 OFFCURVE",
"271 477 CURVE SMOOTH",
"194 477 OFFCURVE",
"144 520 OFFCURVE",
"144 590 CURVE SMOOTH",
"144 650 OFFCURVE",
"199 710 OFFCURVE",
"293 710 CURVE SMOOTH"
);
},
{
closed = 1;
nodes = (
"327 515 OFFCURVE",
"343 541 OFFCURVE",
"343 575 CURVE SMOOTH",
"343 622 OFFCURVE",
"316 670 OFFCURVE",
"268 670 CURVE SMOOTH",
"234 670 OFFCURVE",
"222 642 OFFCURVE",
"222 607 CURVE SMOOTH",
"222 565 OFFCURVE",
"256 515 OFFCURVE",
"301 515 CURVE SMOOTH"
);
}
);
width = 500;
}
);
leftMetricsKey = x;
rightMetricsKey = x;
},
{
color = 4;
glyphname = x_urrot;
lastChange = "2019-04-11 11:05:43 +0000";
layers = (
{
components = (
{
name = x;
}
);
layerId = "7C1725DE-9D81-4366-9E02-5B418FA849BA";
paths = (
{
closed = 1;
nodes = (
"309 514 LINE",
"263 512 OFFCURVE",
"254 508 OFFCURVE",
"261 554 CURVE",
"265 582 OFFCURVE",
"275 628 OFFCURVE",
"280 660 CURVE",
"269 667 LINE",
"246 662 OFFCURVE",
"157 638 OFFCURVE",
"125 629 CURVE",
"129 599 LINE",
"181 604 OFFCURVE",
"182 602 OFFCURVE",
"184 558 CURVE SMOOTH",
"185 531 OFFCURVE",
"184 503 OFFCURVE",
"181 468 CURVE",
"190 460 LINE",
"227 472 OFFCURVE",
"301 485 OFFCURVE",
"312 487 CURVE"
);
}
);
width = 500;
}
);
leftMetricsKey = x;
rightMetricsKey = x;
},
{
color = 4;
glyphname = y;
lastChange = "2019-05-23 17:04:36 +0000";
layers = (
{
layerId = "7C1725DE-9D81-4366-9E02-5B418FA849BA";
paths = (
{
closed = 1;
nodes = (
"236 71 OFFCURVE",
"163 -139 OFFCURVE",
"73 -318 CURVE",
"118 -340 LINE",
"232 -88 OFFCURVE",
"400 357 OFFCURVE",
"441 415 CURVE",
"436 435 LINE",
"379 428 OFFCURVE",
"323 428 OFFCURVE",
"268 430 CURVE",
"268 395 LINE",
"328 375 OFFCURVE",
"329 376 OFFCURVE",
"297 270 CURVE SMOOTH"
);
},
{
closed = 1;
nodes = (
"262 48 LINE",
"176 303 LINE SMOOTH",
"148 385 OFFCURVE",
"148 384 OFFCURVE",
"204 395 CURVE",
"204 430 LINE",
"163 429 OFFCURVE",
"64 431 OFFCURVE",
"5 435 CURVE",
"5 413 LINE",
"69 301 OFFCURVE",
"135 153 OFFCURVE",
"219 -39 CURVE"
);
}
);
width = 446;
}
);
unicode = 0079;
},
{
color = 4;
glyphname = z;
lastChange = "2019-04-08 14:17:30 +0000";
layers = (
{
layerId = "7C1725DE-9D81-4366-9E02-5B418FA849BA";
paths = (
{
closed = 1;
nodes = (
"19 371 LINE",
"182 440 LINE",
"237 421 OFFCURVE",
"287 384 OFFCURVE",
"287 338 CURVE SMOOTH",
"287 266 OFFCURVE",
"206 200 OFFCURVE",
"161 148 CURVE",
"154 179 LINE",
"257 127 OFFCURVE",
"289 82 OFFCURVE",
"289 6 CURVE SMOOTH",
"289 -89 OFFCURVE",
"195 -219 OFFCURVE",
"42 -340 CURVE",
"21 -309 LINE",
"97 -244 OFFCURVE",
"194 -162 OFFCURVE",
"194 -43 CURVE SMOOTH",
"194 24 OFFCURVE",
"166 68 OFFCURVE",
"59 87 CURVE",
"53 111 LINE",
"134 159 OFFCURVE",
"179 221 OFFCURVE",
"179 258 CURVE SMOOTH",
"179 324 OFFCURVE",
"116 349 OFFCURVE",
"26 343 CURVE"
);
}
);
width = 294;
}
);
unicode = 007A;
},
{
color = 5;
glyphname = gamma;
lastChange = "2019-04-23 10:14:55 +0000";
layers = (
{
layerId = "7C1725DE-9D81-4366-9E02-5B418FA849BA";
paths = (
{
closed = 1;
nodes = (
"19 377 LINE",
"64 405 OFFCURVE",
"116 430 OFFCURVE",
"146 430 CURVE SMOOTH",
"231 430 OFFCURVE",
"300 427 OFFCURVE",
"376 453 CURVE",
"389 439 LINE",
"369 410 OFFCURVE",
"340 371 OFFCURVE",
"322 351 CURVE",
"256 351 OFFCURVE",
"164 365 OFFCURVE",
"131 351 CURVE",
"123 288 OFFCURVE",
"149 125 OFFCURVE",
"135 -7 CURVE",
"98 1 OFFCURVE",
"63 8 OFFCURVE",
"26 15 CURVE",
"26 36 LINE",
"42 51 OFFCURVE",
"54 70 OFFCURVE",
"54 230 CURVE SMOOTH",
"54 302 OFFCURVE",
"52 337 OFFCURVE",
"20 362 CURVE"
);
}
);
width = 387;
}
);
unicode = 03B3;
},
{
color = 5;
glyphname = mu;
lastChange = "2019-05-23 17:04:36 +0000";
layers = (
{
layerId = "7C1725DE-9D81-4366-9E02-5B418FA849BA";
paths = (
{
closed = 1;
nodes = (
"142 252 OFFCURVE",
"151 -43 OFFCURVE",
"162 -198 CURVE",
"53 -200 LINE",
"62 11 OFFCURVE",
"65 245 OFFCURVE",
"50 432 CURVE",
"63 440 LINE",
"142 410 LINE"
);
},
{
closed = 1;
nodes = (
"369 383 OFFCURVE",
"393 289 OFFCURVE",
"393 151 CURVE SMOOTH",
"393 41 OFFCURVE",
"334 -10 OFFCURVE",
"256 -10 CURVE SMOOTH",
"210 -10 OFFCURVE",
"138 46 OFFCURVE",
"126 91 CURVE",
"133 130 LINE",
"154 92 OFFCURVE",
"196 74 OFFCURVE",
"225 74 CURVE SMOOTH",
"259 74 OFFCURVE",
"309 100 OFFCURVE",
"309 182 CURVE SMOOTH",
"309 266 OFFCURVE",
"300 350 OFFCURVE",
"283 410 CURVE",
"382 442 LINE",
"395 423 LINE"
);
}
);
width = 444;
}
);
unicode = 03BC;
},
{
color = 5;
glyphname = upsilon;
lastChange = "2019-04-23 10:14:42 +0000";
layers = (
{
layerId = "7C1725DE-9D81-4366-9E02-5B418FA849BA";
paths = (
{
closed = 1;
nodes = (
"10 370 LINE",
"149 419 LINE",
"172 389 OFFCURVE",
"193 340 OFFCURVE",
"217 274 CURVE SMOOTH",
"249 188 OFFCURVE",
"265 85 OFFCURVE",
"343 85 CURVE SMOOTH",
"420 85 OFFCURVE",
"443 200 OFFCURVE",
"486 386 CURVE",
"627 418 LINE",
"628 387 LINE",
"549 315 OFFCURVE",
"507 -10 OFFCURVE",
"338 -10 CURVE SMOOTH",
"211 -10 OFFCURVE",
"184 87 OFFCURVE",
"136 207 CURVE SMOOTH",
"101 294 OFFCURVE",
"62 325 OFFCURVE",
"10 340 CURVE"
);
}
);
width = 626;
}
);
unicode = 03C5;
},
{
color = 5;
glyphname = omega;
lastChange = "2019-04-23 10:14:45 +0000";
layers = (
{
layerId = "7C1725DE-9D81-4366-9E02-5B418FA849BA";
paths = (
{
closed = 1;
nodes = (
"671 416 OFFCURVE",
"558 426 CURVE",
"518 336 LINE",
"625 324 OFFCURVE",
"688 274 OFFCURVE",
"688 201 CURVE SMOOTH",
"688 128 OFFCURVE",
"646 84 OFFCURVE",
"578 84 CURVE SMOOTH",
"505 84 OFFCURVE",
"453 123 OFFCURVE",
"453 210 CURVE",
"373 219 LINE",
"350 131 OFFCURVE",
"304 82 OFFCURVE",
"223 82 CURVE SMOOTH",
"159 82 OFFCURVE",
"112 127 OFFCURVE",
"112 193 CURVE SMOOTH",
"112 258 OFFCURVE",
"166 322 OFFCURVE",
"257 325 CURVE",
"320 413 LINE",
"319 430 LINE",
"148 457 OFFCURVE",
"40 305 OFFCURVE",
"40 181 CURVE SMOOTH",
"40 54 OFFCURVE",
"117 -10 OFFCURVE",
"217 -10 CURVE SMOOTH",
"310 -10 OFFCURVE",
"374 58 OFFCURVE",
"407 130 CURVE",
"378 132 LINE",
"391 60 OFFCURVE",
"448 -10 OFFCURVE",
"560 -10 CURVE SMOOTH",
"680 -10 OFFCURVE",
"768 86 OFFCURVE",
"768 225 CURVE SMOOTH",
"768 348 OFFCURVE"
);
}
);
width = 817;
}
);
unicode = 03C9;
},
{
color = 5;
glyphname = leo;
lastChange = "2019-04-23 10:14:47 +0000";
layers = (
{
layerId = "7C1725DE-9D81-4366-9E02-5B418FA849BA";
paths = (
{
closed = 1;
nodes = (
"150 331 OFFCURVE",
"32 266 OFFCURVE",
"32 146 CURVE SMOOTH",
"32 66 OFFCURVE",
"88 -10 OFFCURVE",
"197 -10 CURVE SMOOTH",
"306 -10 OFFCURVE",
"396 67 OFFCURVE",
"396 179 CURVE SMOOTH",
"396 291 OFFCURVE",
"298 356 OFFCURVE",
"226 430 CURVE SMOOTH",
"154 504 OFFCURVE",
"110 560 OFFCURVE",
"110 590 CURVE SMOOTH",
"110 610 OFFCURVE",
"123 630 OFFCURVE",
"153 630 CURVE SMOOTH",
"286 630 OFFCURVE",
"485 199 OFFCURVE",
"602 -10 CURVE",
"622 -10 LINE",
"664 124 LINE",
"612 202 OFFCURVE",
"456 471 OFFCURVE",
"393 563 CURVE SMOOTH",
"323 665 OFFCURVE",
"261 710 OFFCURVE",
"165 710 CURVE SMOOTH",
"85 710 OFFCURVE",
"20 664 OFFCURVE",
"20 584 CURVE SMOOTH",
"20 425 OFFCURVE",
"291 317 OFFCURVE",
"291 172 CURVE SMOOTH",
"291 115 OFFCURVE",
"255 85 OFFCURVE",
"211 85 CURVE SMOOTH",
"167 85 OFFCURVE",
"137 125 OFFCURVE",
"137 175 CURVE SMOOTH",
"137 225 OFFCURVE",
"177 265 OFFCURVE",
"235 302 CURVE",
"207 362 LINE"
);
}
);
width = 684;
}
);
unicode = 264C;
},
{
color = 5;
glyphname = Eta;
lastChange = "2019-04-23 10:15:10 +0000";
layers = (
{
layerId = "7C1725DE-9D81-4366-9E02-5B418FA849BA";
paths = (
{
closed = 1;
nodes = (
"88 -10 LINE",
"190 19 LINE",
"192 93 OFFCURVE",
"194 187 OFFCURVE",
"194 225 CURVE SMOOTH",
"194 323 OFFCURVE",
"185 407 OFFCURVE",
"143 440 CURVE",
"49 390 LINE",
"49 370 LINE",
"83 350 OFFCURVE",
"102 317 OFFCURVE",
"102 199 CURVE SMOOTH",
"102 95 OFFCURVE",
"97 53 OFFCURVE",
"84 -1 CURVE"
);
},
{
closed = 1;
nodes = (
"375 76 OFFCURVE",
"362 182 OFFCURVE",
"362 278 CURVE SMOOTH",
"362 342 OFFCURVE",
"360 378 OFFCURVE",
"385 405 CURVE",
"385 440 LINE",
"265 426 LINE",
"264 382 OFFCURVE",
"263 340 OFFCURVE",
"263 284 CURVE SMOOTH",
"263 179 OFFCURVE",
"281 37 OFFCURVE",
"287 -7 CURVE",
"394 17 LINE",
"396 28 LINE"
);
},
{
closed = 1;
nodes = (
"202 209 OFFCURVE",
"245 221 OFFCURVE",
"288 236 CURVE",
"282 299 LINE",
"242 275 OFFCURVE",
"198 257 OFFCURVE",
"162 247 CURVE",
"159 181 LINE"
);
}
);
width = 424;
}
);
unicode = 0397;
},
{
color = 5;
glyphname = alpha;
lastChange = "2019-04-23 10:15:07 +0000";
layers = (
{
layerId = "7C1725DE-9D81-4366-9E02-5B418FA849BA";
paths = (
{
closed = 1;
nodes = (
"615 192 LINE",
"593 156 OFFCURVE",
"567 118 OFFCURVE",
"537 118 CURVE SMOOTH",
"454 118 OFFCURVE",
"419 450 OFFCURVE",
"197 430 CURVE",
"120 380 OFFCURVE",
"40 257 OFFCURVE",
"40 183 CURVE SMOOTH",
"40 84 OFFCURVE",
"100 0 OFFCURVE",
"192 -10 CURVE",
"274 10 OFFCURVE",
"358 53 OFFCURVE",
"418 154 CURVE",
"394 183 LINE",
"350 108 OFFCURVE",
"304 85 OFFCURVE",
"243 85 CURVE SMOOTH",
"175 85 OFFCURVE",
"112 149 OFFCURVE",
"112 232 CURVE SMOOTH",
"112 288 OFFCURVE",
"137 327 OFFCURVE",
"196 327 CURVE SMOOTH",
"269 327 OFFCURVE",
"333 274 OFFCURVE",
"366 160 CURVE SMOOTH",
"403 33 OFFCURVE",
"468 -10 OFFCURVE",
"511 -10 CURVE",
"561 20 OFFCURVE",
"607 82 OFFCURVE",
"639 177 CURVE"
);
},
{
closed = 1;
nodes = (
"446 214 LINE",
"454 295 OFFCURVE",
"495 357 OFFCURVE",
"541 386 CURVE",
"541 398 LINE",
"459 440 LINE",
"423 394 OFFCURVE",
"403 299 OFFCURVE",
"421 250 CURVE"
);
}
);
width = 652;
}
);
unicode = 03B1;
},
{
color = 5;
glyphname = beta;
lastChange = "2019-04-23 10:15:04 +0000";
layers = (
{
layerId = "7C1725DE-9D81-4366-9E02-5B418FA849BA";
paths = (
{
closed = 1;
nodes = (
"45 477 OFFCURVE",
"65 262 OFFCURVE",
"65 56 CURVE SMOOTH",
"65 -87 OFFCURVE",
"46 -130 OFFCURVE",
"33 -156 CURVE",
"33 -180 LINE",
"134 -259 LINE",
"177 -195 OFFCURVE",
"177 -65 OFFCURVE",
"164 103 CURVE",
"227 35 OFFCURVE",
"275 -10 OFFCURVE",
"361 -10 CURVE SMOOTH",
"455 -10 OFFCURVE",
"526 60 OFFCURVE",
"526 143 CURVE SMOOTH",
"526 210 OFFCURVE",
"488 262 OFFCURVE",
"450 279 CURVE",
"401 270 OFFCURVE",
"333 258 OFFCURVE",
"264 255 CURVE",
"324 326 OFFCURVE",
"385 421 OFFCURVE",
"385 507 CURVE SMOOTH",
"385 572 OFFCURVE",
"320 684 OFFCURVE",
"221 710 CURVE",
"184 702 OFFCURVE",
"81 655 OFFCURVE",
"10 613 CURVE"
);
},
{
closed = 1;
nodes = (
"154 608 OFFCURVE",
"171 614 OFFCURVE",
"186 611 CURVE",
"235 602 OFFCURVE",
"275 524 OFFCURVE",
"275 445 CURVE SMOOTH",
"275 367 OFFCURVE",
"233 255 OFFCURVE",
"157 200 CURVE",
"146 352 OFFCURVE",
"131 527 OFFCURVE",
"124 592 CURVE"
);
},
{
closed = 1;
nodes = (
"187 172 LINE",
"219 198 OFFCURVE",
"263 223 OFFCURVE",
"329 223 CURVE SMOOTH",
"383 223 OFFCURVE",
"416 195 OFFCURVE",
"416 151 CURVE SMOOTH",
"416 107 OFFCURVE",
"373 85 OFFCURVE",
"323 85 CURVE SMOOTH",
"260 85 OFFCURVE",
"219 111 OFFCURVE",
"176 162 CURVE"
);
}
);
width = 541;
}
);
unicode = 03B2;
},
{
color = 5;
glyphname = delta;
lastChange = "2019-04-23 10:15:01 +0000";
layers = (
{
layerId = "7C1725DE-9D81-4366-9E02-5B418FA849BA";
paths = (
{
closed = 1;
nodes = (
"463 535 LINE",
"497 484 OFFCURVE",
"504 385 OFFCURVE",
"459 359 CURVE",
"255 359 OFFCURVE",
"131 305 OFFCURVE",
"131 199 CURVE SMOOTH",
"131 119 OFFCURVE",
"183 85 OFFCURVE",
"233 85 CURVE SMOOTH",
"273 85 OFFCURVE",
"298 106 OFFCURVE",
"298 156 CURVE SMOOTH",
"298 213 OFFCURVE",
"233 281 OFFCURVE",
"147 293 CURVE",
"194 324 LINE",
"324 297 OFFCURVE",
"393 254 OFFCURVE",
"393 154 CURVE SMOOTH",
"393 64 OFFCURVE",
"313 -10 OFFCURVE",
"213 -10 CURVE SMOOTH",
"103 -10 OFFCURVE",
"44 71 OFFCURVE",
"44 171 CURVE SMOOTH",
"44 312 OFFCURVE",
"153 413 OFFCURVE",
"320 440 CURVE SMOOTH",
"428 458 OFFCURVE",
"431 458 OFFCURVE",
"439 526 CURVE"
);
}
);
width = 524;
}
);
unicode = 03B4;
},
{
color = 5;
glyphname = epsilon;
lastChange = "2019-04-23 10:14:58 +0000";
layers = (
{
layerId = "7C1725DE-9D81-4366-9E02-5B418FA849BA";
paths = (
{
closed = 1;
nodes = (
"269 126 OFFCURVE",
"239 78 OFFCURVE",
"190 78 CURVE SMOOTH",
"154 78 OFFCURVE",
"140 103 OFFCURVE",
"140 130 CURVE SMOOTH",
"140 161 OFFCURVE",
"156 189 OFFCURVE",
"189 214 CURVE",
"210 218 OFFCURVE",
"247 230 OFFCURVE",
"251 239 CURVE",
"234 276 LINE",
"225 274 OFFCURVE",
"198 256 OFFCURVE",
"193 256 CURVE SMOOTH",
"164 256 OFFCURVE",
"141 280 OFFCURVE",
"141 310 CURVE SMOOTH",
"141 343 OFFCURVE",
"157 379 OFFCURVE",
"220 389 CURVE",
"215 439 LINE",
"139 450 OFFCURVE",
"51 384 OFFCURVE",
"51 301 CURVE SMOOTH",
"51 262 OFFCURVE",
"86 228 OFFCURVE",
"131 222 CURVE",
"94 210 OFFCURVE",
"40 161 OFFCURVE",
"40 96 CURVE SMOOTH",
"40 26 OFFCURVE",
"97 -10 OFFCURVE",
"167 -10 CURVE SMOOTH",
"242 -10 OFFCURVE",
"322 60 OFFCURVE",
"347 142 CURVE",
"313 188 LINE",
"296 185 LINE"
);
}
);
width = 367;
}
);
unicode = 03B5;
},
{
color = 5;
glyphname = Theta;
lastChange = "2019-04-24 15:12:21 +0000";
layers = (
{
layerId = "7C1725DE-9D81-4366-9E02-5B418FA849BA";
paths = (
{
closed = 1;
nodes = (
"460 -10 OFFCURVE",
"599 106 OFFCURVE",
"599 296 CURVE SMOOTH",
"599 486 OFFCURVE",
"470 605 OFFCURVE",
"310 605 CURVE SMOOTH",
"160 605 OFFCURVE",
"30 485 OFFCURVE",
"30 295 CURVE SMOOTH",
"30 105 OFFCURVE",
"150 -10 OFFCURVE",
"310 -10 CURVE SMOOTH"
);
},
{
closed = 1;
nodes = (
"213 55 OFFCURVE",
"125 128 OFFCURVE",
"125 296 CURVE SMOOTH",
"125 464 OFFCURVE",
"213 540 OFFCURVE",
"310 540 CURVE SMOOTH",
"407 540 OFFCURVE",
"504 464 OFFCURVE",
"504 296 CURVE SMOOTH",
"504 128 OFFCURVE",
"407 55 OFFCURVE",
"310 55 CURVE SMOOTH"
);
},
{
closed = 1;
nodes = (
"74 267 LINE",
"205 273 OFFCURVE",
"409 273 OFFCURVE",
"538 267 CURVE",
"538 331 LINE",
"336 313 OFFCURVE",
"249 322 OFFCURVE",
"74 331 CURVE"
);
}
);
width = 629;
}
);
unicode = 0398;
},
{
color = 5;
glyphname = theta;
lastChange = "2019-04-23 10:14:53 +0000";
layers = (
{
layerId = "7C1725DE-9D81-4366-9E02-5B418FA849BA";
paths = (
{
closed = 1;
nodes = (
"337 -10 OFFCURVE",
"424 96 OFFCURVE",
"424 296 CURVE SMOOTH",
"424 496 OFFCURVE",
"337 605 OFFCURVE",
"227 605 CURVE SMOOTH",
"117 605 OFFCURVE",
"30 495 OFFCURVE",
"30 295 CURVE SMOOTH",
"30 95 OFFCURVE",
"117 -10 OFFCURVE",
"227 -10 CURVE SMOOTH"
);
},
{
closed = 1;
nodes = (
"167 65 OFFCURVE",
"120 148 OFFCURVE",
"120 296 CURVE SMOOTH",
"120 449 OFFCURVE",
"167 530 OFFCURVE",
"227 530 CURVE SMOOTH",
"287 530 OFFCURVE",
"334 449 OFFCURVE",
"334 296 CURVE SMOOTH",
"334 148 OFFCURVE",
"287 65 OFFCURVE",
"227 65 CURVE SMOOTH"
);
},
{
closed = 1;
nodes = (
"73 267 LINE",
"176 277 OFFCURVE",
"253 277 OFFCURVE",
"355 267 CURVE",
"355 325 LINE",
"266 316 OFFCURVE",
"163 316 OFFCURVE",
"73 325 CURVE"
);
}
);
width = 454;
}
);
unicode = 03B8;
},
{
color = 5;
glyphname = iota;
lastChange = "2019-05-23 17:04:36 +0000";
layers = (
{
layerId = "7C1725DE-9D81-4366-9E02-5B418FA849BA";
paths = (
{
closed = 1;
nodes = (
"53 137 OFFCURVE",
"64 361 OFFCURVE",
"38 391 CURVE",
"40 421 LINE",
"146 442 LINE",
"154 435 LINE",
"154 423 OFFCURVE",
"160 50 OFFCURVE",
"162 0 CURVE",
"44 0 LINE"
);
}
);
width = 202;
}
);
unicode = 03B9;
},
{
color = 5;
glyphname = iota_dieresis;
lastChange = "2019-04-11 11:57:41 +0000";
layers = (
{
components = (
{
name = iota;
transform = "{1, 0, 0, 1, 18, 0}";
}
);
layerId = "7C1725DE-9D81-4366-9E02-5B418FA849BA";
paths = (
{
closed = 1;
nodes = (
"198 525 OFFCURVE",
"211 541 OFFCURVE",
"211 565 CURVE SMOOTH",
"211 588 OFFCURVE",
"198 604 OFFCURVE",
"176 604 CURVE SMOOTH",
"155 604 OFFCURVE",
"142 588 OFFCURVE",
"142 565 CURVE SMOOTH",
"142 541 OFFCURVE",
"155 525 OFFCURVE",
"176 525 CURVE SMOOTH"
);
},
{
closed = 1;
nodes = (
"100 527 OFFCURVE",
"111 541 OFFCURVE",
"111 563 CURVE SMOOTH",
"111 584 OFFCURVE",
"100 600 OFFCURVE",
"79 600 CURVE SMOOTH",
"59 600 OFFCURVE",
"48 584 OFFCURVE",
"48 563 CURVE SMOOTH",
"48 541 OFFCURVE",
"59 527 OFFCURVE",
"79 527 CURVE SMOOTH"
);
}
);
width = 251;
}
);
},
{
color = 5;
glyphname = kappa;
lastChange = "2019-05-23 17:04:36 +0000";
layers = (
{
guideLines = (
{
position = "{301, 470}";
}
);
layerId = "7C1725DE-9D81-4366-9E02-5B418FA849BA";
paths = (
{
closed = 1;
nodes = (
"39 340 LINE",
"76 334 OFFCURVE",
"88 279 OFFCURVE",
"88 226 CURVE SMOOTH",
"88 128 OFFCURVE",
"89 68 OFFCURVE",
"72 -30 CURVE",
"97 -38 LINE",
"225 142 OFFCURVE",
"394 290 OFFCURVE",
"507 382 CURVE",
"506 400 LINE",
"424 440 LINE",
"324 345 OFFCURVE",
"225 229 OFFCURVE",
"145 114 CURVE",
"179 152 LINE",
"179 433 LINE",
"155 440 LINE",
"39 365 LINE"
);
},
{
closed = 1;
nodes = (
"241 46 OFFCURVE",
"349 0 OFFCURVE",
"385 -10 CURVE",
"483 0 LINE",
"483 25 LINE",
"411 48 OFFCURVE",
"273 122 OFFCURVE",
"244 175 CURVE",
"174 100 LINE"
);
}
);
width = 527;
}
);
unicode = 03BA;
},
{
color = 5;
glyphname = lambda;
lastChange = "2019-04-23 10:14:49 +0000";
layers = (
{
layerId = "7C1725DE-9D81-4366-9E02-5B418FA849BA";
paths = (
{
closed = 1;
nodes = (
"6 565 LINE",
"41 606 OFFCURVE",
"137 709 OFFCURVE",
"154 709 CURVE SMOOTH",
"171 709 OFFCURVE",
"553 191 OFFCURVE",
"575 169 CURVE SMOOTH",
"618 127 OFFCURVE",
"620 128 OFFCURVE",
"647 152 CURVE",
"673 127 LINE",
"640 93 OFFCURVE",
"587 36 OFFCURVE",
"541 15 CURVE",
"494 65 OFFCURVE",
"170 501 OFFCURVE",
"127 546 CURVE SMOOTH",
"95 579 OFFCURVE",
"93 579 OFFCURVE",
"31 536 CURVE"
);
},
{
closed = 1;
nodes = (
"293 473 LINE",
"250 385 OFFCURVE",
"128 86 OFFCURVE",
"94 -6 CURVE",
"33 22 LINE",
"75 122 OFFCURVE",
"164 319 OFFCURVE",
"239 530 CURVE"
);
}
);
width = 683;
}
);
unicode = 03BB;
},
{
color = 5;
glyphname = xi;
lastChange = "2019-04-23 10:15:29 +0000";
layers = (
{
layerId = "7C1725DE-9D81-4366-9E02-5B418FA849BA";
paths = (
{
closed = 1;
nodes = (
"191 -92 OFFCURVE",
"138 -70 OFFCURVE",
"138 -16 CURVE SMOOTH",
"138 51 OFFCURVE",
"196 83 OFFCURVE",
"278 109 CURVE",
"266 143 LINE",
"187 109 OFFCURVE",
"133 131 OFFCURVE",
"133 206 CURVE SMOOTH",
"133 268 OFFCURVE",
"189 299 OFFCURVE",
"256 315 CURVE",
"252 348 LINE",
"194 331 OFFCURVE",
"140 351 OFFCURVE",
"140 409 CURVE SMOOTH",
"140 464 OFFCURVE",
"189 494 OFFCURVE",
"271 501 CURVE",
"262 557 LINE",
"149 557 OFFCURVE",
"54 491 OFFCURVE",
"54 400 CURVE SMOOTH",
"54 330 OFFCURVE",
"106 309 OFFCURVE",
"135 283 CURVE",
"137 313 LINE",
"129 297 OFFCURVE",
"49 272 OFFCURVE",
"49 187 CURVE SMOOTH",
"49 126 OFFCURVE",
"92 89 OFFCURVE",
"142 64 CURVE",
"149 102 LINE",
"94 55 OFFCURVE",
"58 -2 OFFCURVE",
"58 -50 CURVE SMOOTH",
"58 -131 OFFCURVE",
"139 -169 OFFCURVE",
"237 -213 CURVE SMOOTH",
"288 -236 OFFCURVE",
"325 -258 OFFCURVE",
"325 -280 CURVE SMOOTH",
"325 -298 OFFCURVE",
"314 -305 OFFCURVE",
"292 -316 CURVE",
"302 -340 LINE",
"361 -335 OFFCURVE",
"425 -293 OFFCURVE",
"425 -251 CURVE SMOOTH",
"425 -212 OFFCURVE",
"398 -181 OFFCURVE",
"282 -131 CURVE SMOOTH"
);
}
);
width = 325;
}
);
unicode = 03BE;
},
{
color = 5;
glyphname = omicron;
lastChange = "2019-05-23 17:04:36 +0000";
layers = (
{
layerId = "7C1725DE-9D81-4366-9E02-5B418FA849BA";
paths = (
{
closed = 1;
nodes = (
"310 75 OFFCURVE",
"356 128 OFFCURVE",
"356 213 CURVE SMOOTH",
"356 298 OFFCURVE",
"304 350 OFFCURVE",
"236 350 CURVE SMOOTH",
"176 350 OFFCURVE",
"131 302 OFFCURVE",
"131 223 CURVE SMOOTH",
"131 129 OFFCURVE",
"183 75 OFFCURVE",
"250 75 CURVE SMOOTH"
);
},
{
closed = 1;
nodes = (
"375 440 OFFCURVE",
"450 343 OFFCURVE",
"450 213 CURVE SMOOTH",
"450 83 OFFCURVE",
"355 -10 OFFCURVE",
"245 -10 CURVE SMOOTH",
"135 -10 OFFCURVE",
"40 73 OFFCURVE",
"40 203 CURVE SMOOTH",
"40 333 OFFCURVE",
"125 440 OFFCURVE",
"245 440 CURVE SMOOTH"
);
}
);
width = 490;
}
);
unicode = 03BF;
},
{
color = 5;
glyphname = pi;
lastChange = "2019-05-23 17:04:36 +0000";
layers = (
{
layerId = "7C1725DE-9D81-4366-9E02-5B418FA849BA";
paths = (
{
closed = 1;
nodes = (
"10 314 LINE",
"27 350 OFFCURVE",
"54 407 OFFCURVE",
"79 435 CURVE",
"182 435 OFFCURVE",
"326 430 OFFCURVE",
"484 430 CURVE SMOOTH",
"602 430 OFFCURVE",
"672 443 OFFCURVE",
"687 477 CURVE",
"718 470 LINE",
"711 423 OFFCURVE",
"701 378 OFFCURVE",
"678 340 CURVE",
"494 340 OFFCURVE",
"311 350 OFFCURVE",
"127 350 CURVE SMOOTH",
"83 350 OFFCURVE",
"59 335 OFFCURVE",
"40 303 CURVE"
);
},
{
closed = 1;
nodes = (
"256 225 OFFCURVE",
"260 36 OFFCURVE",
"260 4 CURVE",
"223 -3 OFFCURVE",
"174 -4 OFFCURVE",
"125 -14 CURVE",
"117 15 LINE",
"136 25 OFFCURVE",
"157 33 OFFCURVE",
"160 70 CURVE SMOOTH",
"166 148 OFFCURVE",
"168 311 OFFCURVE",
"170 374 CURVE",
"271 374 LINE"
);
},
{
closed = 1;
nodes = (
"559 271 OFFCURVE",
"565 138 OFFCURVE",
"572 0 CURVE",
"456 0 LINE",
"462 146 OFFCURVE",
"465 228 OFFCURVE",
"468 369 CURVE",
"560 369 LINE"
);
}
);
width = 723;
}
);
unicode = 03C0;
},
{
color = 5;
glyphname = rho;
lastChange = "2019-04-23 10:15:16 +0000";
layers = (
{
layerId = "7C1725DE-9D81-4366-9E02-5B418FA849BA";
paths = (
{
closed = 1;
nodes = (
"34 -230 LINE",
"73 -246 OFFCURVE",
"151 -275 OFFCURVE",
"158 -275 CURVE",
"183 -244 OFFCURVE",
"188 -228 OFFCURVE",
"189 -185 CURVE SMOOTH",
"191 -87 OFFCURVE",
"168 22 OFFCURVE",
"165 110 CURVE",
"175 102 OFFCURVE",
"204 92 OFFCURVE",
"237 92 CURVE SMOOTH",
"327 92 OFFCURVE",
"399 170 OFFCURVE",
"399 266 CURVE SMOOTH",
"399 372 OFFCURVE",
"330 440 OFFCURVE",
"238 440 CURVE SMOOTH",
"143 440 OFFCURVE",
"71 380 OFFCURVE",
"71 266 CURVE SMOOTH",
"71 171 OFFCURVE",
"88 67 OFFCURVE",
"88 -10 CURVE SMOOTH",
"88 -91 OFFCURVE",
"84 -211 OFFCURVE",
"44 -205 CURVE"
);
},
{
closed = 1;
nodes = (
"148 311 OFFCURVE",
"187 348 OFFCURVE",
"233 348 CURVE SMOOTH",
"276 348 OFFCURVE",
"316 316 OFFCURVE",
"316 255 CURVE SMOOTH",
"316 205 OFFCURVE",
"276 172 OFFCURVE",
"233 172 CURVE SMOOTH",
"187 172 OFFCURVE",
"148 200 OFFCURVE",
"148 260 CURVE SMOOTH"
);
}
);
width = 434;
}
);
unicode = 03C1;
},
{
color = 5;
glyphname = tau;
lastChange = "2019-04-23 10:15:13 +0000";
layers = (
{
layerId = "7C1725DE-9D81-4366-9E02-5B418FA849BA";
paths = (
{
closed = 1;
nodes = (
"17 316 LINE",
"50 382 OFFCURVE",
"103 435 OFFCURVE",
"150 435 CURVE SMOOTH",
"205 435 OFFCURVE",
"240 430 OFFCURVE",
"337 430 CURVE SMOOTH",
"455 430 OFFCURVE",
"462 443 OFFCURVE",
"477 477 CURVE",
"498 465 LINE",
"495 418 OFFCURVE",
"487 371 OFFCURVE",
"462 335 CURVE",
"367 339 OFFCURVE",
"272 348 OFFCURVE",
"177 348 CURVE SMOOTH",
"133 348 OFFCURVE",
"59 335 OFFCURVE",
"40 303 CURVE"
);
},
{
closed = 1;
nodes = (
"306 225 OFFCURVE",
"315 94 OFFCURVE",
"314 -2 CURVE",
"173 -10 LINE",
"170 19 LINE",
"189 29 OFFCURVE",
"207 37 OFFCURVE",
"210 74 CURVE SMOOTH",
"216 152 OFFCURVE",
"225 311 OFFCURVE",
"227 374 CURVE",
"316 374 LINE"
);
}
);
width = 518;
}
);
unicode = 03C4;
},
{
color = 5;
glyphname = upsilon_dieresis;
lastChange = "2019-01-30 16:11:41 +0000";
layers = (
{
components = (
{
name = upsilon;
transform = "{1, 0, 0, 1, -6, 0}";
}
);
layerId = "7C1725DE-9D81-4366-9E02-5B418FA849BA";
paths = (
{
closed = 1;
nodes = (
"420 505 OFFCURVE",
"435 521 OFFCURVE",
"435 545 CURVE SMOOTH",
"435 568 OFFCURVE",
"420 584 OFFCURVE",
"393 584 CURVE SMOOTH",
"368 584 OFFCURVE",
"352 568 OFFCURVE",
"352 545 CURVE SMOOTH",
"352 521 OFFCURVE",
"368 505 OFFCURVE",
"393 505 CURVE SMOOTH"
);
},
{
closed = 1;
nodes = (
"272 505 OFFCURVE",
"287 521 OFFCURVE",
"287 545 CURVE SMOOTH",
"287 568 OFFCURVE",
"272 584 OFFCURVE",
"245 584 CURVE SMOOTH",
"220 584 OFFCURVE",
"204 568 OFFCURVE",
"204 545 CURVE SMOOTH",
"204 521 OFFCURVE",
"220 505 OFFCURVE",
"245 505 CURVE SMOOTH"
);
}
);
width = 606;
}
);
},
{
color = 5;
glyphname = phi;
lastChange = "2019-05-23 17:04:36 +0000";
layers = (
{
layerId = "7C1725DE-9D81-4366-9E02-5B418FA849BA";
paths = (
{
closed = 1;
nodes = (
"291 691 LINE",
"293 612 OFFCURVE",
"298 447 OFFCURVE",
"298 358 CURVE SMOOTH",
"298 137 OFFCURVE",
"303 20 OFFCURVE",
"303 -83 CURVE SMOOTH",
"303 -199 OFFCURVE",
"306 -225 OFFCURVE",
"235 -239 CURVE",
"238 -330 LINE",
"308 -312 OFFCURVE",
"395 -259 OFFCURVE",
"393 -183 CURVE SMOOTH",
"389 -48 OFFCURVE",
"384 227 OFFCURVE",
"384 369 CURVE SMOOTH",
"384 492 OFFCURVE",
"386 585 OFFCURVE",
"414 652 CURVE",
"410 666 LINE",
"304 702 LINE"
);
},
{
closed = 1;
nodes = (
"30 83 OFFCURVE",
"141 23 OFFCURVE",
"339 23 CURVE SMOOTH",
"517 23 OFFCURVE",
"660 102 OFFCURVE",
"660 222 CURVE SMOOTH",
"660 332 OFFCURVE",
"562 414 OFFCURVE",
"355 414 CURVE SMOOTH",
"148 414 OFFCURVE",
"30 311 OFFCURVE",
"30 202 CURVE SMOOTH"
);
},
{
closed = 1;
nodes = (
"102 270 OFFCURVE",
"198 323 OFFCURVE",
"356 323 CURVE SMOOTH",
"483 323 OFFCURVE",
"590 294 OFFCURVE",
"590 222 CURVE SMOOTH",
"590 150 OFFCURVE",
"479 115 OFFCURVE",
"339 115 CURVE SMOOTH",
"199 115 OFFCURVE",
"102 138 OFFCURVE",
"102 202 CURVE SMOOTH"
);
}
);
width = 690;
}
);
unicode = 03C6;
},
{
color = 5;
glyphname = chi;
lastChange = "2019-04-23 10:15:22 +0000";
layers = (
{
layerId = "7C1725DE-9D81-4366-9E02-5B418FA849BA";
paths = (
{
closed = 1;
nodes = (
"98 334 OFFCURVE",
"10 406 CURVE",
"7 425 LINE",
"116 438 LINE",
"182 337 OFFCURVE",
"397 73 OFFCURVE",
"471 56 CURVE",
"473 40 LINE",
"374 -10 LINE",
"371 -10 OFFCURVE"
);
},
{
closed = 1;
nodes = (
"234 167 OFFCURVE",
"106 -8 CURVE",
"0 12 LINE",
"0 28 LINE",
"141 138 OFFCURVE",
"186 203 OFFCURVE",
"397 440 CURVE",
"492 420 LINE",
"493 403 LINE",
"313 292 OFFCURVE"
);
}
);
width = 493;
}
);
unicode = 03C7;
},
{
color = 5;
glyphname = san;
lastChange = "2019-04-23 10:15:18 +0000";
layers = (
{
layerId = "7C1725DE-9D81-4366-9E02-5B418FA849BA";
paths = (
{
closed = 1;
nodes = (
"63 -10 LINE",
"150 18 OFFCURVE",
"206 89 OFFCURVE",
"203 161 CURVE",
"227 119 OFFCURVE",
"274 104 OFFCURVE",
"315 104 CURVE SMOOTH",
"360 104 OFFCURVE",
"401 129 OFFCURVE",
"422 164 CURVE",
"424 70 OFFCURVE",
"480 10 OFFCURVE",
"572 -10 CURVE",
"655 102 LINE",
"635 116 LINE",
"616 101 OFFCURVE",
"602 95 OFFCURVE",
"578 95 CURVE SMOOTH",
"523 95 OFFCURVE",
"484 136 OFFCURVE",
"484 236 CURVE SMOOTH",
"484 299 OFFCURVE",
"507 383 OFFCURVE",
"537 410 CURVE",
"532 431 LINE",
"499 431 OFFCURVE",
"438 427 OFFCURVE",
"408 418 CURVE",
"417 381 OFFCURVE",
"421 335 OFFCURVE",
"421 299 CURVE SMOOTH",
"421 223 OFFCURVE",
"383 175 OFFCURVE",
"316 175 CURVE SMOOTH",
"253 175 OFFCURVE",
"218 201 OFFCURVE",
"205 267 CURVE SMOOTH",
"195 319 OFFCURVE",
"197 351 OFFCURVE",
"201 414 CURVE",
"170 418 OFFCURVE",
"105 428 OFFCURVE",
"74 430 CURVE",
"64 407 LINE",
"119 350 OFFCURVE",
"144 305 OFFCURVE",
"144 225 CURVE SMOOTH",
"144 130 OFFCURVE",
"80 89 OFFCURVE",
"20 72 CURVE"
);
}
);
width = 675;
}
);
unicode = 03FB;
},
{
color = 5;
glyphname = deicoptic;
lastChange = "2019-04-23 10:15:27 +0000";
layers = (
{
layerId = "7C1725DE-9D81-4366-9E02-5B418FA849BA";
paths = (
{
closed = 1;
nodes = (
"10 151 LINE",
"32 207 OFFCURVE",
"58 267 OFFCURVE",
"129 317 CURVE",
"218 317 OFFCURVE",
"450 312 OFFCURVE",
"516 312 CURVE SMOOTH",
"608 312 OFFCURVE",
"676 339 OFFCURVE",
"720 433 CURVE",
"743 423 LINE",
"727 315 OFFCURVE",
"681 252 OFFCURVE",
"621 212 CURVE",
"484 212 OFFCURVE",
"341 216 OFFCURVE",
"231 216 CURVE SMOOTH",
"184 216 OFFCURVE",
"92 208 OFFCURVE",
"45 145 CURVE"
);
},
{
closed = 1;
nodes = (
"411 351 OFFCURVE",
"398 116 OFFCURVE",
"407 -222 CURVE",
"285 -240 LINE",
"303 118 OFFCURVE",
"307 270 OFFCURVE",
"309 656 CURVE",
"321 662 LINE",
"423 637 LINE"
);
}
);
width = 750;
}
);
unicode = 03EF;
},
{
color = 10;
glyphname = ampersand;
lastChange = "2019-05-23 17:04:36 +0000";
layers = (
{
layerId = "7C1725DE-9D81-4366-9E02-5B418FA849BA";
paths = (
{
closed = 1;
nodes = (
"179 516 OFFCURVE",
"124 484 OFFCURVE",
"124 400 CURVE SMOOTH",
"124 326 OFFCURVE",
"224 236 OFFCURVE",
"301 175 CURVE SMOOTH",
"371 119 OFFCURVE",
"512 8 OFFCURVE",
"584 -10 CURVE",
"632 30 OFFCURVE",
"708 125 OFFCURVE",
"742 211 CURVE",
"712 223 LINE",
"692 184 OFFCURVE",
"658 128 OFFCURVE",
"619 128 CURVE SMOOTH",
"550 128 OFFCURVE",
"424 206 OFFCURVE",
"387 232 CURVE SMOOTH",
"333 270 OFFCURVE",
"194 352 OFFCURVE",
"194 414 CURVE SMOOTH",
"194 442 OFFCURVE",
"207 457 OFFCURVE",
"236 457 CURVE SMOOTH",
"268 457 OFFCURVE",
"277 435 OFFCURVE",
"277 410 CURVE SMOOTH",
"277 374 OFFCURVE",
"255 353 OFFCURVE",
"220 340 CURVE",
"230 316 LINE",
"283 337 OFFCURVE",
"317 365 OFFCURVE",
"347 395 CURVE",
"357 474 OFFCURVE",
"302 516 OFFCURVE",
"233 516 CURVE SMOOTH"
);
},
{
closed = 1;
nodes = (
"76 276 OFFCURVE",
"30 226 OFFCURVE",
"30 136 CURVE SMOOTH",
"30 37 OFFCURVE",
"90 -11 OFFCURVE",
"180 -11 CURVE SMOOTH",
"283 -11 OFFCURVE",
"412 84 OFFCURVE",
"476 155 CURVE SMOOTH",
"583 274 OFFCURVE",
"621 356 OFFCURVE",
"679 492 CURVE",
"676 498 LINE",
"521 494 LINE",
"521 469 LINE",
"540 459 OFFCURVE",
"560 442 OFFCURVE",
"560 405 CURVE SMOOTH",
"560 334 OFFCURVE",
"498 229 OFFCURVE",
"439 171 CURVE SMOOTH",
"380 113 OFFCURVE",
"307 85 OFFCURVE",
"237 85 CURVE SMOOTH",
"167 85 OFFCURVE",
"107 121 OFFCURVE",
"107 191 CURVE SMOOTH",
"107 248 OFFCURVE",
"149 282 OFFCURVE",
"191 302 CURVE",
"169 327 LINE"
);
}
);
width = 752;
}
);
unicode = 0026;
},
{
color = 10;
glyphname = etc;
lastChange = "2019-04-11 11:14:53 +0000";
layers = (
{
components = (
{
name = period;
transform = "{1, 0, 0, 1, 674, 65}";
}
);
layerId = "7C1725DE-9D81-4366-9E02-5B418FA849BA";
paths = (
{
closed = 1;
nodes = (
"452 74 OFFCURVE",
"472 -3 OFFCURVE",
"563 -10 CURVE",
"616 21 OFFCURVE",
"649 55 OFFCURVE",
"696 92 CURVE",
"682 118 LINE",
"665 112 OFFCURVE",
"650 101 OFFCURVE",
"620 101 CURVE SMOOTH",
"583 101 OFFCURVE",
"546 166 OFFCURVE",
"546 263 CURVE SMOOTH",
"546 292 OFFCURVE",
"548 321 OFFCURVE",
"556 340 CURVE",
"593 338 OFFCURVE",
"627 325 OFFCURVE",
"661 310 CURVE",
"767 373 LINE",
"766 386 LINE",
"736 404 OFFCURVE",
"645 435 OFFCURVE",
"611 440 CURVE",
"579 426 OFFCURVE",
"489 347 OFFCURVE",
"481 330 CURVE SMOOTH",
"461 288 OFFCURVE",
"452 234 OFFCURVE",
"452 190 CURVE SMOOTH"
);
},
{
closed = 1;
nodes = (
"348 419 OFFCURVE",
"271 423 OFFCURVE",
"187 438 CURVE",
"139 411 OFFCURVE",
"87 345 OFFCURVE",
"68 303 CURVE",
"60 268 OFFCURVE",
"66 202 OFFCURVE",
"115 192 CURVE",
"168 276 LINE",
"168 284 LINE",
"139 288 OFFCURVE",
"120 322 OFFCURVE",
"128 340 CURVE",
"168 355 OFFCURVE",
"269 357 OFFCURVE",
"339 340 CURVE",
"280 241 OFFCURVE",
"228 120 OFFCURVE",
"184 0 CURVE",
"189 -10 LINE",
"391 40 LINE",
"386 70 LINE",
"365 80 OFFCURVE",
"345 75 OFFCURVE",
"345 163 CURVE SMOOTH",
"345 260 OFFCURVE",
"420 397 OFFCURVE",
"441 421 CURVE",
"432 433 LINE"
);
},
{
closed = 1;
nodes = (
"385 698 LINE",
"353 654 OFFCURVE",
"372 621 OFFCURVE",
"425 621 CURVE SMOOTH",
"460 621 OFFCURVE",
"488 637 OFFCURVE",
"557 710 CURVE",
"581 697 LINE",
"538 653 OFFCURVE",
"529 613 OFFCURVE",
"591 613 CURVE SMOOTH",
"641 613 OFFCURVE",
"706 631 OFFCURVE",
"763 680 CURVE",
"783 665 LINE",
"725 607 OFFCURVE",
"645 553 OFFCURVE",
"549 553 CURVE SMOOTH",
"466 553 OFFCURVE",
"458 594 OFFCURVE",
"443 612 CURVE",
"480 611 LINE",
"427 590 OFFCURVE",
"398 564 OFFCURVE",
"338 564 CURVE SMOOTH",
"302 564 OFFCURVE",
"280 577 OFFCURVE",
"280 606 CURVE SMOOTH",
"280 642 OFFCURVE",
"317 672 OFFCURVE",
"368 710 CURVE"
);
},
{
closed = 1;
nodes = (
"23 573 LINE",
"49 650 LINE",
"169 664 OFFCURVE",
"201 607 OFFCURVE",
"263 607 CURVE SMOOTH",
"280 607 OFFCURVE",
"305 624 OFFCURVE",
"315 633 CURVE",
"332 608 LINE",
"304 588 OFFCURVE",
"286 577 OFFCURVE",
"251 577 CURVE SMOOTH",
"187 577 OFFCURVE",
"101 628 OFFCURVE",
"32 561 CURVE"
);
}
);
width = 948;
}
);
},
{
color = 10;
glyphname = etfin;
lastChange = "2019-05-23 17:04:36 +0000";
layers = (
{
layerId = "7C1725DE-9D81-4366-9E02-5B418FA849BA";
paths = (
{
closed = 1;
nodes = (
"19 371 LINE",
"212 440 LINE",
"257 421 OFFCURVE",
"284 384 OFFCURVE",
"284 338 CURVE SMOOTH",
"284 275 OFFCURVE",
"225 217 OFFCURVE",
"180 169 CURVE",
"256 122 OFFCURVE",
"284 69 OFFCURVE",
"284 3 CURVE SMOOTH",
"284 -92 OFFCURVE",
"195 -219 OFFCURVE",
"42 -340 CURVE",
"10 -304 LINE",
"86 -239 OFFCURVE",
"194 -142 OFFCURVE",
"194 -53 CURVE SMOOTH",
"194 4 OFFCURVE",
"166 48 OFFCURVE",
"59 87 CURVE",
"53 102 LINE",
"154 180 OFFCURVE",
"179 221 OFFCURVE",
"179 258 CURVE SMOOTH",
"179 304 OFFCURVE",
"116 346 OFFCURVE",
"26 340 CURVE"
);
}
);
width = 314;
}
);
},
{
color = 10;
glyphname = rum;
lastChange = "2019-05-23 17:04:36 +0000";
layers = (
{
layerId = "7C1725DE-9D81-4366-9E02-5B418FA849BA";
paths = (
{
closed = 1;
nodes = (
"376 0 OFFCURVE",
"199 6 OFFCURVE",
"25 -10 CURVE",
"18 12 LINE",
"86 58 OFFCURVE",
"160 158 OFFCURVE",
"160 224 CURVE SMOOTH",
"160 290 OFFCURVE",
"110 330 OFFCURVE",
"10 340 CURVE",
"10 351 LINE",
"115 440 LINE",
"135 440 OFFCURVE",
"252 417 OFFCURVE",
"252 293 CURVE SMOOTH",
"252 204 OFFCURVE",
"177 131 OFFCURVE",
"125 61 CURVE",
"104 85 LINE",
"544 89 LINE",
"546 85 LINE",
"517 -6 LINE"
);
},
{
closed = 1;
nodes = (
"174 -197 OFFCURVE",
"265 -138 OFFCURVE",
"313 45 CURVE SMOOTH",
"368 255 OFFCURVE",
"409 450 OFFCURVE",
"563 443 CURVE",
"552 296 LINE",
"543 293 LINE",
"521 304 OFFCURVE",
"512 312 OFFCURVE",
"488 312 CURVE SMOOTH",
"423 312 OFFCURVE",
"409 244 OFFCURVE",
"360 62 CURVE SMOOTH",
"308 -131 OFFCURVE",
"231 -236 OFFCURVE",
"45 -313 CURVE",
"43 -250 LINE"
);
}
);
width = 575;
}
);
unicode = A775;
},
{
color = 10;
glyphname = us;
lastChange = "2019-04-24 15:12:14 +0000";
layers = (
{
layerId = "7C1725DE-9D81-4366-9E02-5B418FA849BA";
paths = (
{
closed = 1;
nodes = (
"236 418 LINE",
"158 377 OFFCURVE",
"79 446 OFFCURVE",
"79 537 CURVE SMOOTH",
"79 579 OFFCURVE",
"101 618 OFFCURVE",
"111 622 CURVE",
"189 622 OFFCURVE",
"236 563 OFFCURVE",
"236 477 CURVE SMOOTH",
"236 362 OFFCURVE",
"197 272 OFFCURVE",
"137 168 CURVE SMOOTH",
"49 12 LINE",
"89 -10 LINE",
"177 151 LINE SMOOTH",
"246 277 OFFCURVE",
"304 414 OFFCURVE",
"304 528 CURVE SMOOTH",
"304 628 OFFCURVE",
"273 710 OFFCURVE",
"177 710 CURVE SMOOTH",
"81 710 OFFCURVE",
"20 599 OFFCURVE",
"20 474 CURVE SMOOTH",
"20 393 OFFCURVE",
"51 328 OFFCURVE",
"111 312 CURVE",
"232 386 LINE"
);
}
);
width = 334;
}
);
unicode = A770;
},
{
color = 10;
glyphname = period;
lastChange = "2019-05-23 17:04:36 +0000";
layers = (
{
layerId = "7C1725DE-9D81-4366-9E02-5B418FA849BA";
paths = (
{
closed = 1;
nodes = (
"113 149 LINE",
"84 126 OFFCURVE",
"58 100 OFFCURVE",
"35 74 CURVE",
"35 71 LINE",
"55 42 OFFCURVE",
"76 15 OFFCURVE",
"100 -9 CURVE",
"102 -9 LINE",
"131 13 OFFCURVE",
"158 39 OFFCURVE",
"181 64 CURVE",
"181 68 LINE",
"161 96 OFFCURVE",
"139 124 OFFCURVE",
"113 149 CURVE"
);
}
);
width = 216;
}
);
unicode = 002E;
},
{
color = 10;
glyphname = question;
lastChange = "2019-05-23 17:04:36 +0000";
layers = (
{
components = (
{
name = period;
transform = "{1, 0, 0, 1, 10, 0}";
}
);
layerId = "7C1725DE-9D81-4366-9E02-5B418FA849BA";
paths = (
{
closed = 1;
nodes = (
"196 599 OFFCURVE",
"242 586 OFFCURVE",
"282 586 CURVE SMOOTH",
"321 586 OFFCURVE",
"382 625 OFFCURVE",
"440 697 CURVE",
"472 681 LINE",
"425 604 OFFCURVE",
"326 495 OFFCURVE",
"299 477 CURVE",
"224 486 OFFCURVE",
"134 515 OFFCURVE",
"113 490 CURVE",
"113 454 OFFCURVE",
"170 430 OFFCURVE",
"201 420 CURVE",
"141 319 LINE",
"81 338 OFFCURVE",
"48 363 OFFCURVE",
"48 418 CURVE SMOOTH",
"48 497 OFFCURVE",
"100 559 OFFCURVE",
"147 594 CURVE"
);
}
);
width = 442;
}
);
unicode = 003F;
},
{
color = 10;
glyphname = hyphen;
lastChange = "2019-04-24 14:31:54 +0000";
layers = (
{
layerId = "7C1725DE-9D81-4366-9E02-5B418FA849BA";
paths = (
{
closed = 1;
nodes = (
"126 170 OFFCURVE",
"213 214 OFFCURVE",
"270 277 CURVE",
"289 277 LINE",
"283 170 LINE",
"209 143 OFFCURVE",
"121 104 OFFCURVE",
"64 74 CURVE",
"50 78 LINE",
"51 134 LINE"
);
}
